<svg width="44" height="44" viewBox="0 0 44 44" fill="none" xmlns="http://www.w3.org/2000/svg">
<path fill-rule="evenodd" clip-rule="evenodd" d="M14.1272 20.1423C14.1272 19.9696 14.0406 19.8084 13.8968 19.713C13.7529 19.6176 13.5708 19.6006 13.4118 19.6679C12.5385 20.037 11.5786 20.241 10.5714 20.241C10.1096 20.241 9.65795 20.1982 9.22009 20.1163C9.06947 20.0881 8.91423 20.1283 8.7964 20.2262C8.67858 20.3239 8.61035 20.4693 8.61035 20.6223V36.958C8.61035 38.2802 9.68382 39.3537 11.006 39.3537H39.3174C40.6395 39.3537 41.713 38.2802 41.713 36.958V14.8046C41.713 13.4825 40.6395 12.4092 39.3174 12.4092H36.7112C36.4268 12.4092 36.1962 12.6397 36.1962 12.9242V32.3059C36.196 33.0262 35.6336 33.6213 34.9144 33.6617C32.3034 33.8083 27.5371 34.076 25.7939 34.1739C25.3727 34.1976 24.9505 34.1976 24.5295 34.1739C22.7863 34.076 18.0199 33.8083 15.4089 33.6617C14.6898 33.6213 14.1272 33.0262 14.1272 32.3059V20.1423Z" fill="#FF8791"/>
<path fill-rule="evenodd" clip-rule="evenodd" d="M8.61035 22.2575C9.36494 22.4823 10.1645 22.6031 10.9921 22.6031C12.1009 22.6031 13.1593 22.3862 14.1272 21.9927V20.142C14.1272 19.9693 14.0406 19.8082 13.8968 19.7127C13.7529 19.6173 13.5708 19.6004 13.4118 19.6676C12.5385 20.0367 11.5786 20.2407 10.5714 20.2407C10.1096 20.2407 9.65795 20.1979 9.22009 20.116C9.06947 20.0878 8.91423 20.128 8.7964 20.2259C8.67858 20.3236 8.61035 20.469 8.61035 20.6221V22.2575Z" fill="#FF5D6B"/>
<path fill-rule="evenodd" clip-rule="evenodd" d="M39.084 12.4092H36.7111C36.4267 12.4092 36.1961 12.6397 36.1961 12.9242V32.3059C36.196 33.0262 35.6335 33.6213 34.9144 33.6617C32.3034 33.8083 27.537 34.076 25.7938 34.1739C25.3726 34.1976 24.9504 34.1976 24.5294 34.1739C22.7862 34.076 18.0198 33.8083 15.4089 33.6617C15.0631 33.6422 14.7536 33.4946 14.5254 33.2665C14.593 34.4942 15.574 35.4879 16.816 35.5576C19.474 35.7069 24.3259 35.9795 26.1004 36.0792C26.5682 36.1054 27.0372 36.1054 27.5052 36.0792C29.2797 35.9795 34.1316 35.7069 36.7896 35.5576C38.0769 35.4854 39.084 34.4202 39.084 33.1307V12.4092Z" fill="#FF5E6B"/>
<path fill-rule="evenodd" clip-rule="evenodd" d="M17.3334 8.3855C17.1387 8.36408 16.9487 8.45488 16.8431 8.62C16.7376 8.78496 16.7348 8.99557 16.836 9.16333C17.5 10.2642 17.8818 11.5533 17.8818 12.9309C17.8818 13.9887 17.6567 14.9942 17.2485 15.9006C17.1229 16.1752 17.0572 16.4766 17.057 16.7814V18.5091C17.057 19.0101 16.6509 19.416 16.1501 19.416C15.5168 19.416 14.8242 19.416 14.4177 19.4199C14.1182 19.4199 13.8175 19.4855 13.5406 19.6119C13.5007 19.6297 13.4566 19.6488 13.4122 19.6676C13.2216 19.7482 13.0977 19.9351 13.0977 20.1421V32.3057C13.0977 33.5725 14.0869 34.6187 15.3517 34.6898C17.9627 34.8364 22.7289 35.104 24.4721 35.2019C24.9317 35.2278 25.3924 35.2278 25.8522 35.2019C27.5954 35.104 32.3616 34.8364 34.9726 34.6898C36.2374 34.6187 37.2266 33.5725 37.2266 32.3057C37.2266 27.7251 37.2266 15.5005 37.2266 10.5842C37.2266 9.9054 36.9376 9.25858 36.432 8.80556C35.9264 8.35271 35.2519 8.13633 34.5771 8.21066C32.2002 8.47268 28.382 8.89356 26.3974 9.11224C25.5764 9.20272 24.7479 9.20272 23.9269 9.11224L17.3334 8.3855Z" fill="#FFD1D5"/>
<path fill-rule="evenodd" clip-rule="evenodd" d="M16.9898 8.4707C16.9321 8.50943 16.882 8.56002 16.8431 8.62067C16.7376 8.78562 16.7348 8.99623 16.836 9.16399C17.5 10.2648 17.8818 11.554 17.8818 12.9315C17.8818 13.9893 17.6567 14.9949 17.2485 15.9013C17.1229 16.1758 17.0572 16.4772 17.057 16.7821V18.5098C17.057 19.0108 16.6509 19.4166 16.1501 19.4166C15.5168 19.4166 14.8242 19.4166 14.4177 19.4206C14.1182 19.4206 13.8175 19.4862 13.5406 19.6126C13.5007 19.6304 13.4566 19.6495 13.4122 19.6683C13.2216 19.7489 13.0977 19.9358 13.0977 20.1427V22.3353C13.5424 22.2195 13.9727 22.0679 14.3852 21.8836C14.3867 21.8831 14.388 21.8825 14.3893 21.8818C14.5319 21.8167 14.6868 21.7829 14.8435 21.7829H14.8484C15.2527 21.779 15.9413 21.779 16.5709 21.779H16.571C17.6405 21.779 18.5077 20.912 18.5077 19.8423V18.1149C18.5078 17.9577 18.5416 17.8023 18.607 17.6593C18.6075 17.6585 18.6079 17.6575 18.6084 17.6566C19.0747 16.6212 19.3325 15.4725 19.3325 14.2639C19.3325 12.0144 18.4399 9.97181 16.9898 8.4707Z" fill="#FFB9BF"/>
<path fill-rule="evenodd" clip-rule="evenodd" d="M24.6465 9.16895V35.2112C24.9898 35.2257 25.3333 35.2257 25.6764 35.2112V9.16895C25.3333 9.18477 24.9898 9.18477 24.6465 9.16895Z" fill="#FFB9BF"/>
<path fill-rule="evenodd" clip-rule="evenodd" d="M34.2769 29.7102C32.375 29.9198 29.3199 30.2565 27.7321 30.4315C27.4496 30.4626 27.2454 30.7174 27.2766 30.9998C27.3077 31.2823 27.5623 31.4865 27.8449 31.4553C29.4327 31.2803 32.4879 30.9435 34.3896 30.7339C34.6722 30.7029 34.8762 30.4481 34.8451 30.1657C34.8139 29.8832 34.5593 29.679 34.2769 29.7102Z" fill="#FFF1F1"/>
<path fill-rule="evenodd" clip-rule="evenodd" d="M15.9342 30.7339C17.8361 30.9435 20.8912 31.2803 22.479 31.4553C22.7614 31.4865 23.0162 31.2823 23.0474 30.9998C23.0785 30.7174 22.8743 30.4626 22.5919 30.4315C21.0039 30.2565 17.9488 29.9198 16.0471 29.7102C15.7646 29.679 15.5098 29.8832 15.4787 30.1657C15.4477 30.4481 15.6517 30.7029 15.9342 30.7339Z" fill="#FFF1F1"/>
<path fill-rule="evenodd" clip-rule="evenodd" d="M34.2769 25.5315C32.375 25.7411 29.3199 26.0779 27.7321 26.2529C27.4496 26.2841 27.2454 26.5387 27.2766 26.8211C27.3077 27.1036 27.5623 27.3078 27.8449 27.2766C29.4327 27.1016 32.4879 26.7649 34.3896 26.5553C34.6722 26.5242 34.8762 26.2694 34.8451 25.9869C34.8139 25.7045 34.5593 25.5003 34.2769 25.5315Z" fill="#FFF1F1"/>
<path fill-rule="evenodd" clip-rule="evenodd" d="M15.9342 26.5553C17.8361 26.7649 20.8912 27.1016 22.479 27.2766C22.7614 27.3078 23.0162 27.1036 23.0474 26.8211C23.0785 26.5387 22.8743 26.2841 22.5919 26.2529C21.0039 26.0779 17.9488 25.7411 16.0471 25.5315C15.7646 25.5003 15.5098 25.7045 15.4787 25.9869C15.4477 26.2694 15.6517 26.5242 15.9342 26.5553Z" fill="#FFF1F1"/>
<path fill-rule="evenodd" clip-rule="evenodd" d="M34.5039 14.124C34.5039 13.6184 34.2871 13.1374 33.9084 12.8025C33.5297 12.4678 33.0254 12.3116 32.5238 12.3737L29.1636 12.7897C28.2802 12.8989 27.6167 13.6496 27.6167 14.5398V19.6968C27.6167 20.2023 27.8336 20.6835 28.2123 21.0182C28.5911 21.353 29.0952 21.5091 29.5969 21.4471L32.957 21.0312C33.8405 20.9218 34.5039 20.1711 34.5039 19.2809C34.5039 17.9218 34.5039 15.6113 34.5039 14.124ZM18.4593 12.4555C18.3133 12.4373 18.1664 12.4827 18.0559 12.5799C17.9453 12.6771 17.8817 12.817 17.881 12.9642C17.8766 14.0101 17.6519 15.0043 17.2479 15.9013C17.1223 16.1759 17.0565 16.4773 17.0564 16.7821V18.5098C17.0564 18.9352 16.7639 19.2923 16.3687 19.3902C16.2128 19.4287 16.0839 19.538 16.02 19.6853C15.9562 19.8326 15.9646 20.0014 16.0431 20.1416C16.3095 20.6175 16.7912 20.96 17.366 21.0312L20.7262 21.4471C21.2278 21.5091 21.7319 21.353 22.1106 21.0182C22.4895 20.6835 22.7063 20.2023 22.7063 19.6968C22.7063 18.2094 22.7063 15.8988 22.7063 14.5398C22.7063 13.6496 22.0429 12.8989 21.1594 12.7897L18.4593 12.4555Z" fill="#FF8791"/>
<path fill-rule="evenodd" clip-rule="evenodd" d="M18.0315 21.1132C18.3278 20.7731 18.5071 20.3285 18.5071 19.842V18.1146C18.5072 17.9574 18.541 17.802 18.6064 17.659C18.6069 17.6581 18.6073 17.6571 18.6077 17.6563C19.0741 16.6209 19.3319 15.4721 19.3319 14.2635C19.3319 13.6729 19.2704 13.0966 19.1534 12.5409L18.4593 12.4551C18.3133 12.437 18.1664 12.4823 18.0559 12.5795C17.9453 12.6767 17.8817 12.8166 17.881 12.9638C17.8766 14.0098 17.6519 15.004 17.2479 15.9009C17.1223 16.1755 17.0565 16.4769 17.0564 16.7818V18.5095C17.0564 18.9348 16.7639 19.2919 16.3687 19.3898C16.2128 19.4283 16.0839 19.5376 16.02 19.6849C15.9562 19.8323 15.9646 20.001 16.0431 20.1412C16.3095 20.6172 16.7912 20.9596 17.366 21.0308L18.0315 21.1132Z" fill="#FF5D6B"/>
<path fill-rule="evenodd" clip-rule="evenodd" d="M18.0864 16.7828C18.0866 16.6255 18.1204 16.4701 18.1858 16.3271C18.1863 16.3261 18.1866 16.3253 18.187 16.3245C18.6535 15.2891 18.9112 14.1403 18.9112 12.9317C18.9112 8.32883 15.1742 4.5918 10.5713 4.5918C5.96831 4.5918 2.23145 8.32883 2.23145 12.9317C2.23145 17.5346 5.96831 21.2716 10.5713 21.2716C11.7793 21.2716 12.9274 21.0142 13.964 20.5514C13.9653 20.5509 13.9668 20.5503 13.9681 20.5496C14.1106 20.4845 14.2655 20.4507 14.4222 20.4507H14.4272C14.8313 20.4468 15.5201 20.4468 16.1496 20.4468C17.2193 20.4468 18.0864 19.5796 18.0864 18.51V16.7828Z" fill="#FF3749"/>
<path fill-rule="evenodd" clip-rule="evenodd" d="M8.58616 10.9455H6.74838C6.46395 10.9455 6.2334 11.1762 6.2334 11.4605V14.4016C6.2334 14.686 6.46395 14.9166 6.74838 14.9166H8.58616V16.7545C8.58616 17.039 8.81671 17.2695 9.10114 17.2695H12.0422C12.3267 17.2695 12.5572 17.039 12.5572 16.7545V14.9166H14.3952C14.6796 14.9166 14.9101 14.686 14.9101 14.4016V11.4605C14.9101 11.1762 14.6796 10.9455 14.3952 10.9455H12.5572V9.10775C12.5572 8.82332 12.3267 8.59277 12.0422 8.59277H9.10114C8.81671 8.59277 8.58616 8.82332 8.58616 9.10775V10.9455Z" fill="#FBEDF4"/>
</svg>
