<svg width="44" height="44" viewBox="0 0 44 44" fill="none" xmlns="http://www.w3.org/2000/svg">
<g clip-path="url(#clip0_483_11091)">
<path d="M3.65452 32.0141C1.66636 32.0141 0.0546875 30.4024 0.0546875 28.4143V10.5781H7.25427L9.50747 20.2388L7.25427 28.4143C7.25436 30.4024 5.6426 32.0141 3.65452 32.0141Z" fill="#C14098"/>
<path d="M7.25445 20.2393L8.97921 25.2358L7.25445 28.4152C7.25445 30.4027 5.6426 32.0146 3.65409 32.0146C1.66653 32.0146 0.0546875 30.4027 0.0546875 28.4152V20.2393C0.0546875 22.2277 1.66653 23.8396 3.65409 23.8396C5.6426 23.8396 7.25445 22.2278 7.25445 20.2393Z" fill="#AA3684"/>
<path d="M36.7462 10.5781L39.5002 19.4312L36.9088 28.8067C36.8022 29.1922 36.5975 29.5434 36.3147 29.8262L32.8849 33.2551L25.3697 40.7713C24.3149 41.8253 22.6058 41.8253 21.5519 40.7713C21.0245 40.2439 20.7617 39.5537 20.7617 38.8625C20.7617 38.1806 21.018 37.4986 21.5325 36.9739L19.6893 38.8171C18.6345 39.871 16.9255 39.871 15.8715 38.8171C15.3451 38.2897 15.0813 37.5995 15.0813 36.9083C15.0813 36.2235 15.3404 35.5398 15.8577 35.0142L14.5447 36.3271C13.4899 37.3811 11.7809 37.3811 10.727 36.3271C10.2005 35.7997 9.93677 35.1086 9.93677 34.4183C9.93677 33.7336 10.1949 33.0498 10.7122 32.5252L9.82298 33.4144C9.29559 33.9408 8.60439 34.2046 7.91414 34.2046C7.22295 34.2046 6.5327 33.9408 6.0053 33.4144C4.95136 32.3596 4.95136 30.6505 6.0053 29.5966L20.7373 14.8646L14.2987 12.3186C15.4128 11.2045 16.9237 10.5781 18.4995 10.5781H36.7462Z" fill="#FFDDCE"/>
<path d="M17.6166 17.9863L19.267 19.3709L7.52347 31.1144C6.99607 31.6418 6.73233 32.332 6.73233 33.0232C6.73233 33.361 6.79523 33.6978 6.92199 34.0161C6.58795 33.8856 6.27523 33.6848 6.00504 33.4146C5.47764 32.8872 5.21484 32.196 5.21484 31.5058C5.21484 30.8146 5.47764 30.1243 6.00504 29.5969L17.6166 17.9863Z" fill="#FFCBBE"/>
<path d="M36.2492 29.441L37.1281 30.3199C38.026 31.2178 38.026 32.6736 37.1281 33.5715C36.2303 34.4694 34.7745 34.4694 33.8765 33.5715L32.9976 32.6927C32.0997 31.7948 32.0997 30.339 32.9976 29.441C33.8955 28.5431 35.3513 28.5431 36.2492 29.441Z" fill="#F1B986"/>
<path d="M31.9289 31.6236L33.8767 33.5714C34.7746 34.4693 34.7746 35.925 33.8767 36.823C32.9788 37.7209 31.523 37.7209 30.6251 36.823L28.6773 34.8752C27.7794 33.9773 27.7794 32.5216 28.6773 31.6236C29.5753 30.7257 31.0311 30.7257 31.9289 31.6236Z" fill="#F1B986"/>
<path d="M29.7463 35.9439L30.6252 36.8228C31.5231 37.7207 31.5231 39.1765 30.6252 40.0744C29.7273 40.9723 28.2715 40.9723 27.3736 40.0744L26.4947 39.1955C25.5968 38.2977 25.5968 36.8419 26.4947 35.9439C27.3927 35.046 28.8484 35.046 29.7463 35.9439Z" fill="#F1B986"/>
<path d="M27.3733 40.0748C28.2711 40.9726 28.2711 42.4284 27.3733 43.3264C26.4754 44.2243 25.0196 44.2243 24.1216 43.3264C23.2238 42.4285 23.2238 40.9727 24.1216 40.0748C25.0196 39.1769 26.4754 39.1769 27.3733 40.0748Z" fill="#F1B986"/>
<path d="M37.5888 32.9129C37.4787 33.1516 37.325 33.3746 37.1289 33.5708C36.6802 34.0205 36.0917 34.2443 35.5032 34.2443C34.9147 34.2443 34.3262 34.0204 33.8774 33.5708L32.9983 32.6917C32.1008 31.7942 32.1008 30.3386 32.9983 29.4403C33.1954 29.2432 33.4194 29.0895 33.6581 28.9785C33.2629 29.8279 33.4166 30.8698 34.1189 31.5721L34.9979 32.4502C35.4467 32.899 36.0352 33.1238 36.6237 33.1238C36.9531 33.1239 37.2834 33.0536 37.5888 32.9129Z" fill="#E2A770"/>
<path d="M34.3369 36.1643C34.2268 36.403 34.0732 36.626 33.8771 36.8222C33.4283 37.2719 32.8398 37.4957 32.2513 37.4957C31.6628 37.4957 31.0743 37.2718 30.6255 36.8222L28.6778 34.8744C27.7793 33.9768 27.7793 32.5205 28.6778 31.6229C28.874 31.4267 29.0969 31.2732 29.3356 31.1631C28.9433 32.0134 29.0969 33.0535 29.7974 33.7549L31.7451 35.7026C32.1939 36.1514 32.7824 36.3762 33.3709 36.3762C33.7012 36.3761 34.0306 36.3058 34.3369 36.1643Z" fill="#E2A770"/>
<path d="M31.0855 39.4157C30.9754 39.6545 30.8218 39.8775 30.6256 40.0736C30.1769 40.5233 29.5884 40.7472 28.9999 40.7472C28.4114 40.7472 27.8229 40.5232 27.3741 40.0736L26.4951 39.1956C25.5967 38.2971 25.5967 36.8417 26.4951 35.9432C26.6922 35.7461 26.9162 35.5925 27.1549 35.4814C26.7597 36.3309 26.9134 37.3728 27.6147 38.075L28.4938 38.9541C28.9426 39.4029 29.5311 39.6277 30.1196 39.6277C30.4498 39.6277 30.7802 39.5564 31.0855 39.4157Z" fill="#E2A770"/>
<path d="M27.835 42.6676C27.724 42.9064 27.5704 43.1303 27.3742 43.3264C26.9254 43.7752 26.3369 43.9992 25.7484 43.9992C25.1599 43.9992 24.5714 43.7752 24.1218 43.3264C23.6731 42.8777 23.4482 42.2892 23.4482 41.7007C23.4482 41.1122 23.6731 40.5237 24.1218 40.074C24.3189 39.877 24.5438 39.7233 24.7825 39.6123C24.641 39.9186 24.5697 40.2489 24.5697 40.5801C24.5697 41.1677 24.7937 41.7562 25.2424 42.2059C25.6912 42.6547 26.2797 42.8795 26.8682 42.8795C27.1984 42.8795 27.5297 42.8082 27.835 42.6676Z" fill="#E2A770"/>
<path d="M28.0435 23.4684C27.3607 24.1503 26.4659 24.4927 25.5711 24.4927C24.6745 24.4927 23.7797 24.1503 23.0978 23.4684L19.5568 19.9273L17.6155 17.986L7.2207 28.3808L7.23084 22.8244L7.25396 10.5781H18.4991C19.5224 10.5781 20.5041 10.9853 21.2277 11.7088L28.0434 18.5236C29.4083 19.8894 29.4083 22.1036 28.0435 23.4684Z" fill="#F1B986"/>
<path d="M27.0659 22.9972C26.1702 22.9972 25.2755 22.6548 24.5926 21.972L18.6508 16.0301C17.9895 15.3689 16.9174 15.3689 16.2561 16.0301L11.142 21.1442C10.1001 22.1861 8.69926 22.7857 7.23084 22.8245L7.2207 28.3809L17.6154 17.9862L23.0974 23.4681C23.7803 24.15 24.675 24.4924 25.5707 24.4924C26.4664 24.4924 27.3611 24.15 28.0431 23.4681C28.304 23.2072 28.515 22.9157 28.6769 22.6048C28.1735 22.8658 27.6202 22.9972 27.0659 22.9972Z" fill="#E2A770"/>
<path d="M15.6468 27.5898L15.8892 27.8454C16.5765 28.57 16.5614 29.7103 15.8553 30.4165L12.2451 34.0269C11.7177 34.5543 11.454 35.2446 11.454 35.9358C11.454 36.2735 11.5169 36.6103 11.6437 36.9286C11.3096 36.7981 10.9969 36.5973 10.7267 36.3271C10.1993 35.7997 9.93652 35.1085 9.93652 34.4183C9.93652 33.7271 10.1993 33.0368 10.7267 32.5094L15.6468 27.5898Z" fill="#FFCBBE"/>
<path d="M20.7913 30.0801L21.0338 30.3357C21.721 31.0603 21.706 32.2005 20.9998 32.9067L17.3897 36.5171C16.8623 37.0445 16.5985 37.7348 16.5985 38.426C16.5985 38.7637 16.6614 39.1005 16.7882 39.4188C16.4542 39.2884 16.1414 39.0875 15.8712 38.8173C15.3439 38.2899 15.0811 37.5988 15.0811 36.9085C15.0811 36.2173 15.3439 35.5271 15.8712 34.9997L20.7913 30.0801Z" fill="#FFCBBE"/>
<path d="M26.472 32.0342L26.7144 32.2898C27.4017 33.0144 27.3866 34.1546 26.6805 34.8608L23.0703 38.4712C22.5429 38.9986 22.2792 39.6889 22.2792 40.3801C22.2792 40.7178 22.3421 41.0546 22.4689 41.3729C22.1348 41.2425 21.8221 41.0416 21.5519 40.7714C21.0245 40.244 20.7617 39.5529 20.7617 38.8626C20.7617 38.1714 21.0245 37.4812 21.5519 36.9538L26.472 32.0342Z" fill="#FFCBBE"/>
<path d="M3.6543 16.751C4.56201 16.751 5.29785 16.0151 5.29785 15.1074C5.29785 14.1997 4.56201 13.4639 3.6543 13.4639C2.74659 13.4639 2.01074 14.1997 2.01074 15.1074C2.01074 16.0151 2.74659 16.751 3.6543 16.751Z" fill="#F9F6F9"/>
<path d="M40.3459 32.014C38.3578 32.014 36.7461 30.4024 36.7461 28.4142V10.5781H43.9457V28.4143C43.9458 30.4024 42.3341 32.014 40.3459 32.014Z" fill="#756E78"/>
<path d="M43.9459 20.2393V28.4152C43.9459 30.4027 42.334 32.0146 40.3455 32.0146C38.3579 32.0146 36.7461 30.4027 36.7461 28.4152V20.2393C36.7461 22.2277 38.3579 23.8396 40.3455 23.8396C42.334 23.8396 43.9459 22.2278 43.9459 20.2393Z" fill="#665E66"/>
<path d="M40.3809 16.751C41.2886 16.751 42.0244 16.0151 42.0244 15.1074C42.0244 14.1997 41.2886 13.4639 40.3809 13.4639C39.4731 13.4639 38.7373 14.1997 38.7373 15.1074C38.7373 16.0151 39.4731 16.751 40.3809 16.751Z" fill="#F9F6F9"/>
<path d="M21.6864 17.2408C20.7877 17.2408 19.9341 16.8262 19.3786 16.1097L14.4953 9.81065C13.5071 8.53593 13.7393 6.70143 15.014 5.71314C16.2889 4.72486 18.1233 4.95715 19.1115 6.23186L21.3037 9.05964L25.5816 1.48485C26.3749 0.0803714 28.1561 -0.415144 29.5607 0.378059C30.9652 1.17126 31.4607 2.95275 30.6675 4.35722L24.2297 15.7566C23.749 16.608 22.874 17.1622 21.8988 17.2332C21.8279 17.2382 21.7569 17.2408 21.6864 17.2408Z" fill="#B3E59F"/>
<path d="M30.5938 1.36043C30.5529 1.33319 30.5101 1.30784 30.4673 1.28352C29.0625 0.490145 27.281 0.985661 26.4876 2.3904L22.21 9.96518L21.3047 9.05983L25.5822 1.48504C26.3756 0.0803094 28.1572 -0.415206 29.5619 0.378169C29.998 0.624466 30.3457 0.965122 30.5938 1.36043Z" fill="#95D6A4"/>
<path d="M23.7797 16.3572C23.2881 16.8644 22.6213 17.1817 21.8989 17.2343C21.8278 17.2392 21.7568 17.2421 21.6866 17.2421C20.7871 17.2421 19.9344 16.8274 19.3784 16.111L14.4954 9.81148C13.5073 8.5372 13.739 6.70312 15.0143 5.71406C15.391 5.42102 15.8184 5.23608 16.2574 5.15332C15.2567 6.17941 15.1398 7.81291 16.0433 8.97823L20.9263 15.2777C21.4822 15.9942 22.336 16.4089 23.2345 16.4089C23.4159 16.4083 23.6026 16.3922 23.7797 16.3572Z" fill="#95D6A4"/>
</g>
<defs>
<clipPath id="clip0_483_11091">
<rect width="44" height="44" fill="white"/>
</clipPath>
</defs>
</svg>
