<svg width="44" height="44" viewBox="0 0 44 44" fill="none" xmlns="http://www.w3.org/2000/svg">
<g clip-path="url(#clip0_483_11056)">
<path d="M32.9852 39.9113L33.697 39.5182C39.5021 36.3128 43.3542 30.452 43.9943 23.8517C44.0644 23.1298 43.4818 22.5117 42.7569 22.539L42.7239 22.5402C41.9847 22.5679 41.3596 23.0784 41.1862 23.7905L40.4748 26.7116C39.7546 29.6688 37.7565 32.1525 35.0221 33.4894C33.8935 34.0412 32.6152 33.0806 32.8312 31.8431L33.3927 28.6268C33.4986 28.0203 33.1015 27.4398 32.4977 27.319C32.0393 27.2272 31.5713 27.426 31.3192 27.8199L27.25 34.1763L27.3187 35.9648L31.2595 39.9056L32.9852 39.9113Z" fill="#FFDDCE"/>
<path d="M32.1715 27.4951L31.61 30.7115C31.4544 31.6029 32.0742 32.3506 32.855 32.4928C32.8031 32.2907 32.7917 32.0714 32.8317 31.8426L33.3932 28.6263C33.4991 28.0198 33.1019 27.4394 32.4982 27.3184C32.3942 27.2976 32.2899 27.2925 32.1876 27.3004C32.1873 27.3648 32.1829 27.4297 32.1715 27.4951Z" fill="#FFCBBE"/>
<path d="M42.7753 22.5384C42.7785 22.598 42.7789 22.6583 42.7729 22.7198C42.1328 29.3202 38.2806 35.1809 32.4755 38.3863L31.7637 38.7794L30.1289 38.7739L31.2597 39.9047L32.9854 39.9105L33.6972 39.5174C39.5023 36.3119 43.3544 30.4512 43.9946 23.8509C44.064 23.135 43.4916 22.5222 42.7753 22.5384Z" fill="#FFCBBE"/>
<path d="M31.0197 43.9109L33.5301 41.4004C33.791 41.1395 33.791 40.7165 33.5301 40.4555L26.8201 33.7455C26.5592 33.4846 26.1361 33.4846 25.8751 33.7455L23.3647 36.2559C23.2951 36.3254 23.2951 36.4383 23.3647 36.5078L30.7677 43.9108C30.8373 43.9805 30.9501 43.9805 31.0197 43.9109Z" fill="#80B4FB"/>
<path d="M33.53 40.4555L26.82 33.7455C26.5591 33.4846 26.1361 33.4846 25.8751 33.7455L25.3467 34.2739L31.3898 40.317C31.6507 40.5779 31.6507 41.001 31.3898 41.262L29.7543 42.8974L30.7677 43.9108C30.8373 43.9804 30.95 43.9804 31.0195 43.9108L33.53 41.4003C33.791 41.1395 33.791 40.7165 33.53 40.4555Z" fill="#61A2F9"/>
<path d="M11.0149 39.9113L10.3031 39.5182C4.49799 36.3128 0.645765 30.452 0.00571882 23.8517C-0.0643185 23.1298 0.518237 22.5117 1.2431 22.539L1.27601 22.5402C2.01523 22.5679 2.64032 23.0784 2.81374 23.7905L3.52511 26.7116C4.24534 29.6688 6.24351 32.1525 8.97788 33.4894C10.1065 34.0412 11.3848 33.0806 11.1687 31.8431L10.6072 28.6268C10.5013 28.0203 10.8985 27.4398 11.5022 27.319C11.9607 27.2272 12.4286 27.426 12.6807 27.8199L16.75 34.1763L16.6813 35.9648L12.7405 39.9056L11.0149 39.9113Z" fill="#FFDDCE"/>
<path d="M0.11463 23.6039L0.147629 23.6052C0.886845 23.6329 1.51194 24.1434 1.68536 24.8555L2.39673 27.7766C3.11695 30.7338 5.11512 33.2175 7.8495 34.5544C8.75233 34.9958 9.75013 34.469 10.0029 33.6072C9.6782 33.6845 9.32122 33.6573 8.978 33.4894C6.24362 32.1526 4.24545 29.6689 3.52523 26.7116L2.81386 23.7905C2.64044 23.0784 2.01535 22.5679 1.27613 22.5402L1.24313 22.539C0.602399 22.5149 0.073639 22.9954 0.0078125 23.6058C0.0431319 23.604 0.0785373 23.6026 0.11463 23.6039Z" fill="#FFCBBE"/>
<path d="M12.6811 27.8189C12.429 27.4251 11.9612 27.2262 11.5026 27.3181C10.9876 27.4212 10.6241 27.8589 10.5938 28.3617C10.9766 28.3606 11.3408 28.553 11.5525 28.884L15.6217 35.2404L15.5531 37.0289L12.6771 39.9049L12.7408 39.9047L16.6816 35.9638L16.7502 34.1754L12.6811 27.8189Z" fill="#FFCBBE"/>
<path d="M12.9805 43.9109L10.4701 41.4004C10.2092 41.1395 10.2092 40.7165 10.4701 40.4555L17.1801 33.7455C17.441 33.4846 17.864 33.4846 18.125 33.7455L20.6355 36.2559C20.7051 36.3254 20.7051 36.4383 20.6355 36.5078L13.2325 43.9108C13.1629 43.9805 13.0501 43.9805 12.9805 43.9109Z" fill="#80B4FB"/>
<path d="M10.9576 41.8879L17.0416 35.8038C17.3025 35.5429 17.7256 35.5429 17.9866 35.8038L19.663 37.4802L20.6355 36.5078C20.705 36.4382 20.705 36.3254 20.6355 36.2559L18.125 33.7455C17.8641 33.4846 17.4411 33.4846 17.1801 33.7455L10.4701 40.4555C10.2092 40.7164 10.2092 41.1394 10.4701 41.4004L10.9576 41.8879Z" fill="#61A2F9"/>
<path d="M29.4177 5.94982L30.3007 6.43931C30.5264 6.56443 30.6664 6.80221 30.6664 7.06027V9.37047C30.6664 9.62854 30.5263 9.86632 30.3007 9.99144L29.4177 10.4809C29.305 10.5434 29.2114 10.6354 29.147 10.7469L27.7657 13.1393C27.7012 13.2509 27.6684 13.3779 27.6706 13.5067L27.6882 14.5161C27.6927 14.7742 27.5568 15.0144 27.3333 15.1434L25.3327 16.2985C25.1092 16.4276 24.8332 16.4252 24.612 16.2922L23.7466 15.7722C23.6362 15.7059 23.5098 15.6708 23.381 15.6708H20.6184C20.4896 15.6708 20.3632 15.7059 20.2528 15.7722L19.3874 16.2922C19.1662 16.4252 18.8903 16.4276 18.6668 16.2985L16.6661 15.1434C16.4426 15.0143 16.3067 14.7742 16.3112 14.5161L16.3288 13.5067C16.331 13.3779 16.2982 13.2509 16.2338 13.1393L14.8524 10.7469C14.788 10.6354 14.6945 10.5434 14.5817 10.4809L13.6987 9.99144C13.473 9.86632 13.333 9.62854 13.333 9.37047V7.06027C13.333 6.80221 13.4731 6.56443 13.6987 6.43931L14.5817 5.94982C14.6944 5.88734 14.788 5.79539 14.8524 5.68385L16.2338 3.29141C16.2982 3.17987 16.331 3.05285 16.3288 2.92404L16.3112 1.91464C16.3067 1.65658 16.4426 1.41639 16.6661 1.2874L18.6668 0.132256C18.8903 0.00318114 19.1662 0.00558732 19.3874 0.138529L20.2528 0.658524C20.3632 0.724866 20.4896 0.759927 20.6184 0.759927H23.381C23.5098 0.759927 23.6362 0.724866 23.7466 0.658524L24.612 0.138529C24.8332 0.00558732 25.1092 0.00318114 25.3327 0.132256L27.3333 1.2874C27.5568 1.41647 27.6927 1.65658 27.6882 1.91464L27.6706 2.92404C27.6684 3.05285 27.7012 3.17987 27.7657 3.29141L29.147 5.68385C29.2114 5.79539 29.305 5.88734 29.4177 5.94982ZM21.9997 4.86377C20.1486 4.86377 18.648 6.36437 18.648 8.21542C18.648 10.0665 20.1486 11.5671 21.9997 11.5671C23.8507 11.5671 25.3513 10.0665 25.3513 8.21542C25.3513 6.36437 23.8507 4.86377 21.9997 4.86377Z" fill="#80B4FB"/>
<path d="M30.3003 6.43939L29.4173 5.9499C29.3047 5.88743 29.2111 5.79548 29.1467 5.68393L27.7654 3.2915C27.7009 3.17995 27.6681 3.05294 27.6703 2.92412L27.6879 1.91473C27.6925 1.65666 27.5566 1.41647 27.333 1.28748L25.3324 0.132256C25.1089 0.00318114 24.8329 0.00558732 24.6117 0.138529L23.875 0.581182L25.0981 1.2874C25.3216 1.41647 25.4575 1.65666 25.453 1.91464L25.4354 2.92404C25.4332 3.05285 25.466 3.17987 25.5305 3.29141L26.9118 5.68385C26.9762 5.79539 27.0697 5.88734 27.1825 5.94982L28.0655 6.43931C28.2912 6.56443 28.4312 6.80221 28.4312 7.06027V9.37047C28.4312 9.62854 28.2911 9.86632 28.0655 9.99144L27.1825 10.4809C27.0698 10.5434 26.9762 10.6354 26.9118 10.7469L25.5305 13.1393C25.466 13.2509 25.4332 13.3779 25.4354 13.5067L25.453 14.5161C25.4575 14.7742 25.3216 15.0144 25.0981 15.1433L23.875 15.8496L24.6117 16.2922C24.8329 16.4252 25.1089 16.4276 25.3324 16.2985L27.333 15.1433C27.5566 15.0143 27.6924 14.7741 27.6879 14.5161L27.6703 13.5067C27.6681 13.3779 27.7009 13.2509 27.7654 13.1393L29.1467 10.7469C29.2112 10.6354 29.3047 10.5434 29.4173 10.4809L30.3003 9.99144C30.526 9.86632 30.6661 9.62854 30.6661 9.37047V7.06036C30.6661 6.8023 30.526 6.56451 30.3003 6.43939Z" fill="#61A2F9"/>
<path d="M39.2237 16.6953L39.8359 17.0346C39.9924 17.1214 40.0895 17.2863 40.0895 17.4652V19.067C40.0895 19.2459 39.9924 19.4108 39.8359 19.4976L39.2237 19.8369C39.1456 19.8802 39.0807 19.944 39.036 20.0213L38.0783 21.6801C38.0336 21.7575 38.0108 21.8456 38.0124 21.9348L38.0246 22.6347C38.0277 22.8136 37.9335 22.9802 37.7785 23.0696L36.3914 23.8705C36.2364 23.96 36.0451 23.9584 35.8917 23.8662L35.2917 23.5057C35.2151 23.4597 35.1274 23.4354 35.0382 23.4354H33.1227C33.0334 23.4354 32.9457 23.4597 32.8691 23.5057L32.2691 23.8662C32.1157 23.9583 31.9245 23.96 31.7694 23.8705L30.3823 23.0696C30.2273 22.9802 30.133 22.8136 30.1362 22.6347L30.1484 21.9348C30.15 21.8456 30.1272 21.7575 30.0825 21.6801L29.1248 20.0213C29.0801 19.944 29.0152 19.8802 28.9371 19.8369L28.3249 19.4976C28.1684 19.4108 28.0713 19.2459 28.0713 19.067V17.4652C28.0713 17.2863 28.1684 17.1214 28.3249 17.0346L28.9371 16.6953C29.0152 16.652 29.0801 16.5882 29.1248 16.5109L30.0825 14.8521C30.1272 14.7747 30.15 14.6866 30.1484 14.5973L30.1362 13.8975C30.1331 13.7186 30.2273 13.552 30.3823 13.4626L31.7694 12.6617C31.9244 12.5722 32.1157 12.5738 32.2691 12.666L32.8691 13.0265C32.9457 13.0725 33.0334 13.0968 33.1227 13.0968H35.0382C35.1274 13.0968 35.2151 13.0725 35.2917 13.0265L35.8917 12.666C36.0451 12.5739 36.2363 12.5722 36.3914 12.6617L37.7785 13.4626C37.9335 13.552 38.0278 13.7186 38.0246 13.8975L38.0124 14.5973C38.0108 14.6866 38.0336 14.7747 38.0783 14.8521L39.036 16.5109C39.0807 16.5882 39.1456 16.652 39.2237 16.6953ZM34.0803 15.9422C32.7969 15.9422 31.7565 16.9827 31.7565 18.2661C31.7565 19.5495 32.7969 20.59 34.0803 20.59C35.3638 20.59 36.4042 19.5495 36.4042 18.2661C36.4042 16.9827 35.3638 15.9422 34.0803 15.9422Z" fill="#80B4FB"/>
<path d="M39.8359 17.0346L39.2237 16.6953C39.1456 16.652 39.0807 16.5882 39.036 16.5109L38.0783 14.8521C38.0336 14.7747 38.0108 14.6866 38.0124 14.5973L38.0246 13.8975C38.0277 13.7186 37.9335 13.552 37.7785 13.4626L36.3914 12.6617C36.2364 12.5722 36.0451 12.5738 35.8917 12.666L35.3809 12.9729L36.229 13.4626C36.3839 13.552 36.4782 13.7186 36.475 13.8975L36.4628 14.5973C36.4612 14.6866 36.484 14.7747 36.5287 14.8521L37.4864 16.5109C37.5311 16.5882 37.596 16.652 37.6741 16.6953L38.2863 17.0346C38.4428 17.1214 38.5399 17.2863 38.5399 17.4652V19.067C38.5399 19.2459 38.4428 19.4108 38.2863 19.4976L37.6741 19.8369C37.596 19.8802 37.5311 19.944 37.4864 20.0213L36.5287 21.6801C36.484 21.7575 36.4612 21.8456 36.4628 21.9348L36.475 22.6347C36.4781 22.8136 36.3839 22.9802 36.229 23.0696L35.3809 23.5593L35.8917 23.8662C36.0451 23.9584 36.2363 23.96 36.3914 23.8705L37.7785 23.0696C37.9335 22.9802 38.0278 22.8136 38.0246 22.6347L38.0124 21.9348C38.0108 21.8456 38.0336 21.7575 38.0783 21.6801L39.036 20.0213C39.0807 19.944 39.1455 19.8802 39.2237 19.8369L39.8359 19.4976C39.9924 19.4108 40.0895 19.2459 40.0895 19.067V17.4652C40.0895 17.2863 39.9924 17.1214 39.8359 17.0346Z" fill="#61A2F9"/>
<path d="M15.0636 16.6952L15.6758 17.0346C15.8323 17.1214 15.9294 17.2862 15.9294 17.4651V19.0669C15.9294 19.2458 15.8323 19.4108 15.6758 19.4975L15.0636 19.8368C14.9854 19.8801 14.9206 19.9439 14.8759 20.0212L13.9181 21.6801C13.8734 21.7574 13.8507 21.8455 13.8522 21.9348L13.8644 22.6346C13.8675 22.8135 13.7733 22.9801 13.6184 23.0695L12.2312 23.8705C12.0763 23.9599 11.8849 23.9583 11.7315 23.8661L11.1315 23.5056C11.0549 23.4596 10.9673 23.4353 10.878 23.4353H8.9625C8.87321 23.4353 8.78556 23.4596 8.70899 23.5056L8.10899 23.8661C7.95559 23.9582 7.7643 23.9599 7.60927 23.8705L6.22211 23.0695C6.06716 22.9801 5.97289 22.8135 5.97607 22.6346L5.98828 21.9348C5.98982 21.8455 5.96705 21.7574 5.92236 21.6801L4.96461 20.0213C4.91993 19.944 4.85505 19.8802 4.77693 19.8369L4.16473 19.4976C4.00824 19.4108 3.91113 19.2459 3.91113 19.067V17.4652C3.91113 17.2863 4.00824 17.1214 4.16473 17.0346L4.77693 16.6953C4.85505 16.652 4.91993 16.5882 4.96461 16.5109L5.92236 14.8521C5.96705 14.7747 5.98982 14.6866 5.98828 14.5973L5.97607 13.8975C5.97298 13.7186 6.06716 13.552 6.22211 13.4626L7.60927 12.6617C7.76421 12.5722 7.95559 12.5738 8.10899 12.666L8.70899 13.0265C8.78556 13.0725 8.87321 13.0968 8.9625 13.0968H10.878C10.9673 13.0968 11.0549 13.0725 11.1315 13.0265L11.7315 12.666C11.8849 12.5739 12.0762 12.5722 12.2312 12.6617L13.6184 13.4626C13.7733 13.552 13.8676 13.7186 13.8644 13.8975L13.8522 14.5973C13.8507 14.6866 13.8734 14.7747 13.9181 14.8521L14.8759 16.5109C14.9206 16.5881 14.9854 16.6519 15.0636 16.6952ZM9.92025 15.9422C8.6368 15.9422 7.59638 16.9826 7.59638 18.266C7.59638 19.5495 8.6368 20.5899 9.92025 20.5899C11.2037 20.5899 12.2441 19.5495 12.2441 18.266C12.2441 16.9826 11.2037 15.9422 9.92025 15.9422Z" fill="#80B4FB"/>
<path d="M15.6758 17.0347L15.0636 16.6954C14.9854 16.6521 14.9206 16.5883 14.8759 16.511L13.9181 14.8521C13.8734 14.7747 13.8507 14.6866 13.8522 14.5973L13.8644 13.8975C13.8675 13.7186 13.7733 13.552 13.6184 13.4626L12.2312 12.6617C12.0763 12.5722 11.8849 12.5738 11.7315 12.666L11.2207 12.9729L12.0688 13.4626C12.2237 13.552 12.318 13.7186 12.3148 13.8975L12.3026 14.5973C12.3011 14.6866 12.3239 14.7747 12.3685 14.8521L13.3263 16.5109C13.371 16.5882 13.4359 16.652 13.514 16.6953L14.1262 17.0346C14.2827 17.1214 14.3798 17.2863 14.3798 17.4652V19.067C14.3798 19.2459 14.2827 19.4108 14.1262 19.4976L13.514 19.8369C13.4359 19.8802 13.371 19.944 13.3263 20.0213L12.3685 21.6801C12.3239 21.7575 12.3011 21.8456 12.3026 21.9349L12.3148 22.6347C12.3179 22.8136 12.2237 22.9802 12.0688 23.0696L11.2207 23.5593L11.7315 23.8662C11.8849 23.9584 12.0762 23.96 12.2312 23.8705L13.6184 23.0696C13.7733 22.9802 13.8676 22.8136 13.8644 22.6347L13.8522 21.9349C13.8507 21.8456 13.8734 21.7575 13.9181 21.6801L14.8759 20.0213C14.9206 19.944 14.9854 19.8802 15.0636 19.8369L15.6758 19.4976C15.8322 19.4108 15.9294 19.2459 15.9294 19.067V17.4652C15.9294 17.2864 15.8322 17.1215 15.6758 17.0347Z" fill="#61A2F9"/>
</g>
<defs>
<clipPath id="clip0_483_11056">
<rect width="44" height="44" fill="white"/>
</clipPath>
</defs>
</svg>
