<svg width="74" height="74" viewBox="0 0 74 74" fill="none" xmlns="http://www.w3.org/2000/svg">
<circle cx="37" cy="37" r="37" fill="#EA1C2D" fill-opacity="0.1"/>
<path fill-rule="evenodd" clip-rule="evenodd" d="M29.1272 35.1423C29.1272 34.9696 29.0406 34.8084 28.8968 34.713C28.7529 34.6176 28.5708 34.6006 28.4118 34.6679C27.5385 35.037 26.5786 35.241 25.5714 35.241C25.1096 35.241 24.6579 35.1982 24.2201 35.1163C24.0695 35.0881 23.9142 35.1283 23.7964 35.2262C23.6786 35.3239 23.6104 35.4693 23.6104 35.6223V51.958C23.6104 53.2802 24.6838 54.3537 26.006 54.3537H54.3174C55.6396 54.3537 56.713 53.2802 56.713 51.958V29.8046C56.713 28.4825 55.6396 27.4092 54.3174 27.4092H51.7112C51.4268 27.4092 51.1962 27.6397 51.1962 27.9242V47.3059C51.196 48.0262 50.6336 48.6213 49.9144 48.6617C47.3034 48.8083 42.5371 49.076 40.7939 49.1739C40.3727 49.1976 39.9505 49.1976 39.5295 49.1739C37.7863 49.076 33.0199 48.8083 30.4089 48.6617C29.6898 48.6213 29.1272 48.0262 29.1272 47.3059V35.1423Z" fill="#FF8791"/>
<path fill-rule="evenodd" clip-rule="evenodd" d="M23.6104 37.2575C24.3649 37.4823 25.1645 37.6031 25.9921 37.6031C27.1009 37.6031 28.1593 37.3862 29.1272 36.9927V35.142C29.1272 34.9693 29.0406 34.8082 28.8968 34.7127C28.7529 34.6173 28.5708 34.6004 28.4118 34.6676C27.5385 35.0367 26.5786 35.2407 25.5714 35.2407C25.1096 35.2407 24.6579 35.1979 24.2201 35.116C24.0695 35.0878 23.9142 35.128 23.7964 35.2259C23.6786 35.3236 23.6104 35.469 23.6104 35.6221V37.2575Z" fill="#FF5D6B"/>
<path fill-rule="evenodd" clip-rule="evenodd" d="M54.084 27.4092H51.7111C51.4267 27.4092 51.1961 27.6397 51.1961 27.9242V47.3059C51.196 48.0262 50.6335 48.6213 49.9144 48.6617C47.3034 48.8083 42.537 49.076 40.7938 49.1739C40.3726 49.1976 39.9504 49.1976 39.5294 49.1739C37.7862 49.076 33.0198 48.8083 30.4089 48.6617C30.0631 48.6422 29.7536 48.4946 29.5254 48.2665C29.593 49.4942 30.574 50.4879 31.816 50.5576C34.474 50.7069 39.3259 50.9795 41.1004 51.0792C41.5682 51.1054 42.0372 51.1054 42.5052 51.0792C44.2797 50.9795 49.1316 50.7069 51.7896 50.5576C53.0769 50.4854 54.084 49.4202 54.084 48.1307V27.4092Z" fill="#FF5E6B"/>
<path fill-rule="evenodd" clip-rule="evenodd" d="M32.3334 23.3855C32.1387 23.3641 31.9487 23.4549 31.8431 23.62C31.7376 23.785 31.7348 23.9956 31.836 24.1633C32.5 25.2642 32.8818 26.5533 32.8818 27.9309C32.8818 28.9887 32.6567 29.9942 32.2485 30.9006C32.1229 31.1752 32.0572 31.4766 32.057 31.7814V33.5091C32.057 34.0101 31.6509 34.416 31.1501 34.416C30.5168 34.416 29.8242 34.416 29.4177 34.4199C29.1182 34.4199 28.8175 34.4855 28.5406 34.6119C28.5007 34.6297 28.4566 34.6488 28.4122 34.6676C28.2216 34.7482 28.0977 34.9351 28.0977 35.1421V47.3057C28.0977 48.5725 29.0869 49.6187 30.3517 49.6898C32.9627 49.8364 37.7289 50.1041 39.4721 50.2019C39.9317 50.2278 40.3924 50.2278 40.8522 50.2019C42.5954 50.1041 47.3616 49.8364 49.9726 49.6898C51.2374 49.6187 52.2266 48.5725 52.2266 47.3057C52.2266 42.7251 52.2266 30.5005 52.2266 25.5842C52.2266 24.9054 51.9376 24.2586 51.432 23.8056C50.9264 23.3527 50.2519 23.1363 49.5771 23.2107C47.2002 23.4727 43.382 23.8936 41.3974 24.1122C40.5764 24.2027 39.7479 24.2027 38.9269 24.1122L32.3334 23.3855V23.3855Z" fill="#FFD1D5"/>
<path fill-rule="evenodd" clip-rule="evenodd" d="M31.9898 23.4707C31.9321 23.5094 31.882 23.56 31.8431 23.6207C31.7376 23.7856 31.7348 23.9962 31.836 24.164C32.5 25.2648 32.8818 26.554 32.8818 27.9315C32.8818 28.9893 32.6567 29.9949 32.2485 30.9013C32.1229 31.1758 32.0572 31.4772 32.057 31.7821V33.5098C32.057 34.0108 31.6509 34.4166 31.1501 34.4166C30.5168 34.4166 29.8242 34.4166 29.4177 34.4206C29.1182 34.4206 28.8175 34.4862 28.5406 34.6126C28.5007 34.6304 28.4566 34.6495 28.4122 34.6683C28.2216 34.7489 28.0977 34.9358 28.0977 35.1427V37.3353C28.5424 37.2195 28.9727 37.0679 29.3852 36.8836C29.3867 36.8831 29.388 36.8825 29.3893 36.8818C29.5319 36.8167 29.6868 36.7829 29.8435 36.7829H29.8484C30.2527 36.779 30.9413 36.779 31.5709 36.779H31.571C32.6405 36.779 33.5077 35.912 33.5077 34.8423V33.1149C33.5078 32.9577 33.5416 32.8023 33.607 32.6593C33.6075 32.6585 33.6079 32.6575 33.6084 32.6566C34.0747 31.6212 34.3325 30.4725 34.3325 29.2639C34.3325 27.0144 33.4399 24.9718 31.9898 23.4707V23.4707Z" fill="#FFB9BF"/>
<path fill-rule="evenodd" clip-rule="evenodd" d="M39.6465 24.1689V50.2112C39.9898 50.2257 40.3333 50.2257 40.6764 50.2112V24.1689C40.3333 24.1848 39.9898 24.1848 39.6465 24.1689Z" fill="#FFB9BF"/>
<path fill-rule="evenodd" clip-rule="evenodd" d="M49.2769 44.7102C47.375 44.9198 44.3199 45.2565 42.7321 45.4315C42.4496 45.4626 42.2454 45.7174 42.2766 45.9998C42.3077 46.2823 42.5623 46.4865 42.8449 46.4553C44.4327 46.2803 47.4879 45.9435 49.3896 45.7339C49.6722 45.7029 49.8762 45.4481 49.8451 45.1657C49.8139 44.8832 49.5593 44.679 49.2769 44.7102Z" fill="#FFF1F1"/>
<path fill-rule="evenodd" clip-rule="evenodd" d="M30.9342 45.7339C32.8361 45.9435 35.8912 46.2803 37.479 46.4553C37.7614 46.4865 38.0162 46.2823 38.0474 45.9998C38.0785 45.7174 37.8743 45.4626 37.5919 45.4315C36.0039 45.2565 32.9488 44.9198 31.0471 44.7102C30.7646 44.679 30.5098 44.8832 30.4787 45.1657C30.4477 45.4481 30.6517 45.7029 30.9342 45.7339V45.7339Z" fill="#FFF1F1"/>
<path fill-rule="evenodd" clip-rule="evenodd" d="M49.2769 40.5315C47.375 40.7411 44.3199 41.0779 42.7321 41.2529C42.4496 41.2841 42.2454 41.5387 42.2766 41.8211C42.3077 42.1036 42.5623 42.3078 42.8449 42.2766C44.4327 42.1016 47.4879 41.7649 49.3896 41.5553C49.6722 41.5242 49.8762 41.2694 49.8451 40.9869C49.8139 40.7045 49.5593 40.5003 49.2769 40.5315Z" fill="#FFF1F1"/>
<path fill-rule="evenodd" clip-rule="evenodd" d="M30.9342 41.5553C32.8361 41.7649 35.8912 42.1016 37.479 42.2766C37.7614 42.3078 38.0162 42.1036 38.0474 41.8211C38.0785 41.5387 37.8743 41.2841 37.5919 41.2529C36.0039 41.0779 32.9488 40.7411 31.0471 40.5315C30.7646 40.5003 30.5098 40.7045 30.4787 40.9869C30.4477 41.2694 30.6517 41.5242 30.9342 41.5553Z" fill="#FFF1F1"/>
<path fill-rule="evenodd" clip-rule="evenodd" d="M49.5039 29.124C49.5039 28.6184 49.2871 28.1374 48.9084 27.8025C48.5297 27.4678 48.0254 27.3116 47.5238 27.3737L44.1636 27.7897C43.2802 27.8989 42.6167 28.6496 42.6167 29.5398V34.6968C42.6167 35.2023 42.8336 35.6835 43.2123 36.0182C43.5911 36.353 44.0952 36.5091 44.5969 36.4471L47.957 36.0312C48.8405 35.9218 49.5039 35.1711 49.5039 34.2809C49.5039 32.9218 49.5039 30.6113 49.5039 29.124ZM33.4593 27.4555C33.3133 27.4373 33.1664 27.4827 33.0559 27.5799C32.9453 27.6771 32.8817 27.817 32.881 27.9642C32.8766 29.0101 32.6519 30.0043 32.2479 30.9013C32.1223 31.1759 32.0565 31.4773 32.0564 31.7821V33.5098C32.0564 33.9352 31.7639 34.2923 31.3687 34.3902C31.2128 34.4287 31.0839 34.538 31.02 34.6853C30.9562 34.8326 30.9646 35.0014 31.0431 35.1416C31.3095 35.6175 31.7912 35.96 32.366 36.0312L35.7262 36.4471C36.2278 36.5091 36.7319 36.353 37.1106 36.0182C37.4895 35.6835 37.7063 35.2023 37.7063 34.6968C37.7063 33.2094 37.7063 30.8988 37.7063 29.5398C37.7063 28.6496 37.0429 27.8989 36.1594 27.7897L33.4593 27.4555Z" fill="#FF8791"/>
<path fill-rule="evenodd" clip-rule="evenodd" d="M33.0315 36.1132C33.3278 35.7731 33.5071 35.3285 33.5071 34.842V33.1146C33.5072 32.9574 33.541 32.802 33.6064 32.659C33.6069 32.6581 33.6073 32.6571 33.6077 32.6563C34.0741 31.6209 34.3319 30.4721 34.3319 29.2635C34.3319 28.6729 34.2704 28.0966 34.1534 27.5409L33.4593 27.4551C33.3133 27.437 33.1664 27.4823 33.0559 27.5795C32.9453 27.6767 32.8817 27.8166 32.881 27.9638C32.8766 29.0098 32.6519 30.004 32.2479 30.9009C32.1223 31.1755 32.0565 31.4769 32.0564 31.7818V33.5095C32.0564 33.9348 31.7639 34.2919 31.3687 34.3898C31.2128 34.4283 31.0839 34.5376 31.02 34.6849C30.9562 34.8323 30.9646 35.001 31.0431 35.1412C31.3095 35.6172 31.7912 35.9596 32.366 36.0308L33.0315 36.1132Z" fill="#FF5D6B"/>
<path fill-rule="evenodd" clip-rule="evenodd" d="M33.0864 31.7828C33.0866 31.6255 33.1204 31.4701 33.1858 31.3271C33.1863 31.3261 33.1866 31.3253 33.187 31.3245C33.6535 30.2891 33.9112 29.1403 33.9112 27.9317C33.9112 23.3288 30.1742 19.5918 25.5713 19.5918C20.9683 19.5918 17.2314 23.3288 17.2314 27.9317C17.2314 32.5346 20.9683 36.2716 25.5713 36.2716C26.7793 36.2716 27.9274 36.0142 28.964 35.5514C28.9653 35.5509 28.9668 35.5503 28.9681 35.5496C29.1106 35.4845 29.2655 35.4507 29.4222 35.4507H29.4272C29.8313 35.4468 30.5201 35.4468 31.1496 35.4468C32.2193 35.4468 33.0864 34.5796 33.0864 33.51V31.7828Z" fill="#FF3749"/>
<path fill-rule="evenodd" clip-rule="evenodd" d="M23.5862 25.9455H21.7484C21.4639 25.9455 21.2334 26.1762 21.2334 26.4605V29.4016C21.2334 29.686 21.4639 29.9166 21.7484 29.9166H23.5862V31.7545C23.5862 32.039 23.8167 32.2695 24.1011 32.2695H27.0422C27.3267 32.2695 27.5572 32.039 27.5572 31.7545V29.9166H29.3952C29.6796 29.9166 29.9101 29.686 29.9101 29.4016V26.4605C29.9101 26.1762 29.6796 25.9455 29.3952 25.9455H27.5572V24.1078C27.5572 23.8233 27.3267 23.5928 27.0422 23.5928H24.1011C23.8167 23.5928 23.5862 23.8233 23.5862 24.1078V25.9455Z" fill="#FBEDF4"/>
</svg>
