<svg width="74" height="74" viewBox="0 0 74 74" fill="none" xmlns="http://www.w3.org/2000/svg">
<circle cx="37" cy="37" r="37" fill="#8F00FF" fill-opacity="0.1"/>
<g clip-path="url(#clip0_483_11054)">
<path d="M47.9852 54.9113L48.697 54.5182C54.5021 51.3128 58.3542 45.452 58.9943 38.8517C59.0644 38.1298 58.4818 37.5117 57.7569 37.539L57.7239 37.5402C56.9847 37.5679 56.3596 38.0784 56.1862 38.7905L55.4748 41.7116C54.7546 44.6688 52.7565 47.1525 50.0221 48.4894C48.8935 49.0412 47.6152 48.0806 47.8312 46.8431L48.3927 43.6268C48.4986 43.0203 48.1015 42.4398 47.4977 42.319C47.0393 42.2272 46.5713 42.426 46.3192 42.8199L42.25 49.1763L42.3187 50.9648L46.2595 54.9056L47.9852 54.9113Z" fill="#FFDDCE"/>
<path d="M47.1715 42.4951L46.61 45.7115C46.4544 46.6029 47.0742 47.3506 47.855 47.4928C47.8031 47.2907 47.7917 47.0714 47.8317 46.8426L48.3932 43.6263C48.4991 43.0198 48.1019 42.4394 47.4982 42.3184C47.3942 42.2976 47.2899 42.2925 47.1876 42.3004C47.1873 42.3648 47.1829 42.4297 47.1715 42.4951V42.4951Z" fill="#FFCBBE"/>
<path d="M57.7753 37.5384C57.7785 37.598 57.7789 37.6583 57.7729 37.7198C57.1328 44.3202 53.2806 50.1809 47.4755 53.3863L46.7637 53.7794L45.1289 53.7739L46.2597 54.9047L47.9854 54.9105L48.6972 54.5174C54.5023 51.3119 58.3544 45.4512 58.9946 38.8509C59.064 38.135 58.4916 37.5222 57.7753 37.5384Z" fill="#FFCBBE"/>
<path d="M46.0197 58.9109L48.5301 56.4004C48.791 56.1395 48.791 55.7165 48.5301 55.4555L41.8201 48.7455C41.5592 48.4846 41.1361 48.4846 40.8751 48.7455L38.3647 51.2559C38.2951 51.3254 38.2951 51.4383 38.3647 51.5078L45.7677 58.9108C45.8373 58.9805 45.9501 58.9805 46.0197 58.9109V58.9109Z" fill="#80B4FB"/>
<path d="M48.53 55.4555L41.82 48.7455C41.5591 48.4846 41.1361 48.4846 40.8751 48.7455L40.3467 49.2739L46.3898 55.317C46.6507 55.5779 46.6507 56.001 46.3898 56.262L44.7543 57.8974L45.7677 58.9108C45.8373 58.9804 45.95 58.9804 46.0195 58.9108L48.53 56.4003C48.791 56.1395 48.791 55.7165 48.53 55.4555V55.4555Z" fill="#61A2F9"/>
<path d="M26.0149 54.9113L25.3031 54.5182C19.498 51.3128 15.6458 45.452 15.0057 38.8517C14.9357 38.1298 15.5182 37.5117 16.2431 37.539L16.276 37.5402C17.0152 37.5679 17.6403 38.0784 17.8137 38.7905L18.5251 41.7116C19.2453 44.6688 21.2435 47.1525 23.9779 48.4894C25.1065 49.0412 26.3848 48.0806 26.1687 46.8431L25.6072 43.6268C25.5013 43.0203 25.8985 42.4398 26.5022 42.319C26.9607 42.2272 27.4286 42.426 27.6807 42.8199L31.75 49.1763L31.6813 50.9648L27.7405 54.9056L26.0149 54.9113Z" fill="#FFDDCE"/>
<path d="M15.1146 38.6039L15.1476 38.6052C15.8868 38.6329 16.5119 39.1434 16.6854 39.8555L17.3967 42.7766C18.117 45.7338 20.1151 48.2175 22.8495 49.5544C23.7523 49.9958 24.7501 49.469 25.0029 48.6072C24.6782 48.6845 24.3212 48.6573 23.978 48.4894C21.2436 47.1526 19.2455 44.6689 18.5252 41.7116L17.8139 38.7905C17.6404 38.0784 17.0153 37.5679 16.2761 37.5402L16.2431 37.539C15.6024 37.5149 15.0736 37.9954 15.0078 38.6058C15.0431 38.604 15.0785 38.6026 15.1146 38.6039V38.6039Z" fill="#FFCBBE"/>
<path d="M27.6811 42.8189C27.429 42.4251 26.9612 42.2262 26.5026 42.3181C25.9876 42.4212 25.6241 42.8589 25.5938 43.3617C25.9766 43.3606 26.3408 43.553 26.5525 43.884L30.6217 50.2404L30.5531 52.0289L27.6771 54.9049L27.7408 54.9047L31.6816 50.9638L31.7502 49.1754L27.6811 42.8189Z" fill="#FFCBBE"/>
<path d="M27.9805 58.9109L25.4701 56.4004C25.2092 56.1395 25.2092 55.7165 25.4701 55.4555L32.1801 48.7455C32.441 48.4846 32.864 48.4846 33.125 48.7455L35.6355 51.2559C35.7051 51.3254 35.7051 51.4383 35.6355 51.5078L28.2325 58.9108C28.1629 58.9805 28.0501 58.9805 27.9805 58.9109V58.9109Z" fill="#80B4FB"/>
<path d="M25.9576 56.8879L32.0416 50.8038C32.3025 50.5429 32.7256 50.5429 32.9866 50.8038L34.663 52.4802L35.6355 51.5078C35.705 51.4382 35.705 51.3254 35.6355 51.2559L33.125 48.7455C32.8641 48.4846 32.4411 48.4846 32.1801 48.7455L25.4701 55.4555C25.2092 55.7164 25.2092 56.1394 25.4701 56.4004L25.9576 56.8879Z" fill="#61A2F9"/>
<path d="M44.4177 20.9498L45.3007 21.4393C45.5264 21.5644 45.6664 21.8022 45.6664 22.0603V24.3705C45.6664 24.6285 45.5263 24.8663 45.3007 24.9914L44.4177 25.4809C44.305 25.5434 44.2114 25.6354 44.147 25.7469L42.7657 28.1393C42.7012 28.2509 42.6684 28.3779 42.6706 28.5067L42.6882 29.5161C42.6927 29.7742 42.5568 30.0144 42.3333 30.1434L40.3327 31.2985C40.1092 31.4276 39.8332 31.4252 39.612 31.2922L38.7466 30.7722C38.6362 30.7059 38.5098 30.6708 38.381 30.6708H35.6184C35.4896 30.6708 35.3632 30.7059 35.2528 30.7722L34.3874 31.2922C34.1662 31.4252 33.8903 31.4276 33.6668 31.2985L31.6661 30.1434C31.4426 30.0143 31.3067 29.7742 31.3112 29.5161L31.3288 28.5067C31.331 28.3779 31.2982 28.2509 31.2338 28.1393L29.8524 25.7469C29.788 25.6354 29.6945 25.5434 29.5817 25.4809L28.6987 24.9914C28.473 24.8663 28.333 24.6285 28.333 24.3705V22.0603C28.333 21.8022 28.4731 21.5644 28.6987 21.4393L29.5817 20.9498C29.6944 20.8873 29.788 20.7954 29.8524 20.6838L31.2338 18.2914C31.2982 18.1799 31.331 18.0529 31.3288 17.924L31.3112 16.9146C31.3067 16.6566 31.4426 16.4164 31.6661 16.2874L33.6668 15.1323C33.8903 15.0032 34.1662 15.0056 34.3874 15.1385L35.2528 15.6585C35.3632 15.7249 35.4896 15.7599 35.6184 15.7599H38.381C38.5098 15.7599 38.6362 15.7249 38.7466 15.6585L39.612 15.1385C39.8332 15.0056 40.1092 15.0032 40.3327 15.1323L42.3333 16.2874C42.5568 16.4165 42.6927 16.6566 42.6882 16.9146L42.6706 17.924C42.6684 18.0529 42.7012 18.1799 42.7657 18.2914L44.147 20.6838C44.2114 20.7954 44.305 20.8873 44.4177 20.9498ZM36.9997 19.8638C35.1486 19.8638 33.648 21.3644 33.648 23.2154C33.648 25.0665 35.1486 26.5671 36.9997 26.5671C38.8507 26.5671 40.3513 25.0665 40.3513 23.2154C40.3513 21.3644 38.8507 19.8638 36.9997 19.8638V19.8638Z" fill="#80B4FB"/>
<path d="M45.3003 21.4394L44.4173 20.9499C44.3047 20.8874 44.2111 20.7955 44.1467 20.6839L42.7654 18.2915C42.7009 18.18 42.6681 18.0529 42.6703 17.9241L42.6879 16.9147C42.6925 16.6567 42.5566 16.4165 42.333 16.2875L40.3324 15.1323C40.1089 15.0032 39.8329 15.0056 39.6117 15.1385L38.875 15.5812L40.0981 16.2874C40.3216 16.4165 40.4575 16.6567 40.453 16.9146L40.4354 17.924C40.4332 18.0529 40.466 18.1799 40.5305 18.2914L41.9118 20.6838C41.9762 20.7954 42.0697 20.8873 42.1825 20.9498L43.0655 21.4393C43.2912 21.5644 43.4312 21.8022 43.4312 22.0603V24.3705C43.4312 24.6285 43.2911 24.8663 43.0655 24.9914L42.1825 25.4809C42.0698 25.5434 41.9762 25.6354 41.9118 25.7469L40.5305 28.1393C40.466 28.2509 40.4332 28.3779 40.4354 28.5067L40.453 29.5161C40.4575 29.7742 40.3216 30.0144 40.0981 30.1433L38.875 30.8496L39.6117 31.2922C39.8329 31.4252 40.1089 31.4276 40.3324 31.2985L42.333 30.1433C42.5566 30.0143 42.6924 29.7741 42.6879 29.5161L42.6703 28.5067C42.6681 28.3779 42.7009 28.2509 42.7654 28.1393L44.1467 25.7469C44.2112 25.6354 44.3047 25.5434 44.4173 25.4809L45.3003 24.9914C45.526 24.8663 45.6661 24.6285 45.6661 24.3705V22.0604C45.6661 21.8023 45.526 21.5645 45.3003 21.4394V21.4394Z" fill="#61A2F9"/>
<path d="M54.2237 31.6953L54.8359 32.0346C54.9924 32.1214 55.0895 32.2863 55.0895 32.4652V34.067C55.0895 34.2459 54.9924 34.4108 54.8359 34.4976L54.2237 34.8369C54.1456 34.8802 54.0807 34.944 54.036 35.0213L53.0783 36.6801C53.0336 36.7575 53.0108 36.8456 53.0124 36.9348L53.0246 37.6347C53.0277 37.8136 52.9335 37.9802 52.7785 38.0696L51.3914 38.8705C51.2364 38.96 51.0451 38.9584 50.8917 38.8662L50.2917 38.5057C50.2151 38.4597 50.1274 38.4354 50.0382 38.4354H48.1227C48.0334 38.4354 47.9457 38.4597 47.8691 38.5057L47.2691 38.8662C47.1157 38.9583 46.9245 38.96 46.7694 38.8705L45.3823 38.0696C45.2273 37.9802 45.133 37.8136 45.1362 37.6347L45.1484 36.9348C45.15 36.8456 45.1272 36.7575 45.0825 36.6801L44.1248 35.0213C44.0801 34.944 44.0152 34.8802 43.9371 34.8369L43.3249 34.4976C43.1684 34.4108 43.0713 34.2459 43.0713 34.067V32.4652C43.0713 32.2863 43.1684 32.1214 43.3249 32.0346L43.9371 31.6953C44.0152 31.652 44.0801 31.5882 44.1248 31.5109L45.0825 29.8521C45.1272 29.7747 45.15 29.6866 45.1484 29.5973L45.1362 28.8975C45.1331 28.7186 45.2273 28.552 45.3823 28.4626L46.7694 27.6617C46.9244 27.5722 47.1157 27.5738 47.2691 27.666L47.8691 28.0265C47.9457 28.0725 48.0334 28.0968 48.1227 28.0968H50.0382C50.1274 28.0968 50.2151 28.0725 50.2917 28.0265L50.8917 27.666C51.0451 27.5739 51.2363 27.5722 51.3914 27.6617L52.7785 28.4626C52.9335 28.552 53.0278 28.7186 53.0246 28.8975L53.0124 29.5973C53.0108 29.6866 53.0336 29.7747 53.0783 29.8521L54.036 31.5109C54.0807 31.5882 54.1456 31.652 54.2237 31.6953V31.6953ZM49.0803 30.9422C47.7969 30.9422 46.7565 31.9827 46.7565 33.2661C46.7565 34.5495 47.7969 35.59 49.0803 35.59C50.3638 35.59 51.4042 34.5495 51.4042 33.2661C51.4042 31.9827 50.3638 30.9422 49.0803 30.9422Z" fill="#80B4FB"/>
<path d="M54.8359 32.0346L54.2237 31.6953C54.1456 31.652 54.0807 31.5882 54.036 31.5109L53.0783 29.8521C53.0336 29.7747 53.0108 29.6866 53.0124 29.5973L53.0246 28.8975C53.0277 28.7186 52.9335 28.552 52.7785 28.4626L51.3914 27.6617C51.2364 27.5722 51.0451 27.5738 50.8917 27.666L50.3809 27.9729L51.229 28.4626C51.3839 28.552 51.4782 28.7186 51.475 28.8975L51.4628 29.5973C51.4612 29.6866 51.484 29.7747 51.5287 29.8521L52.4864 31.5109C52.5311 31.5882 52.596 31.652 52.6741 31.6953L53.2863 32.0346C53.4428 32.1214 53.5399 32.2863 53.5399 32.4652V34.067C53.5399 34.2459 53.4428 34.4108 53.2863 34.4976L52.6741 34.8369C52.596 34.8802 52.5311 34.944 52.4864 35.0213L51.5287 36.6801C51.484 36.7575 51.4612 36.8456 51.4628 36.9348L51.475 37.6347C51.4781 37.8136 51.3839 37.9802 51.229 38.0696L50.3809 38.5593L50.8917 38.8662C51.0451 38.9584 51.2363 38.96 51.3914 38.8705L52.7785 38.0696C52.9335 37.9802 53.0278 37.8136 53.0246 37.6347L53.0124 36.9348C53.0108 36.8456 53.0336 36.7575 53.0783 36.6801L54.036 35.0213C54.0807 34.944 54.1455 34.8802 54.2237 34.8369L54.8359 34.4976C54.9924 34.4108 55.0895 34.2459 55.0895 34.067V32.4652C55.0895 32.2863 54.9924 32.1214 54.8359 32.0346V32.0346Z" fill="#61A2F9"/>
<path d="M30.0636 31.6952L30.6758 32.0346C30.8323 32.1214 30.9294 32.2862 30.9294 32.4651V34.0669C30.9294 34.2458 30.8323 34.4108 30.6758 34.4975L30.0636 34.8368C29.9854 34.8801 29.9206 34.9439 29.8759 35.0212L28.9181 36.6801C28.8734 36.7574 28.8507 36.8455 28.8522 36.9348L28.8644 37.6346C28.8675 37.8135 28.7733 37.9801 28.6184 38.0695L27.2312 38.8705C27.0763 38.9599 26.8849 38.9583 26.7315 38.8661L26.1315 38.5056C26.0549 38.4596 25.9673 38.4353 25.878 38.4353H23.9625C23.8732 38.4353 23.7856 38.4596 23.709 38.5056L23.109 38.8661C22.9556 38.9582 22.7643 38.9599 22.6093 38.8705L21.2221 38.0695C21.0672 37.9801 20.9729 37.8135 20.9761 37.6346L20.9883 36.9348C20.9898 36.8455 20.967 36.7574 20.9224 36.6801L19.9646 35.0213C19.9199 34.944 19.855 34.8802 19.7769 34.8369L19.1647 34.4976C19.0082 34.4108 18.9111 34.2459 18.9111 34.067V32.4652C18.9111 32.2863 19.0082 32.1214 19.1647 32.0346L19.7769 31.6953C19.855 31.652 19.9199 31.5882 19.9646 31.5109L20.9224 29.8521C20.967 29.7747 20.9898 29.6866 20.9883 29.5973L20.9761 28.8975C20.973 28.7186 21.0672 28.552 21.2221 28.4626L22.6093 27.6617C22.7642 27.5722 22.9556 27.5738 23.109 27.666L23.709 28.0265C23.7856 28.0725 23.8732 28.0968 23.9625 28.0968H25.878C25.9673 28.0968 26.0549 28.0725 26.1315 28.0265L26.7315 27.666C26.8849 27.5739 27.0762 27.5722 27.2312 27.6617L28.6184 28.4626C28.7733 28.552 28.8676 28.7186 28.8644 28.8975L28.8522 29.5973C28.8507 29.6866 28.8734 29.7747 28.9181 29.8521L29.8759 31.5109C29.9206 31.5881 29.9854 31.6519 30.0636 31.6952V31.6952ZM24.9202 30.9422C23.6368 30.9422 22.5964 31.9826 22.5964 33.266C22.5964 34.5495 23.6368 35.5899 24.9202 35.5899C26.2037 35.5899 27.2441 34.5495 27.2441 33.266C27.2441 31.9826 26.2037 30.9422 24.9202 30.9422Z" fill="#80B4FB"/>
<path d="M30.6758 32.0347L30.0636 31.6954C29.9854 31.6521 29.9206 31.5883 29.8759 31.511L28.9181 29.8521C28.8734 29.7747 28.8507 29.6866 28.8522 29.5973L28.8644 28.8975C28.8675 28.7186 28.7733 28.552 28.6184 28.4626L27.2312 27.6617C27.0763 27.5722 26.8849 27.5738 26.7315 27.666L26.2207 27.9729L27.0688 28.4626C27.2237 28.552 27.318 28.7186 27.3148 28.8975L27.3026 29.5973C27.3011 29.6866 27.3239 29.7747 27.3685 29.8521L28.3263 31.5109C28.371 31.5882 28.4359 31.652 28.514 31.6953L29.1262 32.0346C29.2827 32.1214 29.3798 32.2863 29.3798 32.4652V34.067C29.3798 34.2459 29.2827 34.4108 29.1262 34.4976L28.514 34.8369C28.4359 34.8802 28.371 34.944 28.3263 35.0213L27.3685 36.6801C27.3239 36.7575 27.3011 36.8456 27.3026 36.9349L27.3148 37.6347C27.3179 37.8136 27.2237 37.9802 27.0688 38.0696L26.2207 38.5593L26.7315 38.8662C26.8849 38.9584 27.0762 38.96 27.2312 38.8705L28.6184 38.0696C28.7733 37.9802 28.8676 37.8136 28.8644 37.6347L28.8522 36.9349C28.8507 36.8456 28.8734 36.7575 28.9181 36.6801L29.8759 35.0213C29.9206 34.944 29.9854 34.8802 30.0636 34.8369L30.6758 34.4976C30.8322 34.4108 30.9294 34.2459 30.9294 34.067V32.4652C30.9294 32.2864 30.8322 32.1215 30.6758 32.0347V32.0347Z" fill="#61A2F9"/>
</g>
<defs>
<clipPath id="clip0_483_11054">
<rect width="44" height="44" fill="white" transform="translate(15 15)"/>
</clipPath>
</defs>
</svg>
