<svg width="74" height="74" viewBox="0 0 74 74" fill="none" xmlns="http://www.w3.org/2000/svg">
<circle cx="37" cy="37" r="37" fill="#FF03C8" fill-opacity="0.1"/>
<g clip-path="url(#clip0_483_11089)">
<path d="M18.6545 47.0141C16.6664 47.0141 15.0547 45.4024 15.0547 43.4143V25.5781H22.2543L24.5075 35.2388L22.2543 43.4143C22.2544 45.4024 20.6426 47.0141 18.6545 47.0141V47.0141Z" fill="#C14098"/>
<path d="M22.2544 35.2393L23.9792 40.2358L22.2544 43.4152C22.2544 45.4027 20.6426 47.0146 18.6541 47.0146C16.6665 47.0146 15.0547 45.4027 15.0547 43.4152V35.2393C15.0547 37.2277 16.6665 38.8396 18.6541 38.8396C20.6426 38.8396 22.2544 37.2278 22.2544 35.2393V35.2393Z" fill="#AA3684"/>
<path d="M51.7462 25.5781L54.5002 34.4312L51.9088 43.8067C51.8022 44.1922 51.5975 44.5434 51.3147 44.8262L47.8849 48.2551L40.3697 55.7713C39.3149 56.8253 37.6058 56.8253 36.5519 55.7713C36.0245 55.2439 35.7617 54.5537 35.7617 53.8625C35.7617 53.1806 36.018 52.4986 36.5325 51.9739L34.6893 53.8171C33.6345 54.871 31.9255 54.871 30.8715 53.8171C30.3451 53.2897 30.0813 52.5995 30.0813 51.9083C30.0813 51.2235 30.3404 50.5398 30.8577 50.0142L29.5447 51.3271C28.4899 52.3811 26.7809 52.3811 25.727 51.3271C25.2005 50.7997 24.9368 50.1086 24.9368 49.4183C24.9368 48.7336 25.1949 48.0498 25.7122 47.5252L24.823 48.4144C24.2956 48.9408 23.6044 49.2046 22.9141 49.2046C22.2229 49.2046 21.5327 48.9408 21.0053 48.4144C19.9514 47.3596 19.9514 45.6505 21.0053 44.5966L35.7373 29.8646L29.2987 27.3186C30.4128 26.2045 31.9237 25.5781 33.4995 25.5781H51.7462Z" fill="#FFDDCE"/>
<path d="M32.6166 32.9863L34.267 34.3709L22.5235 46.1144C21.9961 46.6418 21.7323 47.332 21.7323 48.0232C21.7323 48.361 21.7952 48.6978 21.922 49.0161C21.588 48.8856 21.2752 48.6848 21.005 48.4146C20.4776 47.8872 20.2148 47.196 20.2148 46.5058C20.2148 45.8146 20.4776 45.1243 21.005 44.5969L32.6166 32.9863Z" fill="#FFCBBE"/>
<path d="M51.2492 44.441L52.1281 45.3199C53.026 46.2178 53.026 47.6736 52.1281 48.5715C51.2303 49.4694 49.7745 49.4694 48.8765 48.5715L47.9976 47.6927C47.0998 46.7948 47.0998 45.339 47.9976 44.441C48.8955 43.5431 50.3513 43.5431 51.2492 44.441Z" fill="#F1B986"/>
<path d="M46.9289 46.6236L48.8767 48.5714C49.7746 49.4693 49.7746 50.925 48.8767 51.823C47.9788 52.7209 46.523 52.7209 45.6251 51.823L43.6773 49.8752C42.7794 48.9773 42.7794 47.5216 43.6773 46.6236C44.5753 45.7257 46.0311 45.7257 46.9289 46.6236Z" fill="#F1B986"/>
<path d="M44.7463 50.9439L45.6252 51.8228C46.5231 52.7207 46.5231 54.1765 45.6252 55.0744C44.7273 55.9723 43.2715 55.9723 42.3736 55.0744L41.4947 54.1955C40.5968 53.2977 40.5968 51.8419 41.4947 50.9439C42.3927 50.046 43.8484 50.046 44.7463 50.9439Z" fill="#F1B986"/>
<path d="M42.3733 55.0748C43.2711 55.9726 43.2711 57.4284 42.3733 58.3264C41.4754 59.2243 40.0196 59.2243 39.1216 58.3264C38.2238 57.4285 38.2238 55.9727 39.1216 55.0748C40.0196 54.1769 41.4754 54.1769 42.3733 55.0748Z" fill="#F1B986"/>
<path d="M52.5888 47.9129C52.4787 48.1516 52.325 48.3746 52.1289 48.5708C51.6802 49.0205 51.0917 49.2443 50.5032 49.2443C49.9147 49.2443 49.3262 49.0204 48.8774 48.5708L47.9983 47.6917C47.1008 46.7942 47.1008 45.3386 47.9983 44.4403C48.1954 44.2432 48.4194 44.0895 48.6581 43.9785C48.2629 44.8279 48.4166 45.8698 49.1189 46.5721L49.9979 47.4502C50.4467 47.899 51.0352 48.1238 51.6237 48.1238C51.9531 48.1239 52.2834 48.0536 52.5888 47.9129V47.9129Z" fill="#E2A770"/>
<path d="M49.3369 51.1643C49.2268 51.403 49.0732 51.626 48.8771 51.8222C48.4283 52.2719 47.8398 52.4957 47.2513 52.4957C46.6628 52.4957 46.0743 52.2718 45.6255 51.8222L43.6778 49.8744C42.7793 48.9768 42.7793 47.5205 43.6778 46.6229C43.874 46.4267 44.0969 46.2732 44.3356 46.1631C43.9433 47.0134 44.0969 48.0535 44.7974 48.7549L46.7451 50.7026C47.1939 51.1514 47.7824 51.3762 48.3709 51.3762C48.7012 51.3761 49.0306 51.3058 49.3369 51.1643V51.1643Z" fill="#E2A770"/>
<path d="M46.0855 54.4157C45.9754 54.6545 45.8218 54.8775 45.6256 55.0736C45.1769 55.5233 44.5884 55.7472 43.9999 55.7472C43.4114 55.7472 42.8229 55.5232 42.3741 55.0736L41.4951 54.1956C40.5967 53.2971 40.5967 51.8417 41.4951 50.9432C41.6922 50.7461 41.9162 50.5925 42.1549 50.4814C41.7597 51.3309 41.9134 52.3728 42.6147 53.075L43.4938 53.9541C43.9426 54.4029 44.5311 54.6277 45.1196 54.6277C45.4498 54.6277 45.7802 54.5564 46.0855 54.4157Z" fill="#E2A770"/>
<path d="M42.835 57.6676C42.724 57.9064 42.5704 58.1303 42.3742 58.3264C41.9254 58.7752 41.3369 58.9992 40.7484 58.9992C40.1599 58.9992 39.5714 58.7752 39.1218 58.3264C38.6731 57.8777 38.4482 57.2892 38.4482 56.7007C38.4482 56.1122 38.6731 55.5237 39.1218 55.074C39.3189 54.877 39.5438 54.7233 39.7825 54.6123C39.641 54.9186 39.5697 55.2489 39.5697 55.5801C39.5697 56.1677 39.7937 56.7562 40.2424 57.2059C40.6912 57.6547 41.2797 57.8795 41.8682 57.8795C42.1984 57.8795 42.5297 57.8082 42.835 57.6676V57.6676Z" fill="#E2A770"/>
<path d="M43.0435 38.4684C42.3607 39.1503 41.4659 39.4927 40.5711 39.4927C39.6745 39.4927 38.7797 39.1503 38.0978 38.4684L34.5568 34.9273L32.6155 32.986L22.2207 43.3808L22.2308 37.8244L22.254 25.5781H33.4991C34.5224 25.5781 35.5041 25.9853 36.2277 26.7088L43.0434 33.5236C44.4083 34.8894 44.4083 37.1036 43.0435 38.4684Z" fill="#F1B986"/>
<path d="M42.0659 37.9972C41.1702 37.9972 40.2755 37.6548 39.5926 36.972L33.6508 31.0301C32.9895 30.3689 31.9174 30.3689 31.2561 31.0301L26.142 36.1442C25.1001 37.1861 23.6993 37.7857 22.2308 37.8245L22.2207 43.3809L32.6154 32.9862L38.0974 38.4681C38.7803 39.15 39.675 39.4924 40.5707 39.4924C41.4664 39.4924 42.3611 39.15 43.0431 38.4681C43.304 38.2072 43.515 37.9157 43.6769 37.6048C43.1735 37.8658 42.6202 37.9972 42.0659 37.9972V37.9972Z" fill="#E2A770"/>
<path d="M30.6468 42.5898L30.8892 42.8454C31.5765 43.57 31.5614 44.7103 30.8553 45.4165L27.2451 49.0269C26.7177 49.5543 26.454 50.2446 26.454 50.9358C26.454 51.2735 26.5169 51.6103 26.6437 51.9286C26.3096 51.7981 25.9969 51.5973 25.7267 51.3271C25.1993 50.7997 24.9365 50.1085 24.9365 49.4183C24.9365 48.7271 25.1993 48.0368 25.7267 47.5094L30.6468 42.5898Z" fill="#FFCBBE"/>
<path d="M35.7913 45.0801L36.0338 45.3357C36.721 46.0603 36.706 47.2005 35.9998 47.9067L32.3897 51.5171C31.8623 52.0445 31.5985 52.7348 31.5985 53.426C31.5985 53.7637 31.6614 54.1005 31.7882 54.4188C31.4542 54.2884 31.1414 54.0875 30.8712 53.8173C30.3439 53.2899 30.0811 52.5988 30.0811 51.9085C30.0811 51.2173 30.3439 50.5271 30.8712 49.9997L35.7913 45.0801Z" fill="#FFCBBE"/>
<path d="M41.472 47.0342L41.7144 47.2898C42.4017 48.0144 42.3866 49.1546 41.6805 49.8608L38.0703 53.4712C37.5429 53.9986 37.2792 54.6889 37.2792 55.3801C37.2792 55.7178 37.3421 56.0546 37.4689 56.3729C37.1348 56.2425 36.8221 56.0416 36.5519 55.7714C36.0245 55.244 35.7617 54.5529 35.7617 53.8626C35.7617 53.1714 36.0245 52.4812 36.5519 51.9538L41.472 47.0342Z" fill="#FFCBBE"/>
<path d="M18.6543 31.751C19.562 31.751 20.2979 31.0151 20.2979 30.1074C20.2979 29.1997 19.562 28.4639 18.6543 28.4639C17.7466 28.4639 17.0107 29.1997 17.0107 30.1074C17.0107 31.0151 17.7466 31.751 18.6543 31.751Z" fill="#F9F6F9"/>
<path d="M55.3459 47.014C53.3578 47.014 51.7461 45.4024 51.7461 43.4142V25.5781H58.9457V43.4143C58.9458 45.4024 57.3341 47.014 55.3459 47.014V47.014Z" fill="#756E78"/>
<path d="M58.9459 35.2393V43.4152C58.9459 45.4027 57.334 47.0146 55.3455 47.0146C53.3579 47.0146 51.7461 45.4027 51.7461 43.4152V35.2393C51.7461 37.2277 53.3579 38.8396 55.3455 38.8396C57.334 38.8396 58.9459 37.2278 58.9459 35.2393V35.2393Z" fill="#665E66"/>
<path d="M55.3809 31.751C56.2886 31.751 57.0244 31.0151 57.0244 30.1074C57.0244 29.1997 56.2886 28.4639 55.3809 28.4639C54.4731 28.4639 53.7373 29.1997 53.7373 30.1074C53.7373 31.0151 54.4731 31.751 55.3809 31.751Z" fill="#F9F6F9"/>
<path d="M36.6864 32.2408C35.7877 32.2408 34.9341 31.8262 34.3786 31.1097L29.4953 24.8106C28.5071 23.5359 28.7393 21.7014 30.014 20.7131C31.2889 19.7249 33.1233 19.9572 34.1115 21.2319L36.3037 24.0596L40.5816 16.4848C41.3749 15.0804 43.1561 14.5849 44.5607 15.3781C45.9652 16.1713 46.4607 17.9527 45.6675 19.3572L39.2297 30.7566C38.749 31.608 37.874 32.1622 36.8988 32.2332C36.8279 32.2382 36.7569 32.2408 36.6864 32.2408V32.2408Z" fill="#B3E59F"/>
<path d="M45.5938 16.3604C45.5529 16.3332 45.5101 16.3078 45.4673 16.2835C44.0625 15.4901 42.281 15.9857 41.4876 17.3904L37.21 24.9652L36.3047 24.0598L40.5822 16.485C41.3756 15.0803 43.1572 14.5848 44.5619 15.3782C44.998 15.6245 45.3457 15.9651 45.5938 16.3604V16.3604Z" fill="#95D6A4"/>
<path d="M38.7797 31.3572C38.2881 31.8644 37.6213 32.1817 36.8989 32.2343C36.8278 32.2392 36.7568 32.2421 36.6866 32.2421C35.7871 32.2421 34.9344 31.8274 34.3784 31.111L29.4954 24.8115C28.5073 23.5372 28.739 21.7031 30.0143 20.7141C30.391 20.421 30.8184 20.2361 31.2574 20.1533C30.2567 21.1794 30.1398 22.8129 31.0433 23.9782L35.9263 30.2777C36.4822 30.9942 37.336 31.4089 38.2345 31.4089C38.4159 31.4083 38.6026 31.3922 38.7797 31.3572Z" fill="#95D6A4"/>
</g>
<defs>
<clipPath id="clip0_483_11089">
<rect width="44" height="44" fill="white" transform="translate(15 15)"/>
</clipPath>
</defs>
</svg>
