<svg width="32" height="33" viewBox="0 0 32 33" fill="none" xmlns="http://www.w3.org/2000/svg">
<g clip-path="url(#clip0_483_10223)">
<path d="M16.0041 10.7606C12.9755 10.7606 10.5327 13.1653 10.5327 16.1466C10.5327 19.1278 12.9755 21.5325 16.0041 21.5325C19.0327 21.5325 21.4755 19.1278 21.4755 16.1466C21.4755 13.1653 19.0327 10.7606 16.0041 10.7606ZM16.0041 19.6481C14.047 19.6481 12.447 18.0778 12.447 16.1466C12.447 14.2153 14.0422 12.645 16.0041 12.645C17.966 12.645 19.5612 14.2153 19.5612 16.1466C19.5612 18.0778 17.9612 19.6481 16.0041 19.6481ZM22.9755 10.5403C22.9755 11.2388 22.4041 11.7966 21.6993 11.7966C20.9898 11.7966 20.4231 11.2341 20.4231 10.5403C20.4231 9.84658 20.9946 9.28408 21.6993 9.28408C22.4041 9.28408 22.9755 9.84658 22.9755 10.5403ZM26.5993 11.8153C26.5184 10.1325 26.1279 8.64189 24.8755 7.41377C23.6279 6.18564 22.1136 5.80127 20.4041 5.71689C18.6422 5.61846 13.3612 5.61846 11.5993 5.71689C9.89457 5.79658 8.38029 6.18096 7.12791 7.40908C5.87553 8.63721 5.48982 10.1278 5.4041 11.8106C5.3041 13.545 5.3041 18.7434 5.4041 20.4778C5.48505 22.1606 5.87553 23.6513 7.12791 24.8794C8.38029 26.1075 9.88981 26.4919 11.5993 26.5763C13.3612 26.6747 18.6422 26.6747 20.4041 26.5763C22.1136 26.4966 23.6279 26.1122 24.8755 24.8794C26.1231 23.6513 26.5136 22.1606 26.5993 20.4778C26.6993 18.7434 26.6993 13.5497 26.5993 11.8153ZM24.3231 22.3388C23.9517 23.2575 23.2327 23.9653 22.2946 24.3356C20.8898 24.8841 17.5565 24.7575 16.0041 24.7575C14.4517 24.7575 11.1136 24.8794 9.71362 24.3356C8.78029 23.97 8.06124 23.2622 7.68505 22.3388C7.12791 20.9559 7.25648 17.6747 7.25648 16.1466C7.25648 14.6185 7.13267 11.3325 7.68505 9.95439C8.05648 9.03564 8.77553 8.32783 9.71362 7.95752C11.1184 7.40908 14.4517 7.53564 16.0041 7.53564C17.5565 7.53564 20.8946 7.41377 22.2946 7.95752C23.2279 8.32314 23.9469 9.03096 24.3231 9.95439C24.8803 11.3372 24.7517 14.6185 24.7517 16.1466C24.7517 17.6747 24.8803 20.9606 24.3231 22.3388Z" fill="#6D6E71"/>
</g>
<defs>
<clipPath id="clip0_483_10223">
<rect width="21.3333" height="24" fill="white" transform="translate(5.33301 4.15137)"/>
</clipPath>
</defs>
</svg>
