<svg width="32" height="33" viewBox="0 0 32 33" fill="none" xmlns="http://www.w3.org/2000/svg">
<g clip-path="url(#clip0_483_10227)">
<path d="M10.1766 25.4849V11.9909H5.60286V25.4849H10.1766ZM7.89032 10.1474C9.48526 10.1474 10.478 9.11124 10.478 7.81636C10.4483 6.49228 9.48532 5.48486 7.92058 5.48486C6.35609 5.48486 5.33301 6.4923 5.33301 7.81636C5.33301 9.1113 6.32554 10.1474 7.86046 10.1474H7.89017H7.89032ZM12.7081 25.4849H17.2819V17.9492C17.2819 17.5459 17.3116 17.143 17.4324 16.8547C17.763 16.0489 18.5156 15.2144 19.779 15.2144C21.4341 15.2144 22.0962 16.4518 22.0962 18.2658V25.4848H26.6696V17.7475C26.6696 13.6026 24.4132 11.6741 21.404 11.6741C18.9366 11.6741 17.8533 13.0265 17.2514 13.9477H17.282V11.9906H12.7082C12.7683 13.2568 12.7082 25.4846 12.7082 25.4846L12.7081 25.4849Z" fill="#6D6E71"/>
</g>
<defs>
<clipPath id="clip0_483_10227">
<rect width="21.3333" height="20" fill="white" transform="translate(5.33301 5.48486)"/>
</clipPath>
</defs>
</svg>
