<svg width="32" height="33" viewBox="0 0 32 33" fill="none" xmlns="http://www.w3.org/2000/svg">
<g clip-path="url(#clip0_483_10231)">
<path d="M28 9.09074C27.1013 9.47004 26.148 9.71901 25.1719 9.82937C26.1887 9.24883 26.9693 8.32952 27.3369 7.23417C26.3704 7.78058 25.3129 8.16556 24.2103 8.37248C23.312 7.46085 22.0324 6.89111 20.6162 6.89111C17.8968 6.89111 15.6921 8.99143 15.6921 11.5819C15.6921 11.9496 15.7357 12.3076 15.8196 12.651C11.7274 12.4553 8.09931 10.5878 5.67072 7.74978C5.24697 8.44259 5.00416 9.24847 5.00416 10.108C5.00416 11.7355 5.8735 13.1712 7.19462 14.0125C6.4127 13.9892 5.64798 13.788 4.96431 13.4257C4.96403 13.4453 4.96403 13.465 4.96403 13.4847C4.96403 15.7575 6.66128 17.6535 8.91372 18.0844C8.18864 18.2723 7.42809 18.2998 6.69016 18.1648C7.31669 20.0284 9.13516 21.3846 11.2897 21.4225C9.60456 22.6806 7.48141 23.4306 5.17459 23.4306C4.77709 23.4306 4.38522 23.4083 4 23.365C6.17903 24.696 8.76719 25.4726 11.5478 25.4726C20.6047 25.4726 25.5573 18.3247 25.5573 12.1259C25.5573 11.9224 25.5526 11.7202 25.543 11.519C26.507 10.8551 27.339 10.0328 28 9.09074Z" fill="#6D6E71"/>
</g>
<defs>
<clipPath id="clip0_483_10231">
<rect width="24" height="18.6667" fill="white" transform="translate(4 6.81787)"/>
</clipPath>
</defs>
</svg>
