<svg width="1920" height="259" viewBox="0 0 1920 259" fill="none" xmlns="http://www.w3.org/2000/svg">
<path d="M1920 0V8.8C1833.4 33.4 1745.8 54.8 1657.7 72.9C1419.5 121.6 1174.3 146.4 928.9 146.4C683.5 146.4 438.4 121.7 200.1 72.9C133.1 59.2 66.3 43.5 0 25.9V17.2C296.5 96.3 607.9 138.4 929 138.4C1272.5 138.4 1605 90.1 1920 0Z" fill="url(#paint0_linear_0_4144)"/>
<path d="M1920 60.5996V63.1996C1833.2 87.8996 1745.4 109.4 1657.1 127.4C1419.1 176.1 1174.1 200.8 929 200.8C683.9 200.8 438.9 176.1 200.9 127.4C133.5 113.7 66.5 97.8996 0 80.2996V77.7996C296.5 156.8 607.9 198.9 929 198.9C1272.5 198.9 1605 150.6 1920 60.5996Z" fill="url(#paint1_linear_0_4144)"/>
<path d="M929 256.399C1272.5 256.399 1605 208.199 1920 118.199V120.799C1833.2 145.499 1745.4 166.999 1657.1 184.999C1419.1 233.699 1174.1 258.399 929 258.399C683.9 258.399 438.9 233.699 200.9 184.999C133.5 171.299 66.5 155.499 0 137.799V135.299C296.5 214.299 607.9 256.399 929 256.399Z" fill="url(#paint2_linear_0_4144)"/>
<defs>
<linearGradient id="paint0_linear_0_4144" x1="960" y1="0" x2="960" y2="146.4" gradientUnits="userSpaceOnUse">
<stop stop-color="#EA1C2D"/>
<stop offset="1" stop-color="#EA1C2D" stop-opacity="0"/>
<stop offset="1" stop-color="#FD0015" stop-opacity="0"/>
</linearGradient>
<linearGradient id="paint1_linear_0_4144" x1="960" y1="60.5996" x2="960" y2="200.8" gradientUnits="userSpaceOnUse">
<stop stop-color="#EA1C2D"/>
<stop offset="1" stop-color="#EA1C2D" stop-opacity="0"/>
<stop offset="1" stop-color="#FD0015" stop-opacity="0"/>
</linearGradient>
<linearGradient id="paint2_linear_0_4144" x1="960" y1="118.199" x2="960" y2="258.399" gradientUnits="userSpaceOnUse">
<stop stop-color="#EA1C2D"/>
<stop offset="1" stop-color="#EA1C2D" stop-opacity="0"/>
<stop offset="1" stop-color="#FD0015" stop-opacity="0"/>
</linearGradient>
</defs>
</svg>
