<svg width="64" height="65" viewBox="0 0 64 65" fill="none" xmlns="http://www.w3.org/2000/svg">
<path d="M64 11.0966C64 8.7527 62.0931 6.8457 59.7491 6.8457C59.0589 6.8457 58.4991 7.40533 58.4991 8.0957C58.4991 8.78608 59.0589 9.3457 59.7491 9.3457C60.7146 9.3457 61.5 10.1312 61.5 11.0966V43.153C61.5 44.1185 60.7146 44.9038 59.7491 44.9038H4.25087C3.28538 44.9038 2.5 44.1185 2.5 43.153V11.0966C2.5 10.1312 3.28538 9.3457 4.25087 9.3457H48.6987C49.389 9.3457 49.9487 8.78608 49.9487 8.0957C49.9487 7.40533 49.389 6.8457 48.6987 6.8457H4.25087C1.90687 6.8457 0 8.75258 0 11.0966V43.153V43.1531V52.8266C0 55.7216 2.35525 58.0768 5.25025 58.0768H58.7497C61.6447 58.0768 64 55.7216 64 52.8266V43.1531V43.153V11.0966ZM61.5 52.8265C61.5 54.343 60.2662 55.5767 58.7497 55.5767H5.25025C3.73375 55.5767 2.5 54.343 2.5 52.8265V47.0266C3.047 47.2748 3.65062 47.4042 4.25125 47.4042H59.7487C60.3494 47.4042 60.9528 47.2747 61.5 47.0266V52.8265Z" fill="#EA1C2D"/>
<path d="M58 50.3271H10.2206V49.9902C10.2206 49.2999 9.66087 48.7402 8.97062 48.7402C8.28038 48.7402 7.72062 49.2999 7.72062 49.9902V50.3271H6.75C6.05975 50.3271 5.5 50.8867 5.5 51.5771C5.5 52.2675 6.05975 52.8271 6.75 52.8271H7.72062V53.1439C7.72062 53.8342 8.28038 54.3939 8.97062 54.3939C9.66087 54.3939 10.2206 53.8342 10.2206 53.1439V52.8271H58C58.6903 52.8271 59.25 52.2675 59.25 51.5771C59.25 50.8867 58.6903 50.3271 58 50.3271Z" fill="#EA1C2D"/>
<path d="M17.2266 27.1238C17.2266 35.268 23.8524 41.894 31.9968 41.894C40.1412 41.894 46.7671 35.2681 46.7671 27.1238C46.7671 18.9794 40.1412 12.3535 31.9968 12.3535C23.8524 12.3535 17.2266 18.9795 17.2266 27.1238ZM44.2671 27.1238C44.2671 33.8895 38.7627 39.394 31.9968 39.394C25.2309 39.394 19.7266 33.8896 19.7266 27.1238C19.7266 20.3579 25.2309 14.8535 31.9968 14.8535C38.7627 14.8535 44.2671 20.358 44.2671 27.1238Z" fill="#EA1C2D"/>
<path d="M28.0911 20.7601C27.7014 20.9826 27.4609 21.3969 27.4609 21.8456V32.4026C27.4609 33.3651 28.5621 33.9754 29.3787 33.4594L38.0186 27.9999C38.3868 27.7672 38.6073 27.3596 38.6007 26.9241C38.5939 26.4886 38.3612 26.088 37.9859 25.8666L29.3461 20.7692C28.9597 20.5411 28.4806 20.5377 28.0911 20.7601ZM29.9609 24.0345L34.9529 26.9797L29.9609 30.1341V24.0345Z" fill="#EA1C2D"/>
<path d="M53.1246 8.57291C53.3866 9.20191 54.1251 9.50966 54.7559 9.24916C55.3844 8.98953 55.6943 8.24516 55.4321 7.61666C55.1699 6.98791 54.4315 6.67991 53.8008 6.94041C53.1718 7.20016 52.8628 7.94416 53.1246 8.57291Z" fill="#EA1C2D"/>
</svg>
