<svg width="64" height="65" viewBox="0 0 64 65" fill="none" xmlns="http://www.w3.org/2000/svg">
<g clip-path="url(#clip0_0_1456)">
<path d="M43.25 40.3359C42.5597 40.3359 42 40.8956 42 41.5859V50.2109C42 53.6572 39.1963 56.4609 35.75 56.4609H22.254C21.5639 56.4609 21.0045 57.0201 21.004 57.7101L21.0023 60.1953L18.0187 57.2119C17.8256 56.7686 17.3836 56.4609 16.8724 56.4609H8.75C5.30375 56.4609 2.5 53.6572 2.5 50.2109V30.9609C2.5 27.5147 5.30375 24.7109 8.75 24.7109H21.375C22.0653 24.7109 22.625 24.1513 22.625 23.4609C22.625 22.7706 22.0653 22.2109 21.375 22.2109H8.75C3.92525 22.2109 0 26.1362 0 30.9609V50.2109C0 55.0357 3.92525 58.9609 8.75 58.9609H16.2323L21.3661 64.0948C21.6052 64.3339 21.9249 64.4609 22.2502 64.4609C22.4111 64.4609 22.5735 64.4298 22.7279 64.3659C23.195 64.1727 23.4996 63.7172 23.5 63.2118L23.503 58.9609H35.75C40.5747 58.9609 44.5 55.0357 44.5 50.2109V41.5859C44.5 40.8956 43.9403 40.3359 43.25 40.3359Z" fill="#EA1C2D"/>
<path d="M45.8319 0.460938H42.6683C32.6503 0.460938 24.5 8.61119 24.5 18.6292C24.5 28.6472 32.6503 36.7973 42.6681 36.7973H45.8317C47.3954 36.7973 48.943 36.5987 50.443 36.2062L55.1164 40.8769C55.3555 41.1158 55.675 41.2428 56.0003 41.2428C56.1614 41.2428 56.3239 41.2117 56.4785 41.1476C56.9455 40.9541 57.25 40.4983 57.25 39.9928V32.7608C59.2286 31.1584 60.8722 29.1343 62.0257 26.8731C63.3359 24.3048 64 21.5312 64 18.6292C64 8.61119 55.8498 0.460938 45.8319 0.460938ZM55.2479 31.1528C54.9345 31.3889 54.75 31.7587 54.75 32.1513V36.9763L51.6911 33.9191C51.4531 33.6813 51.1339 33.5532 50.8074 33.5532C50.6849 33.5532 50.5611 33.5713 50.4404 33.6084C48.9525 34.0657 47.402 34.2974 45.8319 34.2974H42.6683C34.0286 34.2974 27 27.2687 27 18.6292C27 9.98969 34.0288 2.96094 42.6683 2.96094H45.8319C54.4714 2.96094 61.5 9.98969 61.5 18.6292C61.5 23.5956 59.2212 28.1603 55.2479 31.1528Z" fill="#EA1C2D"/>
<path d="M49.8761 14.1385C49.6957 11.5216 47.5862 9.41211 44.9692 9.23173C43.4857 9.12986 42.0699 9.63023 40.9863 10.6419C39.9176 11.6395 39.3047 13.0497 39.3047 14.5111C39.3047 15.2015 39.8644 15.7611 40.5547 15.7611C41.2449 15.7611 41.8047 15.2015 41.8047 14.5111C41.8047 13.7287 42.1199 13.0036 42.6922 12.4695C43.2639 11.9359 44.0112 11.6717 44.7974 11.726C46.1759 11.821 47.2871 12.9321 47.3821 14.3105C47.4781 15.7026 46.5647 16.9329 45.2104 17.2359C44.1132 17.4814 43.3469 18.4349 43.3469 19.5545V22.5576C43.3469 23.248 43.9067 23.8076 44.5969 23.8076C45.2873 23.8076 45.8469 23.248 45.8468 22.5576V19.6544C48.3656 19.0459 50.0554 16.7411 49.8761 14.1385Z" fill="#EA1C2D"/>
<path d="M45.4853 26.6182C45.2528 26.3857 44.9303 26.252 44.6016 26.252C44.2728 26.252 43.9503 26.3857 43.7178 26.6182C43.4853 26.8507 43.3516 27.1732 43.3516 27.502C43.3516 27.832 43.4854 28.1545 43.7178 28.387C43.9503 28.6195 44.2728 28.752 44.6016 28.752C44.9303 28.752 45.2528 28.6195 45.4853 28.387C45.7178 28.1532 45.8516 27.832 45.8516 27.502C45.8516 27.1732 45.7177 26.8507 45.4853 26.6182Z" fill="#EA1C2D"/>
<path d="M34.375 39.2109H8C7.30975 39.2109 6.75 39.7706 6.75 40.4609C6.75 41.1513 7.30975 41.7109 8 41.7109H34.375C35.0654 41.7109 35.625 41.1513 35.625 40.4609C35.625 39.7706 35.0653 39.2109 34.375 39.2109Z" fill="#EA1C2D"/>
<path d="M35.2586 46.5772C35.0263 46.3447 34.7038 46.2109 34.375 46.2109C34.0462 46.2109 33.7237 46.3447 33.4912 46.5772C33.2586 46.8097 33.125 47.1322 33.125 47.4609C33.125 47.7897 33.2587 48.1122 33.4912 48.3447C33.7237 48.5772 34.0462 48.7109 34.375 48.7109C34.7038 48.7109 35.0263 48.5772 35.2586 48.3447C35.4913 48.1122 35.625 47.7909 35.625 47.4609C35.625 47.1322 35.4911 46.8097 35.2586 46.5772Z" fill="#EA1C2D"/>
<path d="M29.4584 46.2109H8C7.30975 46.2109 6.75 46.7706 6.75 47.4609C6.75 48.1513 7.30975 48.7109 8 48.7109H29.4584C30.1488 48.7109 30.7084 48.1513 30.7084 47.4609C30.7084 46.7706 30.1486 46.2109 29.4584 46.2109Z" fill="#EA1C2D"/>
<path d="M26.25 32.2109H8C7.30975 32.2109 6.75 32.7706 6.75 33.4609C6.75 34.1513 7.30975 34.7109 8 34.7109H26.25C26.9404 34.7109 27.5 34.1513 27.5 33.4609C27.5 32.7706 26.9403 32.2109 26.25 32.2109Z" fill="#EA1C2D"/>
</g>
<defs>
<clipPath id="clip0_0_1456">
<rect width="64" height="64" fill="white" transform="translate(0 0.460938)"/>
</clipPath>
</defs>
</svg>
