<svg width="64" height="65" viewBox="0 0 64 65" fill="none" xmlns="http://www.w3.org/2000/svg">
<path d="M56.5502 7.90899C55.3208 6.67165 53.8581 5.69044 52.2469 5.02215C50.6357 4.35386 48.9079 4.01176 47.1636 4.01566H16.8347C13.3126 4.01566 9.93479 5.4148 7.44431 7.90528C4.95383 10.3958 3.55469 13.7736 3.55469 17.2957V47.6246C3.55469 51.1466 4.95383 54.5244 7.44431 57.0149C9.93479 59.5054 13.3126 60.9046 16.8347 60.9046H47.1636C50.6857 60.9046 54.0635 59.5054 56.554 57.0149C59.0444 54.5244 60.4436 51.1466 60.4436 47.6246V17.2957C60.4475 15.5513 60.1054 13.8236 59.4371 12.2124C58.7688 10.6011 57.7876 9.13847 56.5502 7.90899ZM56.6391 47.6423C56.6391 50.1554 55.6408 52.5655 53.8638 54.3426C52.0868 56.1196 49.6767 57.1179 47.1636 57.1179H16.8347C14.3216 57.1179 11.9115 56.1196 10.1345 54.3426C8.35745 52.5655 7.35913 50.1554 7.35913 47.6423V17.2957C7.35679 16.0498 7.60016 14.8157 8.07531 13.6641C8.55045 12.5124 9.24805 11.4657 10.1282 10.5839C11.0083 9.70216 12.0537 9.00261 13.2044 8.52531C14.3552 8.048 15.5888 7.80232 16.8347 7.80233H47.1636C49.6767 7.80233 52.0868 8.80064 53.8638 10.5777C55.6408 12.3547 56.6391 14.7648 56.6391 17.2779V47.6423Z" fill="#EA1C2D"/>
<path d="M39.5938 47.625H47.1849V51.4117H39.5938V47.625Z" fill="#EA1C2D"/>
<path d="M28.2109 47.625H35.802V51.4117H28.2109V47.625Z" fill="#EA1C2D"/>
<path d="M16.8359 47.625H24.427V51.4117H16.8359V47.625Z" fill="#EA1C2D"/>
<path d="M11.1484 40.0527H52.8729V43.8394H11.1484V40.0527Z" fill="#EA1C2D"/>
<path d="M33.8986 35.3045C33.5043 35.2991 33.1214 35.1714 32.8029 34.9389C32.4844 34.7064 32.2461 34.3806 32.1208 34.0067L28.0497 21.7934L26.183 26.469C26.0404 26.8229 25.7945 27.1258 25.4775 27.3382C25.1605 27.5506 24.7869 27.6628 24.4052 27.6601H14.9297V23.9267H23.1075L26.4141 15.6423C26.5588 15.2897 26.8051 14.9882 27.1217 14.7761C27.4383 14.564 27.8108 14.4509 28.1919 14.4512C28.5869 14.4539 28.971 14.5807 29.29 14.8135C29.609 15.0464 29.8467 15.3736 29.9697 15.749L34.0764 28.0867L37.7919 19.3934C37.9401 19.0461 38.1883 18.7507 38.5049 18.5449C38.8215 18.3392 39.1921 18.2323 39.5697 18.2378C39.9445 18.2101 40.3184 18.3018 40.6378 18.4998C40.9572 18.6979 41.2057 18.992 41.3475 19.3401L43.4986 23.9267H49.063V27.7134H42.2364C41.8647 27.7235 41.4983 27.6245 41.1824 27.4286C40.8664 27.2327 40.6148 26.9485 40.4586 26.6112L39.5875 24.8334L35.5519 34.2378C35.3997 34.5495 35.1653 34.8135 34.8739 35.0015C34.5825 35.1895 34.2452 35.2943 33.8986 35.3045Z" fill="#EA1C2D"/>
</svg>
