<svg width="64" height="65" viewBox="0 0 64 65" fill="none" xmlns="http://www.w3.org/2000/svg">
<path d="M58.375 5.46094H53.875V2.33594C53.875 1.30044 53.0355 0.460938 52 0.460938C50.9645 0.460938 50.125 1.30044 50.125 2.33594V5.46094H43.875V2.33594C43.875 1.30044 43.0355 0.460938 42 0.460938C40.9645 0.460938 40.125 1.30044 40.125 2.33594V5.46094H33.875V2.33594C33.875 1.30044 33.0355 0.460938 32 0.460938C30.9645 0.460938 30.125 1.30044 30.125 2.33594V5.46094H23.875V2.33594C23.875 1.30044 23.0355 0.460938 22 0.460938C20.9645 0.460938 20.125 1.30044 20.125 2.33594V5.46094H13.875V2.33594C13.875 1.30044 13.0355 0.460938 12 0.460938C10.9645 0.460938 10.125 1.30044 10.125 2.33594V5.46094H5.625C2.52338 5.46094 0 7.98431 0 11.0859V58.8359C0 61.9376 2.52338 64.4609 5.625 64.4609H58.375C61.4766 64.4609 64 61.9376 64 58.8359V11.0859C64 7.98431 61.4766 5.46094 58.375 5.46094ZM3.75 11.0859C3.75 10.0521 4.59113 9.21094 5.625 9.21094H10.125V12.3359C10.125 13.3714 10.9645 14.2109 12 14.2109C13.0355 14.2109 13.875 13.3714 13.875 12.3359V9.21094H20.125V12.3359C20.125 13.3714 20.9645 14.2109 22 14.2109C23.0355 14.2109 23.875 13.3714 23.875 12.3359V9.21094H30.125V12.3359C30.125 13.3714 30.9645 14.2109 32 14.2109C33.0355 14.2109 33.875 13.3714 33.875 12.3359V9.21094H40.125V12.3359C40.125 13.3714 40.9645 14.2109 42 14.2109C43.0355 14.2109 43.875 13.3714 43.875 12.3359V9.21094H50.125V12.3359C50.125 13.3714 50.9645 14.2109 52 14.2109C53.0355 14.2109 53.875 13.3714 53.875 12.3359V9.21094H58.375C59.4089 9.21094 60.25 10.0521 60.25 11.0859V18.2109H3.75V11.0859ZM60.25 58.8359C60.25 59.8698 59.4089 60.7109 58.375 60.7109H5.625C4.59113 60.7109 3.75 59.8698 3.75 58.8359V21.9609H60.25V58.8359Z" fill="#EA1C2D"/>
<path d="M19.5 39.4609H24.5C25.5355 39.4609 26.375 38.6214 26.375 37.5859C26.375 36.5504 25.5355 35.7109 24.5 35.7109H19.5C18.4645 35.7109 17.625 36.5504 17.625 37.5859C17.625 38.6214 18.4645 39.4609 19.5 39.4609Z" fill="#EA1C2D"/>
<path d="M26.375 45.0859C26.375 44.0504 25.5355 43.2109 24.5 43.2109H19.5C18.4645 43.2109 17.625 44.0504 17.625 45.0859C17.625 46.1214 18.4645 46.9609 19.5 46.9609H24.5C25.5355 46.9609 26.375 46.1214 26.375 45.0859Z" fill="#EA1C2D"/>
<path d="M12 55.0859H23.7432C26.3118 55.0859 28.8229 55.8462 30.96 57.2709C31.5897 57.6908 32.4103 57.6908 33.0401 57.2709C35.1773 55.8462 37.6884 55.0859 40.2569 55.0859H52C53.0355 55.0859 53.875 54.2464 53.875 53.2109V29.4609C53.875 28.4254 53.0355 27.5859 52 27.5859H40.2569C37.3456 27.5859 34.5152 28.3344 31.9999 29.7604C29.4846 28.3344 26.6543 27.5859 23.743 27.5859H12C10.9645 27.5859 10.125 28.4254 10.125 29.4609V53.2109C10.125 54.2464 10.9645 55.0859 12 55.0859ZM50.125 31.3359V51.3359H40.257C38.049 51.3359 35.8879 51.7674 33.875 52.5976V33.0086C35.8207 31.9118 38.0077 31.3359 40.257 31.3359H50.125ZM13.875 31.3359H23.743C25.9923 31.3359 28.1793 31.9118 30.125 33.0086V52.5976C28.1121 51.7674 25.951 51.3359 23.743 51.3359H13.875V31.3359Z" fill="#EA1C2D"/>
<path d="M39.5 39.4609H44.5C45.5355 39.4609 46.375 38.6214 46.375 37.5859C46.375 36.5504 45.5355 35.7109 44.5 35.7109H39.5C38.4645 35.7109 37.625 36.5504 37.625 37.5859C37.625 38.6214 38.4645 39.4609 39.5 39.4609Z" fill="#EA1C2D"/>
<path d="M44.5 43.2109H39.5C38.4645 43.2109 37.625 44.0504 37.625 45.0859C37.625 46.1214 38.4645 46.9609 39.5 46.9609H44.5C45.5355 46.9609 46.375 46.1214 46.375 45.0859C46.375 44.0504 45.5355 43.2109 44.5 43.2109Z" fill="#EA1C2D"/>
</svg>
