<svg width="64" height="65" viewBox="0 0 64 65" fill="none" xmlns="http://www.w3.org/2000/svg">
<g clip-path="url(#clip0_0_1487)">
<path d="M32 15.5234C22.6606 15.5234 15.0625 23.1216 15.0625 32.4609C15.0625 41.8003 22.6606 49.3984 32 49.3984C41.3394 49.3984 48.9375 41.8003 48.9375 32.4609C48.9375 23.1216 41.3394 15.5234 32 15.5234ZM32 45.6484C24.7284 45.6484 18.8125 39.7326 18.8125 32.4609C18.8125 25.1893 24.7284 19.2734 32 19.2734C39.2716 19.2734 45.1875 25.1893 45.1875 32.4609C45.1875 39.7326 39.2716 45.6484 32 45.6484Z" fill="#EA1C2D"/>
<path d="M35.296 27.8709L30.4533 33.0734L28.6538 31.2739C27.9217 30.5418 26.7345 30.5418 26.0022 31.2739C25.2701 32.0061 25.2701 33.1933 26.0022 33.9256L29.1758 37.0992C29.5277 37.4511 30.0048 37.6484 30.5016 37.6484C30.5128 37.6484 30.5241 37.6483 30.5352 37.6482C31.0441 37.6391 31.5273 37.4234 31.8741 37.0509L38.0407 30.4259C38.7463 29.6681 38.7037 28.4816 37.9458 27.7761C37.188 27.0704 36.0015 27.1129 35.296 27.8709Z" fill="#EA1C2D"/>
<path d="M62.125 30.5859H59.6326C59.1881 23.8938 56.371 17.6633 51.5843 12.8766C46.7976 8.08994 40.5671 5.27269 33.875 4.82831V2.33594C33.875 1.30044 33.0355 0.460938 32 0.460938C30.9645 0.460938 30.125 1.30044 30.125 2.33594V4.82831C23.4329 5.27281 17.2024 8.09006 12.4156 12.8767C7.629 17.6633 4.81175 23.8938 4.36737 30.5859H1.875C0.8395 30.5859 0 31.4254 0 32.4609C0 33.4964 0.8395 34.3359 1.875 34.3359H4.36737C4.81187 41.0281 7.629 47.2586 12.4157 52.0453C17.2025 56.8319 23.433 59.6492 30.1251 60.0936V62.5859C30.1251 63.6214 30.9646 64.4609 32.0001 64.4609C33.0356 64.4609 33.8751 63.6214 33.8751 62.5859V60.0936C40.5672 59.6491 46.7977 56.8318 51.5845 52.0453C56.3711 47.2586 59.1884 41.0281 59.6329 34.3359H62.125C63.1605 34.3359 64 33.4964 64 32.4609C64 31.4254 63.1605 30.5859 62.125 30.5859ZM33.875 56.3342V53.9787C33.875 52.9432 33.0355 52.1037 32 52.1037C30.9645 52.1037 30.125 52.9432 30.125 53.9787V56.3342C18.4128 55.4228 9.03813 46.0482 8.12675 34.3359H10.4821C11.5176 34.3359 12.3571 33.4964 12.3571 32.4609C12.3571 31.4254 11.5176 30.5859 10.4821 30.5859H8.12675C9.03813 18.8737 18.4128 9.49906 30.125 8.58769V10.9432C30.125 11.9787 30.9645 12.8182 32 12.8182C33.0355 12.8182 33.875 11.9787 33.875 10.9432V8.58769C45.5872 9.49906 54.9619 18.8737 55.8732 30.5859H53.5179C52.4824 30.5859 51.6429 31.4254 51.6429 32.4609C51.6429 33.4964 52.4824 34.3359 53.5179 34.3359H55.8732C54.9619 46.0482 45.5872 55.4228 33.875 56.3342Z" fill="#EA1C2D"/>
</g>
<defs>
<clipPath id="clip0_0_1487">
<rect width="64" height="64" fill="white" transform="translate(0 0.460938)"/>
</clipPath>
</defs>
</svg>
