<svg width="64" height="65" viewBox="0 0 64 65" fill="none" xmlns="http://www.w3.org/2000/svg">
<g clip-path="url(#clip0_0_1408)">
<path d="M12.5 14.5859C12.5 13.2051 13.6191 12.0859 15 12.0859H49C50.3809 12.0859 51.5 13.2051 51.5 14.5859C51.5 15.9668 50.3809 17.0859 49 17.0859H15C13.6191 17.0859 12.5 15.9668 12.5 14.5859ZM51.5 24.5859C51.5 23.2051 50.3809 22.0859 49 22.0859H15C13.6191 22.0859 12.5 23.2051 12.5 24.5859C12.5 25.9668 13.6191 27.0859 15 27.0859H49C50.3809 27.0859 51.5 25.9668 51.5 24.5859ZM15 32.0859C13.6191 32.0859 12.5 33.2051 12.5 34.5859C12.5 35.9668 13.6191 37.0859 15 37.0859H26.5C27.8809 37.0859 29 35.9668 29 34.5859C29 33.2051 27.8809 32.0859 26.5 32.0859H15ZM61.8052 51.6597C64.7275 54.582 64.7275 59.3398 61.8032 62.2642C60.3413 63.7261 58.4204 64.4575 56.5 64.4575C54.5796 64.4575 52.6587 63.7261 51.1968 62.2642L37.5259 48.5679C37.2212 48.2627 37.001 47.8843 36.8862 47.4688L34.0908 37.3784C33.8477 36.4995 34.1016 35.5581 34.7544 34.9214C35.4067 34.2852 36.354 34.0537 37.2266 34.3188L47.0674 37.3081C47.4614 37.4277 47.8198 37.6426 48.1104 37.9341L61.8052 51.6597ZM41.5288 45.5005L50.7183 54.707L54.2544 51.1709L45.0137 41.9097L40.1226 40.4238L41.5288 45.5005ZM58.2676 55.1934L57.7861 54.7104L54.2505 58.2461L54.7339 58.7305C55.707 59.7036 57.293 59.7036 58.2676 58.7285C59.2427 57.7539 59.2427 56.168 58.2676 55.1934ZM54 0.460938H10C4.48584 0.460938 0 4.94678 0 10.4609V54.4609C0 59.9751 4.48584 64.4609 10 64.4609H40.625C42.0059 64.4609 43.125 63.3418 43.125 61.9609C43.125 60.5801 42.0059 59.4609 40.625 59.4609H10C7.24316 59.4609 5 57.2178 5 54.4609V10.4609C5 7.7041 7.24316 5.46094 10 5.46094H54C56.7568 5.46094 59 7.7041 59 10.4609V41.2109C59 42.5918 60.1191 43.7109 61.5 43.7109C62.8809 43.7109 64 42.5918 64 41.2109V10.4609C64 4.94678 59.5142 0.460938 54 0.460938Z" fill="#EA1C2D"/>
</g>
<defs>
<clipPath id="clip0_0_1408">
<rect width="64" height="64" fill="white" transform="translate(0 0.460938)"/>
</clipPath>
</defs>
</svg>
