<svg width="60" height="61" viewBox="0 0 60 61" fill="none" xmlns="http://www.w3.org/2000/svg">
<g clip-path="url(#clip0_483_12042)">
<path d="M30 42.2148C25.865 42.2148 22.5 38.8498 22.5 34.7148C22.5 30.5798 25.865 27.2148 30 27.2148C34.135 27.2148 37.5 30.5798 37.5 34.7148C37.5 38.8498 34.135 42.2148 30 42.2148Z" fill="#FF616E"/>
<path d="M41.875 58.4648H18.125C17.09 58.4648 16.25 57.6248 16.25 56.5898V52.8398C16.25 49.0473 19.3325 45.9648 23.125 45.9648H36.875C40.6675 45.9648 43.75 49.0473 43.75 52.8398V56.5898C43.75 57.6248 42.91 58.4648 41.875 58.4648Z" fill="#FF616E"/>
<path d="M38.6686 23.4651H21.3336C20.4311 23.4651 19.6586 22.8226 19.4911 21.9376L17.5336 11.5201C17.2561 10.0426 18.7486 8.84758 20.1361 9.46008L24.3361 11.3251L28.3811 4.39758C29.0561 3.24508 30.9461 3.24508 31.6211 4.39758L35.6661 11.3251L39.8661 9.46008C41.2436 8.84758 42.7461 10.0376 42.4711 11.5201L40.5136 21.9351C40.3461 22.8226 39.5711 23.4651 38.6686 23.4651Z" fill="#FFC107"/>
<path d="M30 27.2148C25.865 27.2148 22.5 30.5798 22.5 34.7148C22.5 38.8498 25.865 42.2148 30 42.2148V27.2148Z" fill="#FF4554"/>
<path d="M30 45.9648H23.125C19.3325 45.9648 16.25 49.0473 16.25 52.8398V56.5898C16.25 57.6248 17.09 58.4648 18.125 58.4648H30V45.9648Z" fill="#FF4554"/>
<path d="M30.0007 3.5293C29.3582 3.5293 28.7182 3.8168 28.3807 4.3943L24.3357 11.3243L20.1357 9.4593C19.8807 9.3468 19.6232 9.2943 19.3732 9.2943C18.2607 9.2943 17.3082 10.3118 17.5332 11.5193L19.4907 21.9343C19.6557 22.8218 20.4307 23.4643 21.3332 23.4643H30.0007V3.5293Z" fill="#DEA806"/>
<path d="M50 40.9648C47.2425 40.9648 45 38.7223 45 35.9648C45 33.2073 47.2425 30.9648 50 30.9648C52.7575 30.9648 55 33.2073 55 35.9648C55 38.7223 52.7575 40.9648 50 40.9648Z" fill="#FF616E"/>
<path d="M10 40.9648C7.2425 40.9648 5 38.7223 5 35.9648C5 33.2073 7.2425 30.9648 10 30.9648C12.7575 30.9648 15 33.2073 15 35.9648C15 38.7223 12.7575 40.9648 10 40.9648Z" fill="#FF616E"/>
<path d="M53.125 43.4648H46.875C46.075 43.4648 45.325 43.5898 44.625 43.8398C47.5675 46.4048 48.75 49.5973 48.75 53.4648H58.125C59.15 53.4648 60 52.6148 60 51.5898V50.3398C60 46.5398 56.925 43.4648 53.125 43.4648Z" fill="#FF616E"/>
<path d="M13.125 43.4648H6.875C3.075 43.4648 0 46.5398 0 50.3398V51.5898C0 52.6148 0.85 53.4648 1.875 53.4648H11.25C11.25 49.5973 12.4325 46.4048 15.375 43.8398C14.675 43.5898 13.925 43.4648 13.125 43.4648Z" fill="#FF616E"/>
<path d="M10 30.9648C7.2425 30.9648 5 33.2073 5 35.9648C5 38.7223 7.2425 40.9648 10 40.9648V30.9648Z" fill="#FF4554"/>
<path d="M10 43.4648H6.875C3.075 43.4648 0 46.5398 0 50.3398V51.5898C0 52.6148 0.85 53.4648 1.875 53.4648H10V43.4648Z" fill="#FF4554"/>
<path d="M50 30.9648C47.2425 30.9648 45 33.2073 45 35.9648C45 38.7223 47.2425 40.9648 50 40.9648V30.9648Z" fill="#FF4554"/>
<path d="M50 43.4648H46.875C46.075 43.4648 45.325 43.5898 44.625 43.8398C47.5675 46.4048 48.75 49.5973 48.75 53.4648H50V43.4648Z" fill="#FF4554"/>
</g>
<defs>
<clipPath id="clip0_483_12042">
<rect width="60" height="60" fill="white" transform="translate(0 0.964844)"/>
</clipPath>
</defs>
</svg>
