<svg width="92" height="82" viewBox="0 0 92 82" fill="none" xmlns="http://www.w3.org/2000/svg">
<g clip-path="url(#clip0_508_3812)">
<path d="M31.1719 51.8398C30.2011 51.8398 29.414 51.0527 29.414 50.082C29.414 49.1112 30.2011 48.3241 31.1719 48.3241C32.2789 48.3241 33.1797 47.4234 33.1797 46.3164C33.1797 45.1924 32.2652 44.3086 31.1719 44.3086H29.2891C25.1267 44.3086 21.8829 40.918 21.8829 36.9023V25.6055C21.8829 24.6347 22.6699 23.8477 23.6407 23.8477H34.9376C35.9083 23.8477 36.6954 24.6347 36.6954 25.6055C36.6954 26.5763 35.9083 27.3633 34.9376 27.3633H25.3985V36.9023C25.3985 39.0012 27.0924 40.793 29.2891 40.793H31.1719C34.196 40.793 36.6954 43.237 36.6954 46.3164C36.6954 49.362 34.2174 51.8398 31.1719 51.8398Z" fill="#FFD000"/>
<path d="M68.8282 51.8398C69.799 51.8398 70.586 51.0527 70.586 50.082C70.586 49.1112 69.799 48.3241 68.8282 48.3241C67.7211 48.3241 66.8203 47.4234 66.8203 46.3164C66.8203 45.1924 67.7348 44.3086 68.8282 44.3086H70.7109C74.8733 44.3086 78.1172 40.918 78.1172 36.9023V25.6055C78.1172 24.6347 77.3302 23.8477 76.3594 23.8477H65.0625C64.0917 23.8477 63.3047 24.6347 63.3047 25.6055C63.3047 26.5763 64.0917 27.3633 65.0625 27.3633H74.6016V36.9023C74.6016 39.0012 72.9076 40.793 70.7109 40.793H68.8282C65.8041 40.793 63.3047 43.237 63.3047 46.3164C63.3047 49.362 65.7826 51.8398 68.8282 51.8398Z" fill="#FFAA00"/>
<path d="M50 63.1368C49.0292 63.1368 48.2422 62.3497 48.2422 61.3789V53.8477C48.2422 52.8769 49.0292 52.0898 50 52.0898C50.9708 52.0898 51.7578 52.8769 51.7578 53.8477V61.3789C51.7578 62.3498 50.9708 63.1368 50 63.1368Z" fill="#FFAA00"/>
<path d="M59.414 70.6679H40.586C39.6152 70.6679 38.8282 69.8809 38.8282 68.9101V65.1445C38.8282 62.069 41.3225 59.6211 44.3516 59.6211H55.6485C58.6726 59.6211 61.1719 62.065 61.1719 65.1445V68.9101C61.1719 69.8809 60.3848 70.6679 59.414 70.6679Z" fill="#FFF500"/>
<path d="M61.1718 68.9101V65.1445C61.1718 62.065 58.6726 59.6211 55.6484 59.6211H50V70.6679H59.414C60.3848 70.6679 61.1718 69.8809 61.1718 68.9101Z" fill="#FFD000"/>
<path d="M57.5313 55.6055H42.4687C37.3467 55.6055 33.1796 51.4384 33.1796 46.3164V23.7227C33.1796 22.7519 33.9667 21.9648 34.9374 21.9648H65.0624C66.0331 21.9648 66.8202 22.7519 66.8202 23.7227V46.3164C66.8203 51.4384 62.6533 55.6055 57.5313 55.6055Z" fill="#FFF500"/>
<path d="M66.8203 46.3164V23.7227C66.8203 22.7519 66.0332 21.9648 65.0625 21.9648H50V55.6055H57.5313C62.6533 55.6055 66.8203 51.4384 66.8203 46.3164Z" fill="#FFD000"/>
<path d="M59.2032 35.7946C59.0294 35.2595 58.6099 34.8399 58.0747 34.666L53.9634 33.3296L51.4222 29.832C51.0915 29.3767 50.5628 29.1074 50.0001 29.1074C49.4374 29.1074 48.9088 29.3767 48.578 29.832L46.0368 33.3296L41.9255 34.666C41.3904 34.8399 40.9709 35.2594 40.797 35.7946C40.6231 36.3298 40.7161 36.9157 41.0469 37.3709L43.5881 40.8684V45.1906C43.5881 45.7532 43.8575 46.2818 44.3126 46.6127C44.7679 46.9434 45.3541 47.0362 45.8889 46.8624L50.0001 45.5269L54.1114 46.8624C54.6462 47.0361 55.2324 46.9432 55.6877 46.6127C56.1428 46.282 56.4122 45.7533 56.4122 45.1906V40.8684L58.9535 37.3709C59.2842 36.9156 59.3771 36.3297 59.2032 35.7946Z" fill="#FFD000"/>
<path d="M50.0001 45.5269L54.1114 46.8624C54.6462 47.0361 55.2324 46.9432 55.6876 46.6127C56.1428 46.282 56.4122 45.7533 56.4122 45.1906V40.8684L58.9534 37.3709C59.2841 36.9157 59.3771 36.3297 59.2033 35.7946C59.0295 35.2595 58.6099 34.8399 58.0747 34.666L53.9633 33.3296L51.4221 29.832C51.0914 29.3767 50.5628 29.1074 50.0001 29.1074V45.5269Z" fill="#FFAA00"/>
<path d="M65.0625 80.207H34.9376C33.9668 80.207 33.1797 79.42 33.1797 78.4492V68.9102C33.1797 67.9394 33.9668 67.1523 34.9376 67.1523H65.0625C66.0333 67.1523 66.8203 67.9394 66.8203 68.9102V78.4492C66.8203 79.42 66.0333 80.207 65.0625 80.207Z" fill="#283C4B"/>
<path d="M66.8203 78.4492V68.9102C66.8203 67.9394 66.0332 67.1523 65.0625 67.1523H50V80.207H65.0625C66.0332 80.207 66.8203 79.42 66.8203 78.4492Z" fill="#001E28"/>
<path d="M68.8282 81.9648H31.1719C30.2011 81.9648 29.4141 81.1778 29.4141 80.207C29.4141 79.2362 30.2011 78.4492 31.1719 78.4492H68.8282C69.799 78.4492 70.586 79.2362 70.586 80.207C70.586 81.1778 69.799 81.9648 68.8282 81.9648Z" fill="#505A6E"/>
<path d="M70.586 80.207C70.586 79.2362 69.7989 78.4492 68.8282 78.4492H50V81.9648H68.8282C69.7989 81.9648 70.586 81.1778 70.586 80.207Z" fill="#283C4B"/>
</g>
<path d="M5.52447 30.4284C5.67415 29.9677 6.32585 29.9677 6.47553 30.4284L7.23483 32.7653C7.30176 32.9713 7.49374 33.1107 7.71036 33.1107H10.1675C10.6519 33.1107 10.8532 33.7305 10.4614 34.0153L8.47352 35.4595C8.29828 35.5868 8.22495 35.8125 8.29188 36.0185L9.05118 38.3554C9.20086 38.8161 8.67362 39.1991 8.28176 38.9144L6.29389 37.4702C6.11865 37.3428 5.88135 37.3428 5.70611 37.4702L3.71824 38.9144C3.32638 39.1991 2.79914 38.8161 2.94882 38.3554L3.70812 36.0185C3.77505 35.8125 3.70172 35.5868 3.52648 35.4595L1.53861 34.0153C1.14675 33.7305 1.34814 33.1107 1.8325 33.1107H4.28964C4.50626 33.1107 4.69824 32.9713 4.76517 32.7653L5.52447 30.4284Z" fill="#FFD000"/>
<path d="M35.5245 2.42837C35.6741 1.96771 36.3259 1.96771 36.4755 2.42837L37.4593 5.45623C37.5263 5.66224 37.7183 5.80172 37.9349 5.80172H41.1186C41.6029 5.80172 41.8043 6.42153 41.4124 6.70623L38.8368 8.57756C38.6615 8.70488 38.5882 8.93056 38.6552 9.13657L39.639 12.1644C39.7886 12.6251 39.2614 13.0082 38.8695 12.7235L36.2939 10.8521C36.1186 10.7248 35.8814 10.7248 35.7061 10.8521L33.1305 12.7235C32.7386 13.0082 32.2114 12.6251 32.361 12.1644L33.3448 9.13657C33.4118 8.93056 33.3385 8.70488 33.1632 8.57756L30.5876 6.70623C30.1957 6.42153 30.3971 5.80172 30.8814 5.80172H34.0651C34.2817 5.80172 34.4737 5.66224 34.5407 5.45623L35.5245 2.42837Z" fill="#FFD000"/>
<path d="M86.5245 32.4284C86.6741 31.9677 87.3259 31.9677 87.4755 32.4284L88.0103 34.0743C88.0773 34.2803 88.2692 34.4198 88.4858 34.4198H90.2164C90.7008 34.4198 90.9022 35.0396 90.5103 35.3243L89.1102 36.3415C88.935 36.4688 88.8617 36.6945 88.9286 36.9005L89.4634 38.5464C89.6131 39.0071 89.0858 39.3901 88.694 39.1054L87.2939 38.0882C87.1186 37.9609 86.8814 37.9609 86.7061 38.0882L85.306 39.1054C84.9142 39.3901 84.3869 39.0071 84.5366 38.5464L85.0714 36.9005C85.1383 36.6945 85.065 36.4688 84.8898 36.3415L83.4897 35.3243C83.0978 35.0396 83.2992 34.4198 83.7836 34.4198H85.5142C85.7308 34.4198 85.9227 34.2803 85.9897 34.0743L86.5245 32.4284Z" fill="#FFD000"/>
<path d="M64.5245 7.46352C64.6741 7.00287 65.3259 7.00287 65.4755 7.46353L65.7858 8.41844C65.8527 8.62445 66.0447 8.76393 66.2613 8.76393H67.2654C67.7497 8.76393 67.9511 9.38374 67.5593 9.66844L66.747 10.2586C66.5717 10.3859 66.4984 10.6116 66.5653 10.8176L66.8756 11.7725C67.0253 12.2332 66.498 12.6163 66.1062 12.3316L65.2939 11.7414C65.1186 11.6141 64.8814 11.6141 64.7061 11.7414L63.8938 12.3316C63.502 12.6163 62.9747 12.2332 63.1244 11.7725L63.4347 10.8176C63.5016 10.6116 63.4283 10.3859 63.253 10.2586L62.4407 9.66844C62.0489 9.38374 62.2503 8.76393 62.7346 8.76393H63.7387C63.9553 8.76393 64.1473 8.62445 64.2142 8.41844L64.5245 7.46352Z" fill="#FFD000"/>
<defs>
<clipPath id="clip0_508_3812">
<rect width="60" height="60" fill="white" transform="translate(20 21.9648)"/>
</clipPath>
</defs>
</svg>
