<svg width="60" height="61" viewBox="0 0 60 61" fill="none" xmlns="http://www.w3.org/2000/svg">
<g clip-path="url(#clip0_483_12008)">
<path d="M30 0.964844C18.692 0.964844 9.49219 10.1646 9.49219 21.4727C9.49219 27.7011 12.2787 33.5185 17.137 37.4331C19.7261 39.5194 21.2109 42.4923 21.2109 45.5898C21.2109 46.8325 22.2183 47.8398 23.4609 47.8398H36.5391C37.7817 47.8398 38.7891 46.8325 38.7891 45.5898C38.7891 42.4923 40.2739 39.5194 42.863 37.4331C47.7213 33.5185 50.5078 27.7011 50.5078 21.4727C50.5078 10.1646 41.308 0.964844 30 0.964844V0.964844Z" fill="#FFF79F"/>
<path d="M36.5391 47.8398C37.7817 47.8398 38.7891 46.8325 38.7891 45.5898C38.7891 42.4923 40.2739 39.5194 42.863 37.4331C47.7213 33.5185 50.5078 27.7011 50.5078 21.4727C50.5078 10.1646 41.308 0.964844 30 0.964844V47.8398H36.5391Z" fill="#FFDE55"/>
<path d="M39.375 32.6055H20.625C19.6542 32.6055 18.8672 31.8185 18.8672 30.8477V29.8178C18.8672 23.6886 23.7613 18.6029 29.8902 18.5435C36.079 18.4836 41.1328 23.5006 41.1328 29.6758V30.8477C41.1328 31.8185 40.3458 32.6055 39.375 32.6055Z" fill="#5F55AF"/>
<path d="M30 18.543V32.6046H39.375C40.3458 32.6046 41.1328 31.8176 41.1328 30.8468V29.675C41.1328 23.5363 36.1386 18.5431 30 18.543Z" fill="#453D83"/>
<path d="M30 21.4727C26.2846 21.4727 23.2617 18.4498 23.2617 14.7344C23.2617 11.0189 26.2846 7.99609 30 7.99609C33.7154 7.99609 36.7383 11.0189 36.7383 14.7344C36.7383 18.4498 33.7154 21.4727 30 21.4727Z" fill="#FFE4C2"/>
<path d="M30 7.99609V21.4727C33.7155 21.4727 36.7383 18.4499 36.7383 14.7344C36.7383 11.0188 33.7155 7.99609 30 7.99609Z" fill="#F2D1A5"/>
<path d="M31.1719 60.9648H28.8281C25.9157 60.9648 23.5547 58.6039 23.5547 55.6914V53.1133C23.5547 52.1425 24.3417 51.3555 25.3125 51.3555H34.6875C35.6583 51.3555 36.4453 52.1425 36.4453 53.1133V55.6914C36.4453 58.6039 34.0843 60.9648 31.1719 60.9648Z" fill="#5F55AF"/>
<path d="M36.4453 55.6914V53.1133C36.4453 52.1425 35.6583 51.3555 34.6875 51.3555H30V60.9648H31.1719C34.0843 60.9648 36.4453 58.6039 36.4453 55.6914Z" fill="#453D83"/>
<path d="M21.2109 45.5898V50.7695C21.2109 53.0311 23.0509 54.8711 25.3125 54.8711H34.6875C36.9491 54.8711 38.7891 53.0311 38.7891 50.7695V45.5898H21.2109Z" fill="#BEEBFA"/>
<path d="M30 54.8711H34.6875C36.9491 54.8711 38.7891 53.0311 38.7891 50.7695V45.5898H30V54.8711Z" fill="#9EE2F8"/>
<path d="M54.7283 9.75446C54.1603 9.75446 53.6028 9.47953 53.2641 8.97141C52.7256 8.16364 52.9439 7.07227 53.7517 6.53379L57.2673 4.19004C58.075 3.65133 59.1664 3.86977 59.7049 4.67754C60.2434 5.48532 60.0251 6.57668 59.2173 7.11516L55.7017 9.45891C55.4021 9.65883 55.0634 9.75446 54.7283 9.75446Z" fill="#FFDE55"/>
<path d="M58.2408 39.0511C57.9057 39.0511 57.567 38.9555 57.2673 38.7557L53.7517 36.412C52.9439 35.8735 52.7256 34.7821 53.2641 33.9743C53.8027 33.1665 54.8941 32.9484 55.7017 33.4868L59.2173 35.8306C60.0251 36.3691 60.2434 37.4604 59.7049 38.2682C59.3662 38.7762 58.8087 39.0511 58.2408 39.0511Z" fill="#FFDE55"/>
<path d="M5.27203 9.75432C4.93699 9.75432 4.5982 9.65869 4.29855 9.45889L0.782927 7.11514C-0.0248463 6.57666 -0.243167 5.48529 0.29531 4.67752C0.833904 3.86963 1.92539 3.65143 2.73293 4.19002L6.24855 6.53377C7.05633 7.07225 7.27465 8.16361 6.73617 8.97139C6.3975 9.4794 5.84004 9.75432 5.27203 9.75432Z" fill="#FFF79F"/>
<path d="M1.75957 39.0513C1.19156 39.0513 0.634099 38.7764 0.29531 38.2683C-0.243167 37.4605 -0.0248463 36.3691 0.782927 35.8307L4.29855 33.4869C5.10621 32.9482 6.19769 33.1666 6.73617 33.9744C7.27465 34.7822 7.05633 35.8736 6.24855 36.412L2.73293 38.7558C2.4334 38.9557 2.09461 39.0513 1.75957 39.0513Z" fill="#FFF79F"/>
<path d="M5.27344 23.2305H1.75781C0.787031 23.2305 0 22.4434 0 21.4727C0 20.5019 0.787031 19.7148 1.75781 19.7148H5.27344C6.24422 19.7148 7.03125 20.5019 7.03125 21.4727C7.03125 22.4434 6.24422 23.2305 5.27344 23.2305Z" fill="#FFF79F"/>
<path d="M58.2422 23.2305H54.7266C53.7558 23.2305 52.9688 22.4434 52.9688 21.4727C52.9688 20.5019 53.7558 19.7148 54.7266 19.7148H58.2422C59.213 19.7148 60 20.5019 60 21.4727C60 22.4434 59.213 23.2305 58.2422 23.2305Z" fill="#FFDE55"/>
</g>
<defs>
<clipPath id="clip0_483_12008">
<rect width="60" height="60" fill="white" transform="translate(0 0.964844)"/>
</clipPath>
</defs>
</svg>
