<svg width="62" height="77" viewBox="0 0 62 77" fill="none" xmlns="http://www.w3.org/2000/svg">
<path d="M48.0328 56.1484L51.3605 62.1143L47.5365 64.2475L44.209 58.2818C44.85 57.942 45.4918 57.5947 46.133 57.2365C46.7746 56.8787 47.407 56.5162 48.0328 56.1484Z" fill="#666666"/>
<path d="M16.4703 4.05828C31.2182 -4.16789 49.8441 1.11942 58.0705 15.8673C66.2967 30.6149 61.0092 49.2403 46.2613 57.4665C31.5133 65.6927 12.8885 60.4055 4.66211 45.6577C-3.56425 30.9098 1.72227 12.2841 16.4703 4.05828Z" fill="#666666"/>
<path d="M18.4013 7.51858C31.2384 0.358426 47.4503 4.96038 54.6105 17.7975C61.771 30.6346 57.169 46.8465 44.3321 54.0071C31.4946 61.1676 15.2829 56.5657 8.12218 43.7287C0.961827 30.8916 5.56398 14.6791 18.4013 7.51858Z" fill="#D9DADA"/>
<path d="M59.999 71.7359L55.4906 63.6537C55.0254 62.8195 53.9738 62.5097 53.1633 62.9617L47.3082 66.2279C46.4985 66.6797 46.2117 67.7408 46.6748 68.5715L51.2287 76.7359C54.3307 75.3613 57.2674 73.6838 59.999 71.7359Z" fill="#666666"/>
<path d="M56.1569 64.8472L54.7032 62.2403C54.2379 61.4065 53.1897 61.0946 52.3762 61.5483L46.5207 64.8143C45.7082 65.2679 45.4223 66.3247 45.8869 67.1579L47.341 69.7649L56.1569 64.8472Z" fill="#FEFEFE"/>
<path d="M56.1568 64.8467L54.7031 62.24C54.258 61.4414 53.2781 61.1222 52.4809 61.4947L54.7793 65.615L56.1568 64.8467ZM46.4201 64.8756C45.6854 65.3572 45.442 66.3592 45.8869 67.157L47.341 69.764L48.7182 68.9959L46.4201 64.8756Z" fill="#ECF0F1"/>
<path d="M41.908 54.852C29.8666 60.6389 15.0766 55.827 8.27894 43.6398C1.4807 31.4525 5.15688 16.34 16.4077 9.13477C15.3487 10.1197 14.3864 11.1857 13.5223 12.3182C6.52895 20.2725 5.02055 32.2947 10.6202 42.3336C16.2198 52.3725 27.2418 57.4055 37.6838 55.6344C39.1012 55.4943 40.5139 55.2353 41.908 54.852Z" fill="#FEFEFE"/>
<path d="M47.4129 49.3606C57.3504 42.9528 60.3498 29.1263 54.0246 17.7866C47.6998 6.44717 34.3594 1.73545 23.6855 6.82431C23.9576 6.75302 24.2311 6.6872 24.5041 6.62646C34.8256 2.8747 47.0254 7.67256 52.9893 18.3647C58.9527 29.0562 56.6258 41.9573 48.0109 48.7687C47.8152 48.9692 47.616 49.1671 47.4129 49.3606Z" fill="#FEFEFE"/>
<path d="M27.4084 28.3887C30.0459 28.3887 32.6834 28.3887 35.3205 28.3887L35.3639 28.9295L31.4973 34.791L27.3438 28.8715L27.4084 28.3887Z" fill="#B3B3B3"/>
<path d="M27.4594 26.918L27.391 30.2248L21.7812 33.2922V44.5365H31.2242H40.6664V33.2922L35.4531 30.0516L35.167 26.7461L27.4594 26.918Z" fill="#F0BA7D"/>
<path d="M24.869 17.2752C24.869 17.2752 24.5475 16.5682 23.6839 16.9189C22.8204 17.2689 23.7231 20.7613 24.0528 21.2484C24.3825 21.7353 24.9136 21.426 25.1069 21.407C25.3817 23.4889 25.4061 24.9238 26.2399 25.8014C27.0292 26.6328 28.8366 28.3268 29.7886 28.9176C30.4335 29.0535 30.9143 29.1338 31.3667 29.1576C31.819 29.1338 32.3005 29.0535 32.945 28.9176C33.897 28.3268 35.7044 26.6328 36.4936 25.8014C37.327 24.9238 37.3516 23.4889 37.6264 21.407C37.8198 21.426 38.3509 21.7353 38.6806 21.2484C39.011 20.7613 39.9136 17.2689 39.0495 16.9189C38.1858 16.5684 37.8641 17.2752 37.8641 17.2752C37.8641 17.2752 38.7177 14.5332 37.2005 11.8336C36.1606 9.98301 33.7888 9.02344 31.3665 8.95312C28.9442 9.02344 26.5725 9.9832 25.5325 11.8336C24.0155 14.5334 24.869 17.2752 24.869 17.2752Z" fill="#FED298"/>
<path d="M24.6412 31.1969L25.9846 30.6678L27.067 29.6949L30.8897 32.5943H31.8416L35.6654 29.6914L38.0908 31.1971L42.3057 38.3613L39.0064 56.2611C34.3879 57.6498 29.5713 57.7207 25.0502 56.6154L19.1328 38.9334L24.6412 31.1969Z" fill="#15BDB2"/>
<path d="M36.8627 30.2914L35.3197 28.3887L31.8398 32.5949L34.8268 35.9135L36.8627 30.2914Z" fill="#21D0C3"/>
<path d="M25.8633 30.2578L27.4084 28.3887L30.8885 32.5949L27.783 35.8793L25.8633 30.2578Z" fill="#21D0C3"/>
<path d="M25.8637 30.2578L15.6354 33.5842C15.2193 33.7191 14.958 34.0728 14.8736 34.5019L12.0059 49.035C14.0047 51.1559 16.31 52.9 18.8121 54.2352L20.2154 49.6559C20.2324 49.6004 20.2857 49.5652 20.3441 49.5721C20.4018 49.5793 20.4463 49.6254 20.4496 49.6838L20.6547 55.1285C24.0193 56.6047 27.6703 57.3779 31.3654 57.3814V55.6004L25.8637 30.2578Z" fill="white"/>
<path d="M36.8639 30.291L47.0953 33.5838C47.5123 33.7178 47.7721 34.0725 47.8568 34.5016L50.725 49.0357C48.9059 50.9619 46.7674 52.6473 44.3309 54.0062C44.1934 54.0828 44.0551 54.1563 43.9166 54.2305L42.5148 49.6555C42.4975 49.5998 42.4439 49.5645 42.3859 49.5715C42.3279 49.5787 42.284 49.625 42.2805 49.6836L42.0758 55.1277C38.6137 56.6547 34.9687 57.3836 31.3652 57.3807V55.5996L36.8639 30.291Z" fill="white"/>
<path d="M32.5252 55.4805C32.1803 55.4805 31.9004 55.7594 31.9004 56.1031C31.9004 56.4478 32.1803 56.7266 32.5252 56.7266C32.8701 56.7266 33.15 56.4478 33.15 56.1031C33.15 55.7596 32.8699 55.4805 32.5252 55.4805Z" fill="#D9DADA"/>
<path d="M37.118 18.0923L37.7196 18.0714L37.9129 17.3847L38.4801 16.8189C38.8544 13.9995 38.9649 9.61144 36.1667 9.738C36.1667 9.738 35.9141 6.538 30.8663 7.16554C25.818 7.79327 23.5366 11.0517 23.8088 13.771C24.0809 16.4896 23.9708 16.8191 23.9708 16.8191L24.5378 17.3849L24.6231 18.1663L25.1186 18.1353C25.1186 18.1353 25.2737 17.0892 25.4288 16.629C25.5846 16.1691 25.536 15.2382 25.536 15.2382C25.536 15.2382 31.4985 15.6181 33.1096 13.5685C34.1049 12.3032 36.3901 10.1097 36.5057 13.1472C36.5399 14.0476 36.2051 15.3976 36.8456 16.3804C37.4872 17.3628 37.1182 18.0923 37.118 18.0923Z" fill="#666666"/>
<path d="M31.3658 55.6006L32.9777 48.1822L31.8828 33.5588L32.4793 33.3041L31.8414 32.5957H30.8895L30.235 33.2877L30.849 33.5588L29.7812 48.3006L31.3658 55.6006Z" fill="#0F7986"/>
<path d="M32.4697 55.4805C32.1553 55.4805 31.9004 55.7344 31.9004 56.0477C31.9004 56.3613 32.1551 56.6154 32.4697 56.6154C32.7834 56.6154 33.0385 56.3613 33.0385 56.0477C33.0387 55.7346 32.7834 55.4805 32.4697 55.4805Z" fill="white"/>
<path d="M41.3887 46.0905C40.2809 45.8995 39.5377 44.846 39.7293 43.7384C39.9205 42.631 40.9735 41.8876 42.0815 42.0788C43.1893 42.27 43.9322 43.3237 43.7406 44.4314C43.5496 45.5384 42.4963 46.2815 41.3887 46.0905Z" fill="#FEFEFE"/>
<path d="M41.4096 45.972C40.366 45.7924 39.6662 44.8008 39.8467 43.7574C40.0268 42.7138 41.0186 42.014 42.0617 42.1943C43.1053 42.3744 43.8047 43.3662 43.6246 44.4095C43.4446 45.4531 42.4526 46.1523 41.4096 45.972Z" fill="#0F7986"/>
<path d="M41.5557 45.1294C40.9786 45.0298 40.5917 44.4806 40.6915 43.9035C40.7909 43.3263 41.3397 42.9396 41.9165 43.039C42.494 43.139 42.8807 43.6873 42.7811 44.2648C42.6821 44.8418 42.1333 45.2293 41.5557 45.1294Z" fill="#EBECEC"/>
<path d="M41.6797 43.1529L42.1459 43.2332L42.3961 41.7816L41.9305 41.7012L41.6797 43.1529Z" fill="#FEFEFE"/>
<path d="M26.0694 46.4917L26.9426 46.3185C27.3137 46.2448 27.6211 46.0261 27.817 45.7331C28.0127 45.4403 28.0977 45.0728 28.0239 44.7017L26.9967 39.5271C26.6092 37.5743 25.0817 36.5784 23.3362 36.3575C22.6674 36.2732 21.966 36.3038 21.2866 36.4384C20.6067 36.5728 19.9475 36.8118 19.3621 37.1456C17.8371 38.014 16.8092 39.5157 17.1977 41.4718L18.2248 46.6466C18.2983 47.0179 18.5174 47.3247 18.81 47.5206H18.8108C19.1041 47.7165 19.4709 47.8013 19.8422 47.7274L20.7145 47.5546L20.6434 47.1946L19.7703 47.3679C19.4983 47.422 19.2285 47.3599 19.0141 47.2163C18.7993 47.0718 18.6387 46.8472 18.5844 46.5751L17.5573 41.4001C17.2051 39.6255 18.1467 38.2579 19.5424 37.4636C20.0934 37.1491 20.7157 36.9233 21.3578 36.7962C22 36.669 22.661 36.6403 23.291 36.7198C24.8885 36.922 26.2858 37.8271 26.6373 39.5983L27.6647 44.7731C27.7184 45.0444 27.6561 45.3142 27.5127 45.5288C27.3686 45.7439 27.1438 45.9044 26.8715 45.9585L25.9983 46.1315L26.0694 46.4917Z" fill="#21D0C3"/>
<path d="M27.275 40.2941L27.1181 39.504C26.7187 37.4907 25.1468 36.4642 23.3525 36.2374C22.6707 36.1515 21.9566 36.1823 21.2644 36.3193C20.5724 36.4566 19.9005 36.7003 19.3037 37.0402C17.7351 37.9335 16.6791 39.4798 17.0793 41.4964L17.2359 42.287L17.8357 42.1677L17.6785 41.3771C17.3386 39.663 18.2517 38.3398 19.6035 37.5698C20.1441 37.2622 20.7535 37.0413 21.3832 36.9165C22.0125 36.7917 22.6607 36.7636 23.2781 36.8415C24.8257 37.0372 26.1793 37.912 26.5187 39.6226L26.6753 40.4132L27.275 40.2941Z" fill="#4D4D4D"/>
<path d="M20.0229 47.771L20.4902 47.6782C20.6074 47.8101 20.7889 47.8775 20.9738 47.8407C21.252 47.7857 21.4324 47.5153 21.3771 47.237C21.3223 46.9599 21.0523 46.779 20.7736 46.8341C20.5889 46.871 20.4467 47.0028 20.3889 47.1694L19.9219 47.262L20.0229 47.771Z" fill="#076673"/>
<path d="M26.4408 46.4972L25.9744 46.5899C25.9162 46.7562 25.7744 46.8884 25.5892 46.9249C25.3113 46.9798 25.0415 46.7991 24.9865 46.521C24.9314 46.2436 25.1117 45.9735 25.3894 45.9181C25.5745 45.8813 25.7564 45.9497 25.873 46.0806L26.34 45.988L26.4408 46.4972Z" fill="#076673"/>
<path d="M21.5478 36.2728L21.3697 35.375L21.0158 35.4453L20.6621 35.5152L20.8422 36.4217C20.9771 36.3822 21.1139 36.349 21.2516 36.3217C21.3494 36.3023 21.4484 36.2859 21.5478 36.2728Z" fill="#666666"/>
<path d="M20.783 47.2729C20.8674 47.2561 20.9219 47.1741 20.9049 47.0903C20.8883 47.0061 20.8071 46.9512 20.7227 46.9678C20.6387 46.9852 20.584 47.0666 20.6006 47.1506C20.6176 47.2344 20.6991 47.2891 20.783 47.2729Z" fill="#0F7986"/>
<path d="M25.4028 46.354C25.4864 46.3376 25.5411 46.256 25.5245 46.1722C25.5077 46.0878 25.4263 46.0331 25.3419 46.0499C25.2577 46.0665 25.203 46.1483 25.2198 46.2325C25.2368 46.3165 25.3183 46.3708 25.4028 46.354Z" fill="#0F7986"/>
<path d="M41.4986 45.1187C40.9527 45.0245 40.5865 44.505 40.6808 43.9595C40.775 43.4136 41.2937 43.0476 41.8396 43.1417C42.3855 43.2359 42.7515 43.7548 42.6576 44.3005C42.5631 44.8462 42.0439 45.2128 41.4986 45.1187Z" fill="#FEFEFE"/>
<path d="M25.8698 30.5266C25.854 30.527 20.3411 30.5725 21.2727 35.3955L20.7594 35.4936C19.7098 30.0561 25.8462 30.0063 25.8637 30.0059L25.8698 30.5266Z" fill="#4D4D4D"/>
<path d="M36.8719 30.0312C37.7711 30.0557 39.5102 30.301 40.848 31.9287C42.1578 33.5219 43.076 36.4477 42.3895 41.8115L41.8723 41.7465C42.5367 36.5545 41.6785 33.759 40.4455 32.26C39.2416 30.7949 37.6713 30.574 36.8594 30.5521L36.8719 30.0312Z" fill="#4D4D4D"/>
</svg>
