<svg width="64" height="64" viewBox="0 0 64 64" fill="none" xmlns="http://www.w3.org/2000/svg">
<g clip-path="url(#clip0_508_3946)">
<path d="M52.4051 19.9707C54.5383 19.9707 56.2673 21.6997 56.2673 23.8328V39.2814H48.543V23.8328C48.543 21.6997 50.2719 19.9707 52.4051 19.9707Z" fill="#FF876C"/>
<path d="M56.2645 11.6035C54.1313 11.6035 52.4023 13.3325 52.4023 15.4657V30.9142H60.1266V15.4657C60.1266 13.3323 58.3977 11.6035 56.2645 11.6035Z" fill="#FF9E90"/>
<path d="M60.1272 7.74219C59.5466 7.74219 58.9956 7.87093 58.5012 8.10137L56.8083 40.4056L49.8281 56.9202L62.9446 38.461C63.5599 37.5953 63.9893 35.968 63.9893 34.9059V11.6043C63.9893 9.47114 62.2604 7.74219 60.1272 7.74219Z" fill="#FF9E90"/>
<path d="M60.1282 11.6045V36.8372C60.1282 37.8993 59.7935 39.5047 59.3841 40.4058L49.8291 56.9204V64.001H33.9414V60.1388L38.1139 45.518L56.266 30.9153V11.6045C56.266 10.0519 57.1814 8.71436 58.5022 8.10156C59.4626 8.71436 60.1282 10.0532 60.1282 11.6045Z" fill="#FFB4B3"/>
<path d="M49.6739 28.1824C51.1814 26.6736 53.6274 26.6736 55.1349 28.1824C55.8893 28.9355 56.2665 29.9242 56.2665 30.9129C56.2665 31.9016 55.8893 32.8903 55.1349 33.6435L41.6657 47.114V52.4126C41.6657 56.6609 38.1898 60.1369 33.9414 60.1369V47.123C33.9414 44.9898 34.8014 43.0549 36.1982 41.6568L49.6739 28.1824Z" fill="#FFCAD6"/>
<path d="M11.5926 19.9707C9.45942 19.9707 7.73047 21.6997 7.73047 23.8328V39.2814H15.4548V23.8328C15.4548 21.6997 13.7258 19.9707 11.5926 19.9707Z" fill="#FF876C"/>
<path d="M7.73324 11.6035C5.60005 11.6035 3.87109 13.3325 3.87109 15.4657V30.9142H11.5954V15.4657C11.5954 13.3325 9.86643 11.6035 7.73324 11.6035Z" fill="#FF9E90"/>
<path d="M30.0552 60.1386V64.0008H26.193L18.4688 48.5176L30.0552 60.1386Z" fill="#FF9E90"/>
<path d="M27.7987 41.6585L14.3239 28.1841C13.5038 27.3627 12.4057 26.9894 11.332 27.0615L26.1933 59.0971C27.3314 59.7588 28.6509 60.1386 30.0555 60.1386V47.1247C30.0555 44.9915 29.1955 43.0566 27.7987 41.6585Z" fill="#FFB4B3"/>
<path d="M25.2405 46.1705L7.7321 30.9151V11.6043C7.7321 9.47114 6.00315 7.74219 3.86996 7.74219C1.73677 7.74219 0.0078125 9.47114 0.0078125 11.6043V34.9059C0.0078125 35.968 0.437283 37.5953 1.05252 38.461L14.169 56.9202V64.0008H26.1947V59.0971L25.2405 46.1705Z" fill="#FFB4B3"/>
<path d="M26.1935 47.1237V59.0961C23.889 57.756 22.3313 55.2572 22.3313 52.4133V47.1147L8.86208 33.6442C8.10767 32.8911 7.73047 31.9024 7.73047 30.9137C7.73047 29.925 8.10767 28.9363 8.86208 28.1831C9.54825 27.4957 10.4314 27.1211 11.3313 27.0605C12.0741 27.1211 12.804 27.4957 13.3718 28.1831L24.3293 41.6575C25.4841 43.0556 26.1935 44.9906 26.1935 47.1237Z" fill="#FFCAD6"/>
<path d="M39.6289 10.4987L41.4295 0L37.1846 2.23168L30.6172 14.3609L43.8955 18.4223L47.2566 17.9339L39.6289 10.4987Z" fill="#FF9441"/>
<path d="M37.1812 2.23168L31.9977 4.95681L22.5693 0L24.3699 10.4987L16.7422 17.9339L27.2835 19.4656L31.9977 29.0176L36.7119 19.4656L43.892 18.4223L35.7633 10.4987L37.1812 2.23168Z" fill="#FFB739"/>
</g>
<defs>
<clipPath id="clip0_508_3946">
<rect width="64" height="64" fill="white"/>
</clipPath>
</defs>
</svg>
