<svg width="64" height="64" viewBox="0 0 64 64" fill="none" xmlns="http://www.w3.org/2000/svg">
<path fill-rule="evenodd" clip-rule="evenodd" d="M5.25925 1.25H36.6199V9.75675C36.6199 11.4489 37.9947 12.8239 39.687 12.8239H48.1937V36.8936C40.3641 36.8937 34.0159 43.242 34.0159 51.0716C34.0159 53.2094 34.4901 55.2361 35.3376 57.054H5.25925C4.63462 57.054 4.125 56.5445 4.125 55.9199V2.38425C4.12513 1.7595 4.63462 1.25 5.25925 1.25V1.25ZM39.12 1.34837V9.75688C39.12 10.0693 39.3748 10.324 39.6871 10.324H48.0956C48.0406 10.2035 47.9626 10.0926 47.8617 9.99175L39.4522 1.58225C39.3512 1.48138 39.2404 1.40337 39.12 1.34837V1.34837ZM30.8053 41.2365H14.8106C14.1843 41.2365 13.6764 41.7444 13.6764 42.3708C13.6764 42.9971 14.1843 43.505 14.8106 43.505H30.8053C31.4316 43.505 31.9395 42.9971 31.9395 42.3708C31.9394 41.7444 31.4316 41.2365 30.8053 41.2365ZM30.8053 48.1399H14.8106C14.1843 48.1399 13.6764 48.6477 13.6764 49.2741C13.6764 49.9005 14.1843 50.4084 14.8106 50.4084H30.8053C31.4316 50.4084 31.9395 49.9005 31.9395 49.2741C31.9394 48.6477 31.4316 48.1399 30.8053 48.1399ZM37.5084 34.3332H14.8106C14.1843 34.3332 13.6764 34.8411 13.6764 35.4675C13.6764 36.0939 14.1843 36.6017 14.8106 36.6017H37.5082C38.1346 36.6017 38.6425 36.0939 38.6425 35.4675C38.6425 34.841 38.1348 34.3332 37.5084 34.3332V34.3332ZM23.5557 10.7943C23.2434 10.7943 22.9886 11.049 22.9886 11.3612V15.563H18.787C18.4746 15.563 18.2199 15.8178 18.2199 16.1301V21.3376C18.2199 21.65 18.4746 21.9046 18.787 21.9046H22.9886V26.1064C22.9886 26.4187 23.2434 26.6735 23.5557 26.6735H28.7633C29.0756 26.6735 29.3304 26.4187 29.3304 26.1064V21.9046H33.5321C33.8445 21.9046 34.0991 21.6499 34.0991 21.3376V16.1301C34.0991 15.8178 33.8444 15.563 33.5321 15.563H29.3304V11.3614C29.3304 11.049 29.0756 10.7944 28.7633 10.7944H23.5557V10.7943ZM59.8721 51.0716C59.8721 44.6216 54.6435 39.3936 48.194 39.3936C41.744 39.3936 36.5159 44.6217 36.5159 51.0716C36.5159 57.5211 41.744 62.7497 48.194 62.7497C54.6435 62.7497 59.8721 57.5211 59.8721 51.0716V51.0716ZM49.4639 57.6237C50.1125 57.4367 50.697 57.111 51.1742 56.6847C51.9839 55.9617 52.4847 54.9552 52.4847 53.837C52.4847 52.7186 51.9839 51.7123 51.1742 50.9893C50.401 50.2988 49.3465 49.8716 48.194 49.8716C47.6671 49.8716 47.2013 49.6907 46.874 49.3986C46.5833 49.139 46.4033 48.7876 46.4033 48.4062C46.4033 48.025 46.5831 47.6736 46.874 47.414C47.2046 47.1187 47.6709 46.936 48.194 46.936C48.4485 46.936 48.6965 46.9831 48.9271 47.0685C49.1546 47.1526 49.3536 47.2707 49.514 47.4141C50.0264 47.8726 50.8134 47.8289 51.2719 47.3165C51.7302 46.8041 51.6866 46.0171 51.1742 45.5586C50.774 45.2011 50.3031 44.9159 49.7865 44.7248C49.6666 44.6804 49.5436 44.641 49.4177 44.6068L49.403 43.9878C49.3869 43.3001 48.8162 42.7557 48.1286 42.7719C47.441 42.788 46.8966 43.3586 46.9128 44.0462L46.9265 44.6221C46.2755 44.8081 45.6901 45.133 45.2138 45.5585C44.4041 46.2815 43.9033 47.288 43.9033 48.4062C43.9033 49.5246 44.4041 50.531 45.2138 51.254C45.987 51.9445 47.0415 52.3716 48.194 52.3716C48.7209 52.3716 49.1867 52.5524 49.514 52.8446C49.8047 53.1042 49.9847 53.4556 49.9847 53.8369C49.9847 54.2181 49.8049 54.5695 49.514 54.8291C49.1867 55.1214 48.7209 55.3021 48.194 55.3021C47.8281 55.3021 47.5645 55.2422 47.3451 55.1312C47.0842 54.9994 46.8167 54.7716 46.5044 54.4769C46.0027 54.005 45.2135 54.029 44.7416 54.5306C44.2697 55.0322 44.2937 55.8215 44.7954 56.2934C45.2629 56.7344 45.6931 57.0903 46.222 57.3579C46.4609 57.4788 46.7084 57.5762 46.9726 57.6489L46.9849 58.1555C47.001 58.8431 47.5716 59.3875 48.2592 59.3714C48.9469 59.3552 49.4913 58.7846 49.4751 58.097L49.4639 57.6237Z" fill="white"/>
</svg>
