<svg width="64" height="64" viewBox="0 0 64 64" fill="none" xmlns="http://www.w3.org/2000/svg">
<path d="M48.022 2.92188H8.62695V58.9219H48.022V2.92188Z" fill="#FDFEFF"/>
<path d="M44.6179 8.19922H19.4629V9.19922H44.6179V8.19922Z" fill="#D2D2D4"/>
<path d="M44.6179 10.8652H19.4629V11.8652H44.6179V10.8652Z" fill="#D2D2D4"/>
<path d="M44.6179 16.8047H19.4629V17.8047H44.6179V16.8047Z" fill="#D2D2D4"/>
<path d="M44.6179 19.4707H19.4629V20.4707H44.6179V19.4707Z" fill="#D2D2D4"/>
<path d="M44.6179 25.4102H19.4629V26.4102H44.6179V25.4102Z" fill="#D2D2D4"/>
<path d="M44.6179 28.0762H19.4629V29.0762H44.6179V28.0762Z" fill="#D2D2D4"/>
<path d="M44.6179 34.0156H19.4629V35.0156H44.6179V34.0156Z" fill="#D2D2D4"/>
<path d="M44.6179 36.6816H19.4629V37.6816H44.6179V36.6816Z" fill="#D2D2D4"/>
<path d="M44.6179 42.6211H19.4629V43.6211H44.6179V42.6211Z" fill="#D2D2D4"/>
<path d="M44.6179 45.2852H19.4629V46.2852H44.6179V45.2852Z" fill="#D2D2D4"/>
<path d="M16.6448 7.72461H12.0293V12.3401H16.6448V7.72461Z" fill="#70B1E1"/>
<path d="M16.6448 16.3301H12.0293V20.9456H16.6448V16.3301Z" fill="#70B1E1"/>
<path d="M16.6448 24.9355H12.0293V29.551H16.6448V24.9355Z" fill="#70B1E1"/>
<path d="M16.6448 33.541H12.0293V38.1565H16.6448V33.541Z" fill="#70B1E1"/>
<path d="M16.6448 42.1465H12.0293V46.762H16.6448V42.1465Z" fill="#70B1E1"/>
<path d="M44.1899 61.0789C50.3666 61.0789 55.3739 56.0717 55.3739 49.8949C55.3739 43.7182 50.3666 38.7109 44.1899 38.7109C38.0131 38.7109 33.0059 43.7182 33.0059 49.8949C33.0059 56.0717 38.0131 61.0789 44.1899 61.0789Z" fill="#D64331"/>
<path d="M44.1894 58.9745C49.2041 58.9745 53.2694 54.9092 53.2694 49.8945C53.2694 44.8797 49.2041 40.8145 44.1894 40.8145C39.1746 40.8145 35.1094 44.8797 35.1094 49.8945C35.1094 54.9092 39.1746 58.9745 44.1894 58.9745Z" fill="#F1592F"/>
<path d="M42.87 54.0872L38.4355 49.6527L39.749 48.3387L42.87 51.4592L48.6275 45.7012L49.9415 47.0152L42.87 54.0872Z" fill="#FDFEFF"/>
</svg>
