<svg width="62" height="75" viewBox="0 0 62 75" fill="none" xmlns="http://www.w3.org/2000/svg">
<path d="M12.5422 8.91211L0.941406 20.5129V74.2221H53.4541V8.91211H12.5422Z" fill="white"/>
<path d="M53.4527 8.91211H28.918V74.2221H53.4527V8.91211Z" fill="#E9EDF5"/>
<path d="M12.5439 20.5129L12.5463 8.91211L0.945312 20.5131L12.5439 20.5129Z" fill="#87C7FF"/>
<path d="M15.3223 42.6113C20.624 42.6113 24.9219 38.3134 24.9219 33.0117C24.9219 27.71 20.624 23.4121 15.3223 23.4121C10.0205 23.4121 5.72266 27.71 5.72266 33.0117C5.72266 38.3134 10.0205 42.6113 15.3223 42.6113Z" fill="#2864F0"/>
<path d="M15.3246 35.2059C17.603 35.2059 19.45 33.3589 19.45 31.0805C19.45 28.8021 17.603 26.9551 15.3246 26.9551C13.0462 26.9551 11.1992 28.8021 11.1992 31.0805C11.1992 33.3589 13.0462 35.2059 15.3246 35.2059Z" fill="#DBEEFF"/>
<path d="M15.324 42.6098C17.876 42.6098 20.1904 41.5992 21.8941 39.9586C20.8559 37.3461 18.3066 35.498 15.324 35.498C12.3414 35.498 9.79238 37.3459 8.75391 39.9586C10.4576 41.5992 12.7721 42.6098 15.324 42.6098Z" fill="#DBEEFF"/>
<path d="M6.30078 54.8691L48.0977 54.8691L48.0977 50.5068L6.30078 50.5068L6.30078 54.8691Z" fill="#A3D4FF"/>
<path d="M48.0986 50.5059H28.9219V54.8682H48.0986V50.5059Z" fill="#87C7FF"/>
<path d="M6.30078 62.9414L48.0977 62.9414L48.0977 58.5791L6.30078 58.5791L6.30078 62.9414Z" fill="#A3D4FF"/>
<path d="M48.0986 58.5781H28.9219V62.9402H48.0986V58.5781Z" fill="#87C7FF"/>
<path d="M54.8864 5.80562L20.2109 12.6191L26.3645 43.9357L61.0399 37.1222L54.8864 5.80562Z" fill="#FFCE00"/>
<path d="M54.8863 5.80469L41.2422 8.48574V41.0127L61.0404 37.1223L54.8863 5.80469Z" fill="#FFA300"/>
<path d="M41.2354 25.5006C36.3863 25.5006 32.4414 21.5557 32.4414 16.7066H38.3008C38.3008 18.3248 39.6172 19.6412 41.2354 19.6412C42.8535 19.6412 44.1699 18.3248 44.1699 16.7066V8.94043C44.1699 7.32227 42.8535 6.00586 41.2354 6.00586C39.6172 6.00586 38.3008 7.32227 38.3008 8.94043H32.4414C32.4414 4.09141 36.3863 0.146484 41.2354 0.146484C46.0844 0.146484 50.0293 4.09141 50.0293 8.94043V16.7066C50.0293 21.5557 46.0844 25.5006 41.2354 25.5006Z" fill="#2864F0"/>
<path d="M41.2422 0.146484V6.00605C42.8561 6.01133 44.1674 7.32519 44.1674 8.94023V16.7064C44.1674 18.3213 42.8561 19.6354 41.2422 19.6404V25.5C46.0869 25.4949 50.0268 21.5521 50.0268 16.7064V8.94023C50.0268 4.09453 46.0869 0.151758 41.2422 0.146484Z" fill="#27488F"/>
</svg>
