<svg width="64" height="64" viewBox="0 0 64 64" fill="none" xmlns="http://www.w3.org/2000/svg">
<path d="M28.332 56.9102H35.7553V57.5479H28.332V56.9102Z" fill="#344D5B"/>
<path d="M29.1523 55.0469V57.9661C29.1523 58.411 29.513 58.7716 29.9579 58.7716H34.1278C34.5726 58.7716 34.9333 58.411 34.9333 57.9661V55.0469H29.1523Z" fill="#293B44"/>
<path d="M40.6736 7.07331C40.4061 6.95421 40.0927 7.07454 39.9736 7.34202L38.8311 9.908C38.712 10.1755 38.8323 10.4889 39.0998 10.608C39.3674 10.7271 39.6808 10.6068 39.7999 10.3393L40.9423 7.77333C41.0614 7.50584 40.9411 7.19242 40.6736 7.07331V7.07331Z" fill="#64798A"/>
<path d="M47.8475 12.2848C47.6516 12.0672 47.3163 12.0496 47.0987 12.2456L45.0114 14.125C44.7938 14.3209 44.7762 14.6562 44.9721 14.8738C45.1681 15.0914 45.5033 15.109 45.7209 14.9131L47.8083 13.0336C48.0259 12.8377 48.0435 12.5024 47.8475 12.2848V12.2848Z" fill="#64798A"/>
<path d="M52.2802 19.9661C52.1897 19.6876 51.8905 19.5352 51.6121 19.6257L48.9407 20.4937C48.6622 20.5842 48.5098 20.8833 48.6003 21.1618C48.6908 21.4403 48.9899 21.5927 49.2684 21.5022L51.9397 20.6342C52.2182 20.5437 52.3706 20.2446 52.2802 19.9661Z" fill="#64798A"/>
<path d="M53.2103 28.7855C53.2409 28.4943 53.0297 28.2334 52.7385 28.2028L49.945 27.9092C49.6538 27.8786 49.3929 28.0898 49.3623 28.3811C49.3317 28.6723 49.543 28.9332 49.8342 28.9638L52.6276 29.2574C52.9188 29.288 53.1797 29.0767 53.2103 28.7855Z" fill="#64798A"/>
<path d="M50.4688 37.2193C50.6153 36.9657 50.5283 36.6415 50.2748 36.4951L47.8423 35.0907C47.5887 34.9443 47.2644 35.0311 47.118 35.2847C46.9716 35.5383 47.0585 35.8626 47.3121 36.009L49.7446 37.4134C49.9981 37.5598 50.3224 37.4729 50.4688 37.2193V37.2193Z" fill="#64798A"/>
<path d="M13.5282 37.2193C13.6746 37.4729 13.9988 37.5598 14.2524 37.4134L16.6849 36.009C16.9385 35.8626 17.0254 35.5383 16.879 35.2847C16.7326 35.0311 16.4083 34.9443 16.1547 35.0907L13.7222 36.4951C13.4686 36.6415 13.3817 36.9657 13.5282 37.2193V37.2193Z" fill="#64798A"/>
<path d="M10.7881 28.7855C10.8187 29.0767 11.0796 29.288 11.3708 29.2574L14.1642 28.9638C14.4554 28.9332 14.6667 28.6723 14.6361 28.3811C14.6055 28.0898 14.3446 27.8786 14.0534 27.9092L11.26 28.2028C10.9688 28.2334 10.7575 28.4943 10.7881 28.7855Z" fill="#64798A"/>
<path d="M11.7136 19.9661C11.6231 20.2446 11.7755 20.5437 12.054 20.6342L14.7253 21.5022C15.0038 21.5927 15.3029 21.4403 15.3934 21.1618C15.4839 20.8833 15.3315 20.5842 15.053 20.4937L12.3817 19.6257C12.1032 19.5352 11.8041 19.6876 11.7136 19.9661Z" fill="#64798A"/>
<path d="M16.1479 12.2848C15.952 12.5024 15.9696 12.8377 16.1871 13.0336L18.2745 14.9131C18.4921 15.109 18.8273 15.0914 19.0233 14.8738C19.2192 14.6562 19.2016 14.3209 18.9841 14.125L16.8967 12.2456C16.6791 12.0496 16.3439 12.0672 16.1479 12.2848V12.2848Z" fill="#64798A"/>
<path d="M23.3225 7.07331C23.055 7.19242 22.9347 7.50584 23.0538 7.77333L24.1962 10.3393C24.3153 10.6068 24.6287 10.7271 24.8962 10.608C25.1638 10.4889 25.284 10.1755 25.165 9.908L24.0225 7.34202C23.9034 7.07454 23.59 6.95421 23.3225 7.07331V7.07331Z" fill="#64798A"/>
<path d="M31.999 5.22852C31.7061 5.22852 31.4688 5.46592 31.4688 5.75872V8.56753C31.4688 8.86033 31.7061 9.09773 31.999 9.09773C32.2918 9.09773 32.5292 8.86033 32.5292 8.56753V5.75872C32.5292 5.46592 32.2918 5.22852 31.999 5.22852Z" fill="#64798A"/>
<path d="M27.4375 50.1211V54.7738C27.4375 55.4828 28.0123 56.0576 28.7214 56.0576H35.3673C36.0764 56.0576 36.6512 55.4828 36.6512 54.7738V50.1211H27.4375Z" fill="#344D5B"/>
<path d="M48.169 25.1553C47.5048 17.2296 41.0044 10.8697 33.0672 10.3623C23.6223 9.75841 15.7734 17.2403 15.7734 26.5553C15.7734 30.8799 17.4652 34.8099 20.2249 37.7181C23.2257 40.8804 25.1678 44.8699 25.7251 49.1401C25.8355 49.9859 26.5443 50.6234 27.3973 50.6234H36.6094C37.4647 50.6234 38.1746 49.9827 38.2829 49.1342C38.8196 44.9291 40.6184 40.9487 43.6037 37.8974C46.7651 34.666 48.585 30.119 48.169 25.1553V25.1553Z" fill="#FFA500"/>
<path d="M32.001 37.8712C38.3033 37.8712 43.4122 32.7623 43.4122 26.46C43.4122 20.1578 38.3033 15.0488 32.001 15.0488C25.6988 15.0488 20.5898 20.1578 20.5898 26.46C20.5898 32.7623 25.6988 37.8712 32.001 37.8712Z" fill="#FCD462"/>
<path d="M31.6052 33.9016V32.423C30.8659 32.3299 30.2649 32.1643 29.8022 31.9261C29.3395 31.6879 28.9397 31.3032 28.6029 30.772C28.2662 30.2408 28.0704 29.5919 28.0156 28.8252L29.5024 28.546C29.6174 29.34 29.82 29.9232 30.1102 30.2956C30.5264 30.8213 31.0247 31.1142 31.6052 31.1745V26.4678C30.9973 26.3528 30.3758 26.1173 29.7406 25.7614C29.2696 25.4985 28.9069 25.1344 28.6522 24.6689C28.3976 24.2034 28.2703 23.675 28.2703 23.0836C28.2703 22.0322 28.6426 21.1806 29.3874 20.529C29.8857 20.0909 30.625 19.8226 31.6052 19.724V19.0176H32.4759V19.724C33.3356 19.8061 34.0174 20.058 34.5212 20.4797C35.1674 21.0163 35.5562 21.7529 35.6876 22.6893L34.1598 22.9193C34.0722 22.3388 33.8901 21.8939 33.6135 21.5845C33.337 21.2751 32.9578 21.0711 32.4759 20.9725V25.2357C33.2206 25.4219 33.7135 25.567 33.9544 25.671C34.4144 25.8736 34.7895 26.1201 35.0798 26.4103C35.37 26.7005 35.5931 27.0455 35.7492 27.4453C35.9053 27.845 35.9833 28.2776 35.9833 28.7431C35.9833 29.7671 35.6575 30.6214 35.0058 31.3059C34.3542 31.9904 33.5109 32.3573 32.4759 32.4066V33.9016H31.6052V33.9016ZM31.6052 20.9561C31.0302 21.0437 30.5771 21.2737 30.2458 21.6461C29.9145 22.0185 29.7488 22.4593 29.7488 22.9686C29.7488 23.4724 29.8898 23.894 30.1718 24.2335C30.4538 24.5731 30.9316 24.8441 31.6052 25.0467V20.9561ZM32.4759 31.1745C33.0509 31.1033 33.5259 30.8541 33.901 30.427C34.2761 29.9999 34.4637 29.4714 34.4637 28.8417C34.4637 28.305 34.3309 27.8738 34.0653 27.5479C33.7997 27.2221 33.2699 26.9305 32.4759 26.6731V31.1745Z" fill="#F7BE56"/>
</svg>
