<svg width="30" height="31" viewBox="0 0 30 31" fill="none" xmlns="http://www.w3.org/2000/svg">
<path d="M15 0.460938C6.72905 0.460938 0 7.1898 0 15.4609C0 23.7319 6.72905 30.4609 15 30.4609C23.271 30.4609 30 23.7319 30 15.4609C30 7.1898 23.2711 0.460938 15 0.460938ZM23.6133 12.9272L14.1895 22.3509C13.7888 22.7516 13.2562 22.9722 12.6896 22.9722C12.123 22.9722 11.5903 22.7516 11.1896 22.3509L6.38674 17.5481C5.98604 17.1474 5.76534 16.6147 5.76534 16.0481C5.76534 15.4814 5.98604 14.9487 6.38674 14.548C6.78728 14.1473 7.31992 13.9266 7.88669 13.9266C8.4533 13.9266 8.9861 14.1473 9.38664 14.5482L12.6894 17.8508L20.613 9.9272C21.0137 9.5265 21.5464 9.30596 22.113 9.30596C22.6796 9.30596 23.2123 9.5265 23.613 9.9272C24.4403 10.7546 24.4403 12.1002 23.6133 12.9272Z" fill="#D0D9E9"/>
</svg>
