<svg width="100" height="101" viewBox="0 0 100 101" fill="none" xmlns="http://www.w3.org/2000/svg">
<path d="M50 100.106C77.6142 100.106 100 77.6967 100 50.0531C100 22.4095 77.6142 0 50 0C22.3858 0 0 22.4095 0 50.0531C0 77.6967 22.3858 100.106 50 100.106Z" fill="#5869FF"/>
<path d="M39.1035 53.3105L29.1724 77.5864L36.8965 75.3794L40.2069 82.0002L50.1379 58.8278L39.1035 53.3105Z" fill="#DE4C3C"/>
<path d="M63.3792 52.207L52.3448 58.8278L62.2758 82.0002L65.5862 75.3794L73.3103 77.5864L63.3792 52.207Z" fill="#DE4C3C"/>
<path d="M39.1035 53.3105L35.451 62.2374L35.6387 62.2925L38 69.6194L45.5255 68.0084L46.011 68.4498L50.1379 58.8278L39.1035 53.3105Z" fill="#C74436"/>
<path d="M52.345 58.8278L56.4718 68.4498L56.9573 68.0084L64.4828 69.6194L66.8442 62.2925L67.2746 62.1602L63.3793 52.207L52.345 58.8278Z" fill="#C74436"/>
<path d="M51.2414 18L56.9573 23.1641L64.4828 21.5421L66.8442 28.88L74.171 31.2414L72.56 38.7669L77.7242 44.4827L72.56 50.1986L74.171 57.7241L66.8442 60.0855L64.4828 67.4124L56.9573 65.8014L51.2414 70.9655L45.5255 65.8014L38 67.4124L35.6387 60.0855L28.3008 57.7241L29.9228 50.1986L24.7587 44.4827L29.9228 38.7669L28.3008 31.2414L35.6387 28.88L38 21.5421L45.5255 23.1641L51.2414 18Z" fill="#FDB62F"/>
<path d="M78.8277 26.8275C78.4526 24.5633 76.6782 22.7889 74.4139 22.4138C76.6782 22.0386 78.4526 20.2643 78.8277 18C79.2028 20.2643 80.9772 22.0386 83.2414 22.4138C80.9772 22.7889 79.2028 24.5631 78.8277 26.8275Z" fill="#FDB62F"/>
<path d="M77.7241 44.4826L72.56 38.7667L74.171 31.2412L68.4663 29.3984C62.2759 46.4908 47.567 56.1571 36.0359 61.3102L38 67.4122L45.5255 65.8012L51.2414 70.9653L56.9573 65.8012L64.4828 67.4122L66.8441 60.0853L74.171 57.7239L72.56 50.1984L77.7241 44.4826Z" fill="#FFA83D"/>
<path d="M44.6208 42.2757C42.1833 42.2757 40.207 40.2995 40.207 37.862C40.207 35.4245 42.1833 33.4482 44.6208 33.4482C47.0583 33.4482 49.0345 35.4245 49.0345 37.862C49.0345 40.2995 47.0583 42.2757 44.6208 42.2757ZM44.6208 35.655C43.4015 35.655 42.4139 36.6426 42.4139 37.8619C42.4139 39.0811 43.4015 40.0687 44.6208 40.0687C45.84 40.0687 46.8277 39.0811 46.8277 37.8619C46.8277 36.6426 45.84 35.655 44.6208 35.655Z" fill="white"/>
<path d="M58.9655 56.6205C56.528 56.6205 54.5518 54.6442 54.5518 52.2067C54.5518 49.7692 56.528 47.793 58.9655 47.793C61.403 47.793 63.3793 49.7692 63.3793 52.2067C63.3793 54.6441 61.403 56.6205 58.9655 56.6205ZM58.9655 49.9997C57.7463 49.9997 56.7586 50.9873 56.7586 52.2066C56.7586 53.4258 57.7463 54.4135 58.9655 54.4135C60.1848 54.4135 61.1724 53.4258 61.1724 52.2066C61.1724 50.9873 60.1849 49.9997 58.9655 49.9997Z" fill="white"/>
<path d="M44.293 52.9898L59.7418 37.541L58.1813 35.9805L42.7325 51.4293L44.293 52.9898Z" fill="white"/>
</svg>
