<svg width="100" height="101" viewBox="0 0 100 101" fill="none" xmlns="http://www.w3.org/2000/svg">
<path d="M50 100.822C77.6142 100.822 100 78.4125 100 50.769C100 23.1254 77.6142 0.71582 50 0.71582C22.3858 0.71582 0 23.1254 0 50.769C0 78.4125 22.3858 100.822 50 100.822Z" fill="#FB42FF"/>
<path d="M68.022 21.6602H28.627V77.7197H68.022V21.6602Z" fill="#FDFEFF"/>
<path d="M64.6179 26.9434H39.4629V27.9444H64.6179V26.9434Z" fill="#D2D2D4"/>
<path d="M64.6179 29.6123H39.4629V30.6134H64.6179V29.6123Z" fill="#D2D2D4"/>
<path d="M64.6179 35.5576H39.4629V36.5587H64.6179V35.5576Z" fill="#D2D2D4"/>
<path d="M64.6179 38.2266H39.4629V39.2276H64.6179V38.2266Z" fill="#D2D2D4"/>
<path d="M64.6179 44.1729H39.4629V45.1739H64.6179V44.1729Z" fill="#D2D2D4"/>
<path d="M64.6179 46.8418H39.4629V47.8429H64.6179V46.8418Z" fill="#D2D2D4"/>
<path d="M64.6179 52.7871H39.4629V53.7882H64.6179V52.7871Z" fill="#D2D2D4"/>
<path d="M64.6179 55.4561H39.4629V56.4571H64.6179V55.4561Z" fill="#D2D2D4"/>
<path d="M64.6179 61.4014H39.4629V62.4024H64.6179V61.4014Z" fill="#D2D2D4"/>
<path d="M64.6179 64.0684H39.4629V65.0694H64.6179V64.0684Z" fill="#D2D2D4"/>
<path d="M36.6448 26.4678H32.0293V31.0882H36.6448V26.4678Z" fill="#70B1E1"/>
<path d="M36.6448 35.082H32.0293V39.7024H36.6448V35.082Z" fill="#70B1E1"/>
<path d="M36.6448 43.6973H32.0293V48.3177H36.6448V43.6973Z" fill="#70B1E1"/>
<path d="M36.6448 52.3115H32.0293V56.9319H36.6448V52.3115Z" fill="#70B1E1"/>
<path d="M36.6448 60.9258H32.0293V65.5462H36.6448V60.9258Z" fill="#70B1E1"/>
<path d="M64.19 79.8791C70.3667 79.8791 75.374 74.8665 75.374 68.6832C75.374 62.4999 70.3667 57.4873 64.19 57.4873C58.0132 57.4873 53.006 62.4999 53.006 68.6832C53.006 74.8665 58.0132 79.8791 64.19 79.8791Z" fill="#D64331"/>
<path d="M64.1894 77.7721C69.2041 77.7721 73.2694 73.7025 73.2694 68.6824C73.2694 63.6623 69.2041 59.5928 64.1894 59.5928C59.1746 59.5928 55.1094 63.6623 55.1094 68.6824C55.1094 73.7025 59.1746 77.7721 64.1894 77.7721Z" fill="#F1592F"/>
<path d="M62.87 72.8803L58.4355 68.4411L59.749 67.1257L62.87 70.2495L68.6275 64.4854L69.9415 65.8007L62.87 72.8803Z" fill="#FDFEFF"/>
</svg>
