<svg width="100" height="101" viewBox="0 0 100 101" fill="none" xmlns="http://www.w3.org/2000/svg">
<path d="M50 100.107C77.6142 100.107 100 77.6977 100 50.0541C100 22.4105 77.6142 0.000976562 50 0.000976562C22.3858 0.000976562 0 22.4105 0 50.0541C0 77.6977 22.3858 100.107 50 100.107Z" fill="#ADFF00"/>
<g clip-path="url(#clip0_483_12784)">
<path d="M38.625 82.001H19.875C19.1408 82.001 18.474 81.5724 18.1693 80.9045C17.8644 80.2365 17.9775 79.4521 18.4587 78.8974L22.5009 74.2375C19.5874 70.5926 18 66.0865 18 61.376C18 50.0034 27.2524 40.751 38.625 40.751C49.9977 40.751 59.25 50.0034 59.25 61.376C59.25 72.7486 49.9978 82.001 38.625 82.001Z" fill="#BEEBFA"/>
<path d="M38.625 40.751V82.001C49.9976 82.001 59.25 72.7486 59.25 61.376C59.25 50.0034 49.9978 40.751 38.625 40.751Z" fill="#9EE2F8"/>
<path d="M44.875 59.501H32.375C31.3395 59.501 30.5 58.6615 30.5 57.626C30.5 56.5905 31.3395 55.751 32.375 55.751H44.875C45.9105 55.751 46.75 56.5905 46.75 57.626C46.75 58.6615 45.9105 59.501 44.875 59.501Z" fill="#9EE2F8"/>
<path d="M44.875 67.001H32.375C31.3395 67.001 30.5 66.1615 30.5 65.126C30.5 64.0905 31.3395 63.251 32.375 63.251H44.875C45.9105 63.251 46.75 64.0905 46.75 65.126C46.75 66.1615 45.9105 67.001 44.875 67.001Z" fill="#9EE2F8"/>
<path d="M44.875 63.251H38.625V67.001H44.875C45.9105 67.001 46.75 66.1615 46.75 65.126C46.75 64.0905 45.9105 63.251 44.875 63.251Z" fill="#87C0ED"/>
<path d="M44.875 55.751H38.625V59.501H44.875C45.9105 59.501 46.75 58.6615 46.75 57.626C46.75 56.5905 45.9105 55.751 44.875 55.751Z" fill="#87C0ED"/>
<path d="M80.125 59.251H61.375C50.0024 59.251 40.75 49.9986 40.75 38.626C40.75 27.2534 50.0022 18.001 61.375 18.001C72.7478 18.001 82 27.2534 82 38.626C82 43.3365 80.4126 47.8426 77.4991 51.4875L81.5414 56.1474C82.0225 56.7021 82.1356 57.4865 81.8307 58.1545C81.5259 58.8224 80.8593 59.251 80.125 59.251Z" fill="#999FED"/>
<path d="M81.5414 56.1474L77.4991 51.4875C80.4126 47.8426 82 43.3365 82 38.626C82 27.2534 72.7476 18.001 61.375 18.001V59.251H80.125C80.8593 59.251 81.526 58.8224 81.8307 58.1545C82.1356 57.4865 82.0225 56.702 81.5414 56.1474Z" fill="#7C84E8"/>
<path d="M61.375 51.376C62.4105 51.376 63.25 50.5365 63.25 49.501C63.25 48.4654 62.4105 47.626 61.375 47.626C60.3395 47.626 59.5 48.4654 59.5 49.501C59.5 50.5365 60.3395 51.376 61.375 51.376Z" fill="#FFF79F"/>
<path d="M61.375 45.6993C60.3395 45.6993 59.5 44.8598 59.5 43.8243V38.2629C59.5 37.2274 60.3395 36.3879 61.375 36.3879C62.3279 36.3879 63.2146 36.0065 63.8721 35.3141C64.5289 34.6224 64.8633 33.7149 64.8136 32.7588C64.7208 30.9686 63.2419 29.5379 61.447 29.5018C61.4235 29.5013 61.4 29.501 61.3765 29.501C59.6621 29.501 58.202 30.7624 57.9649 32.4619C57.9428 32.6201 57.9316 32.7825 57.9316 32.9445C57.9316 33.98 57.0921 34.8195 56.0566 34.8195C55.0211 34.8195 54.1816 33.98 54.1816 32.9445C54.1816 32.6098 54.205 32.2731 54.2509 31.9436C54.7536 28.3408 57.8839 25.6779 61.5225 25.7525C65.2736 25.8281 68.3643 28.8203 68.5586 32.5644C68.6621 34.5576 67.9635 36.4513 66.5916 37.8961C65.678 38.8584 64.5141 39.5435 63.2501 39.8868V43.8243C63.25 44.8598 62.4105 45.6993 61.375 45.6993V45.6993Z" fill="#FFF79F"/>
<path d="M61.375 47.626V51.376C62.4105 51.376 63.25 50.5365 63.25 49.501C63.25 48.4655 62.4105 47.626 61.375 47.626Z" fill="#FFDE55"/>
<path d="M68.5586 32.5642C68.3642 28.8201 65.2736 25.8279 61.5225 25.7523C61.4731 25.7513 61.4242 25.7527 61.375 25.7527V29.5008H61.3765C61.4 29.5008 61.4234 29.5011 61.447 29.5016C63.2419 29.5377 64.7208 30.9683 64.8136 32.7586C64.8633 33.7147 64.5289 34.6222 63.8721 35.3139C63.2147 36.0063 62.328 36.3877 61.375 36.3877V45.6991C62.4105 45.6991 63.25 44.8596 63.25 43.8241V39.8866C64.514 39.5433 65.678 38.8582 66.5915 37.8959C67.9635 36.4511 68.662 34.5574 68.5586 32.5642V32.5642Z" fill="#FFDE55"/>
</g>
<defs>
<clipPath id="clip0_483_12784">
<rect width="64" height="64" fill="white" transform="translate(18 18.001)"/>
</clipPath>
</defs>
</svg>
