<svg width="100" height="101" viewBox="0 0 100 101" fill="none" xmlns="http://www.w3.org/2000/svg">
<path d="M50 100.106C77.6142 100.106 100 77.6967 100 50.0531C100 22.4095 77.6142 0 50 0C22.3858 0 0 22.4095 0 50.0531C0 77.6967 22.3858 100.106 50 100.106Z" fill="#FFAE35"/>
<path d="M22.875 20.9375H67.4375V67.4375H22.875V20.9375Z" fill="#F4E5DF"/>
<path d="M22.875 20.9375H67.4375V28.6875H22.875V20.9375Z" fill="#EF6A6A"/>
<path d="M28.2031 26.2656H72.7656V72.7656H28.2031V26.2656Z" fill="#E8D7D1"/>
<path d="M28.2031 26.2656H72.7656V34.0156H28.2031V26.2656Z" fill="#F9CA48"/>
<path d="M33.5312 31.5938H78.0938V78.0938H33.5312V31.5938Z" fill="#F4E5DF"/>
<path d="M33.5312 31.5938H78.0938V39.3438H33.5312V31.5938Z" fill="#66BECC"/>
<path d="M36.4375 34.5H38.375V36.4375H36.4375V34.5Z" fill="#4F4459"/>
<path d="M40.3125 34.5H42.25V36.4375H40.3125V34.5Z" fill="#4F4459"/>
<path d="M44.1875 34.5H46.125V36.4375H44.1875V34.5Z" fill="#4F4459"/>
<path d="M56.7812 34.5H75.1875V36.4375H56.7812V34.5Z" fill="#4F4459"/>
<path d="M55.8125 61.625C60.6277 61.625 64.5312 57.7215 64.5312 52.9062C64.5312 48.091 60.6277 44.1875 55.8125 44.1875C50.9973 44.1875 47.0938 48.091 47.0938 52.9062C47.0938 57.7215 50.9973 61.625 55.8125 61.625Z" fill="#EF6A6A"/>
<path d="M43.2188 69.375H53.875V71.3125H43.2188V69.375Z" fill="#4F4459"/>
<path d="M57.75 69.375H68.4062V71.3125H57.75V69.375Z" fill="#4F4459"/>
<path d="M52.9062 56.7812V49.0312L60.6562 52.9062L52.9062 56.7812Z" fill="#F4E5DF"/>
<path d="M41.2812 73.25C42.8863 73.25 44.1875 71.9488 44.1875 70.3438C44.1875 68.7387 42.8863 67.4375 41.2812 67.4375C39.6762 67.4375 38.375 68.7387 38.375 70.3438C38.375 71.9488 39.6762 73.25 41.2812 73.25Z" fill="#66BECC"/>
<path d="M55.8125 73.25C57.4176 73.25 58.7188 71.9488 58.7188 70.3438C58.7188 68.7387 57.4176 67.4375 55.8125 67.4375C54.2074 67.4375 52.9062 68.7387 52.9062 70.3438C52.9062 71.9488 54.2074 73.25 55.8125 73.25Z" fill="#66BECC"/>
<path d="M70.3438 73.25C71.9488 73.25 73.25 71.9488 73.25 70.3438C73.25 68.7387 71.9488 67.4375 70.3438 67.4375C68.7387 67.4375 67.4375 68.7387 67.4375 70.3438C67.4375 71.9488 68.7387 73.25 70.3438 73.25Z" fill="#66BECC"/>
<path d="M68.4062 44.1875H75.1875V46.125H68.4062V44.1875Z" fill="#4F4459"/>
<path d="M68.4062 48.0625H75.1875V50H68.4062V48.0625Z" fill="#4F4459"/>
<path d="M68.4062 51.9375H75.1875V53.875H68.4062V51.9375Z" fill="#4F4459"/>
</svg>
