<svg width="100" height="101" viewBox="0 0 100 101" fill="none" xmlns="http://www.w3.org/2000/svg">
<path d="M50 100.406C77.6142 100.406 100 77.9965 100 50.3529C100 22.7094 77.6142 0.299805 50 0.299805C22.3858 0.299805 0 22.7094 0 50.3529C0 77.9965 22.3858 100.406 50 100.406Z" fill="#21D0C3"/>
<path d="M78.0116 53.3994H68.8845C68.3653 53.3994 67.9443 53.8203 67.9443 54.3395V81.027C67.9443 81.5462 68.3652 81.9672 68.8845 81.9672H78.0116C78.5307 81.9672 78.9517 81.5463 78.9517 81.027V54.3395C78.9516 53.8203 78.5307 53.3994 78.0116 53.3994Z" fill="#A0A0A0"/>
<path d="M72.6447 53.3994H68.8845C68.3653 53.3994 67.9443 53.8203 67.9443 54.3395V81.027C67.9443 81.5462 68.3652 81.9672 68.8845 81.9672H72.6447V53.3994Z" fill="#878787"/>
<path d="M81.0598 48.3516H68.8845C68.3653 48.3516 67.9443 48.7724 67.9443 49.2917V54.3398C67.9443 54.8589 68.3652 55.2799 68.8845 55.2799H81.0598C81.579 55.2799 82 54.8591 82 54.3398V49.2917C82 48.7726 81.5791 48.3516 81.0598 48.3516Z" fill="#565656"/>
<path d="M72.6447 48.3516H68.8845C68.3653 48.3516 67.9443 48.7724 67.9443 49.2917V54.3398C67.9443 54.8589 68.3652 55.2799 68.8845 55.2799H72.6447V48.3516Z" fill="#494949"/>
<path d="M31.1154 53.3994H21.988C21.4689 53.3994 21.0479 53.8203 21.0479 54.3395V81.027C21.0479 81.5462 21.4687 81.9672 21.988 81.9672H31.1151C31.6342 81.9672 32.0552 81.5463 32.0552 81.027V54.3395C32.0554 53.8203 31.6345 53.3994 31.1154 53.3994Z" fill="#A0A0A0"/>
<path d="M31.1158 53.3994H27.3555V81.967H31.1157C31.6348 81.967 32.0558 81.5462 32.0558 81.0269V54.3394C32.0558 53.8203 31.635 53.3994 31.1158 53.3994Z" fill="#878787"/>
<path d="M31.1155 48.3516H18.9401C18.421 48.3516 18 48.7724 18 49.2917V54.3398C18 54.8589 18.4209 55.2799 18.9401 55.2799H31.1155C31.6346 55.2799 32.0556 54.8591 32.0556 54.3398V49.2917C32.0555 48.7726 31.6346 48.3516 31.1155 48.3516Z" fill="#565656"/>
<path d="M31.1158 48.3516H27.3555V55.2798H31.1157C31.6348 55.2798 32.0558 54.8589 32.0558 54.3397V49.2916C32.0558 48.7726 31.635 48.3516 31.1158 48.3516Z" fill="#494949"/>
<path d="M68.8849 34.5732H58.2218C57.9268 34.5732 57.6487 34.7117 57.4712 34.9474C55.6777 37.3267 52.9432 38.6914 49.9689 38.6914C46.9947 38.6914 44.2602 37.3267 42.4667 34.9474C42.289 34.7117 42.011 34.5732 41.716 34.5732H31.1159C30.5968 34.5732 30.1758 34.9941 30.1758 35.5134V81.027C30.1758 81.5461 30.5967 81.9671 31.1159 81.9671H68.8852C69.4043 81.9671 69.8253 81.5462 69.8253 81.027V35.5134C69.825 34.9942 69.4042 34.5732 68.8849 34.5732Z" fill="#F9F1EF"/>
<path d="M68.884 34.5732H65.249V81.967H68.884C69.4031 81.967 69.8241 81.5461 69.8241 81.0269V35.5134C69.8241 34.9942 69.4033 34.5732 68.884 34.5732Z" fill="#DDDBDB"/>
<path d="M40.6407 30.3608C40.5875 29.8851 40.1852 29.5254 39.7066 29.5254H27.6599C27.1407 29.5254 26.7197 29.9463 26.7197 30.4655V35.5136C26.7197 36.0328 27.1406 36.4538 27.6599 36.4538H41.7161C42.0726 36.4538 42.3984 36.2523 42.5574 35.9331C42.7164 35.6141 42.6814 35.2326 42.4667 34.9478C41.4587 33.6103 40.8272 32.0241 40.6407 30.3608Z" fill="#565656"/>
<path d="M72.3414 29.5254H60.2316C59.753 29.5254 59.3507 29.8851 59.2975 30.3608C59.111 32.0241 58.4796 33.6104 57.4716 34.9478C57.257 35.2324 57.222 35.614 57.381 35.9331C57.5401 36.2521 57.8659 36.4538 58.2222 36.4538H72.3415C72.8606 36.4538 73.2816 36.0329 73.2816 35.5136V30.4654C73.2815 29.9463 72.8606 29.5254 72.3414 29.5254Z" fill="#565656"/>
<path d="M42.9979 53.2441H37.7429C37.2237 53.2441 36.8027 53.665 36.8027 54.1843V59.4393C36.8027 59.9584 37.2236 60.3794 37.7429 60.3794H42.9979C43.517 60.3794 43.938 59.9585 43.938 59.4393V54.1843C43.938 53.665 43.517 53.2441 42.9979 53.2441Z" fill="#00C1EC"/>
<path d="M52.627 53.2441H47.372C46.8529 53.2441 46.4319 53.665 46.4319 54.1843V59.4393C46.4319 59.9584 46.8528 60.3794 47.372 60.3794H52.627C53.1461 60.3794 53.5671 59.9585 53.5671 59.4393V54.1843C53.5671 53.665 53.1461 53.2441 52.627 53.2441Z" fill="#00C1EC"/>
<path d="M62.2564 53.2441H57.0014C56.4823 53.2441 56.0613 53.665 56.0613 54.1843V59.4393C56.0613 59.9584 56.4822 60.3794 57.0014 60.3794H62.2564C62.7755 60.3794 63.1965 59.9585 63.1965 59.4393V54.1843C63.1965 53.665 62.7757 53.2441 62.2564 53.2441Z" fill="#00C1EC"/>
<path d="M42.9979 44.1475H37.7429C37.2237 44.1475 36.8027 44.5683 36.8027 45.0876V50.3426C36.8027 50.8617 37.2236 51.2827 37.7429 51.2827H42.9979C43.517 51.2827 43.938 50.8618 43.938 50.3426V45.0876C43.938 44.5683 43.517 44.1475 42.9979 44.1475Z" fill="#00C1EC"/>
<path d="M52.627 44.1475H47.372C46.8529 44.1475 46.4319 44.5683 46.4319 45.0876V50.3426C46.4319 50.8617 46.8528 51.2827 47.372 51.2827H52.627C53.1461 51.2827 53.5671 50.8618 53.5671 50.3426V45.0876C53.5671 44.5683 53.1461 44.1475 52.627 44.1475Z" fill="#00C1EC"/>
<path d="M62.2564 44.1475H57.0014C56.4823 44.1475 56.0613 44.5683 56.0613 45.0876V50.3426C56.0613 50.8617 56.4822 51.2827 57.0014 51.2827H62.2564C62.7755 51.2827 63.1965 50.8618 63.1965 50.3426V45.0876C63.1965 44.5683 62.7757 44.1475 62.2564 44.1475Z" fill="#00C1EC"/>
<path d="M60.9062 68.5244H49.9997C49.4806 68.5244 49.0596 68.9453 49.0596 69.4645V81.0275C49.0596 81.5467 49.4804 81.9677 49.9997 81.9677H60.9062C61.4253 81.9677 61.8463 81.5468 61.8463 81.0275V69.4645C61.8462 68.9453 61.4254 68.5244 60.9062 68.5244Z" fill="#00C1EC"/>
<path d="M60.9067 68.5244H57.5225V81.9677H60.9067C61.4258 81.9677 61.8468 81.5468 61.8468 81.0275V69.4645C61.8467 68.9453 61.426 68.5244 60.9067 68.5244Z" fill="#00AADE"/>
<path d="M49.9999 68.5244H39.0934C38.5743 68.5244 38.1533 68.9453 38.1533 69.4645V81.0275C38.1533 81.5467 38.5742 81.9677 39.0934 81.9677H49.9999C50.5191 81.9677 50.9401 81.5468 50.9401 81.0275V69.4645C50.9401 68.9453 50.5192 68.5244 49.9999 68.5244Z" fill="#00C1EC"/>
<path d="M50.9406 68.5234H46.6162V81.9666H50.9406V68.5234Z" fill="#00AADE"/>
<path d="M49.9686 18.0332C43.7547 18.0332 38.6992 23.0887 38.6992 29.3026C38.6992 35.5165 43.7547 40.572 49.9686 40.572C56.1826 40.572 61.238 35.5166 61.238 29.3026C61.238 23.0886 56.1826 18.0332 49.9686 18.0332Z" fill="#EF3A47"/>
<path d="M49.9687 18.0332C49.1617 18.0332 48.3746 18.1192 47.6152 18.2811C52.7034 19.3665 56.5311 23.8955 56.5311 29.3026C56.5311 34.7097 52.7031 39.2387 47.6152 40.3241C48.3746 40.4861 49.1617 40.572 49.9687 40.572C56.1827 40.572 61.2381 35.5166 61.2381 29.3026C61.2381 23.0886 56.1827 18.0332 49.9687 18.0332Z" fill="#CE3043"/>
<path d="M54.038 27.5253H51.7461V25.2333C51.7461 24.8812 51.4607 24.5957 51.1085 24.5957H48.8288C48.4767 24.5957 48.1912 24.8811 48.1912 25.2333V27.5252H45.8993C45.5472 27.5252 45.2617 27.8106 45.2617 28.1628V30.4425C45.2617 30.7946 45.5471 31.0801 45.8993 31.0801H48.1912V33.372C48.1912 33.7241 48.4766 34.0096 48.8288 34.0096H51.1085C51.4606 34.0096 51.7461 33.7242 51.7461 33.372V31.0801H54.038C54.3901 31.0801 54.6755 30.7947 54.6755 30.4425V28.1628C54.6755 27.8107 54.3901 27.5253 54.038 27.5253Z" fill="#F9F1EF"/>
<path d="M63.1069 64.4355H36.8932C36.3741 64.4355 35.9531 64.8564 35.9531 65.3757V69.4578C35.9531 69.9769 36.374 70.3979 36.8932 70.3979H63.1069C63.626 70.3979 64.047 69.977 64.047 69.4578V65.3757C64.0469 64.8564 63.626 64.4355 63.1069 64.4355Z" fill="#565656"/>
</svg>
