<svg width="100" height="101" viewBox="0 0 100 101" fill="none" xmlns="http://www.w3.org/2000/svg">
<g clip-path="url(#clip0_483_12713)">
<path d="M50 100.822C77.6142 100.822 100 78.4125 100 50.769C100 23.1254 77.6142 0.71582 50 0.71582C22.3858 0.71582 0 23.1254 0 50.769C0 78.4125 22.3858 100.822 50 100.822Z" fill="#FF9500"/>
<path d="M33.5422 17.6455L21.9414 29.2586V83.0249H74.4541V17.6455H33.5422Z" fill="white"/>
<path d="M74.4527 17.6455H49.918V83.0249H74.4527V17.6455Z" fill="#E9EDF5"/>
<path d="M33.5439 29.2586L33.5463 17.6455L21.9453 29.2588L33.5439 29.2586Z" fill="#87C7FF"/>
<path d="M36.3223 51.3808C41.624 51.3808 45.9219 47.0783 45.9219 41.7709C45.9219 36.4636 41.624 32.1611 36.3223 32.1611C31.0205 32.1611 26.7227 36.4636 26.7227 41.7709C26.7227 47.0783 31.0205 51.3808 36.3223 51.3808Z" fill="#2864F0"/>
<path d="M36.3246 43.9676C38.603 43.9676 40.45 42.1186 40.45 39.8378C40.45 37.557 38.603 35.708 36.3246 35.708C34.0462 35.708 32.1992 37.557 32.1992 39.8378C32.1992 42.1186 34.0462 43.9676 36.3246 43.9676Z" fill="#DBEEFF"/>
<path d="M36.324 51.379C38.876 51.379 41.1904 50.3674 42.8941 48.7251C41.8559 46.1098 39.3066 44.2598 36.324 44.2598C33.3414 44.2598 30.7924 46.1096 29.7539 48.7251C31.4576 50.3674 33.7721 51.379 36.324 51.379Z" fill="#DBEEFF"/>
<path d="M27.3008 63.6523L69.0977 63.6523L69.0977 59.2854L27.3008 59.2854L27.3008 63.6523Z" fill="#A3D4FF"/>
<path d="M69.0986 59.2842H49.9219V63.6511H69.0986V59.2842Z" fill="#87C7FF"/>
<path d="M27.3008 71.7324L69.0977 71.7324L69.0977 67.3655L27.3008 67.3655L27.3008 71.7324Z" fill="#A3D4FF"/>
<path d="M69.0986 67.3643H49.9219V71.731H69.0986V67.3643Z" fill="#87C7FF"/>
<path d="M75.8864 14.5357L41.2109 21.3564L47.3645 52.7063L82.0399 45.8855L75.8864 14.5357Z" fill="#FFCE00"/>
<path d="M75.8863 14.5352L62.2422 17.2191V49.7806L82.0404 45.886L75.8863 14.5352Z" fill="#FFA300"/>
<path d="M62.2354 34.2521C57.3863 34.2521 53.4414 30.303 53.4414 25.4488H59.3008C59.3008 27.0687 60.6172 28.3865 62.2354 28.3865C63.8535 28.3865 65.1699 27.0687 65.1699 25.4488V17.6744C65.1699 16.0545 63.8535 14.7367 62.2354 14.7367C60.6172 14.7367 59.3008 16.0545 59.3008 17.6744H53.4414C53.4414 12.8202 57.3863 8.87109 62.2354 8.87109C67.0844 8.87109 71.0293 12.8202 71.0293 17.6744V25.4488C71.0293 30.303 67.0844 34.2521 62.2354 34.2521Z" fill="#2864F0"/>
<path d="M62.2422 8.87109V14.7369C63.8561 14.7422 65.1674 16.0574 65.1674 17.6742V25.4487C65.1674 27.0652 63.8561 28.3807 62.2422 28.3858V34.2516C67.0869 34.2465 71.0268 30.2995 71.0268 25.4487V17.6742C71.0268 12.8233 67.0869 8.87637 62.2422 8.87109Z" fill="#27488F"/>
</g>
<defs>
<clipPath id="clip0_483_12713">
<rect width="100" height="100.106" fill="white" transform="translate(0 0.71582)"/>
</clipPath>
</defs>
</svg>
