<svg width="793" height="493" viewBox="0 0 793 493" fill="none" xmlns="http://www.w3.org/2000/svg">
<g clip-path="url(#clip0_483_10361)">
<path d="M134.518 487.851C167.759 465.628 175.89 423.573 175.292 385.699C175.173 379.367 176.01 372.676 173.02 367.18C170.031 361.565 162.976 357.742 157.237 360.251C152.454 362.401 150.302 367.778 147.551 372.318C143.964 378.291 138.584 383.19 132.246 386.296C128.181 388.327 123.039 389.522 119.093 387.252C113.593 384.146 113.115 376.619 113.234 370.287C113.474 358.578 113.713 346.869 113.952 335.161C114.071 328.829 114.191 322.496 112.278 316.403C110.365 310.429 106.06 304.814 100.081 303.022C93.9833 301.23 86.4503 304.575 85.135 310.788C84.5371 313.297 85.0154 316.045 84.7763 318.673C84.5372 321.302 83.2219 324.169 80.7109 324.886C78.1998 325.603 75.6888 323.811 73.7757 321.899C67.3188 315.447 63.0142 307.204 58.9488 298.96C54.8833 290.716 50.9375 282.353 45.0785 275.423C39.2194 268.374 31.0886 262.759 21.8815 262.161C12.7941 261.564 2.98919 266.94 0.478187 275.782C-2.03282 284.623 3.10877 293.703 8.72864 300.991C16.9791 311.744 26.9036 321.302 37.9042 329.307C39.9369 330.74 42.0892 332.293 42.8066 334.683C44.1219 338.865 40.0564 343.046 35.8714 344.36C31.0886 345.794 25.947 345.316 20.925 345.794C15.9029 346.272 10.5222 348.423 8.60907 352.963C5.85892 359.295 11.2396 366.224 16.5008 370.645C27.1427 379.606 39.2194 386.774 52.2528 391.673C56.9161 393.465 61.8185 395.018 65.5252 398.244C69.232 401.589 71.5038 407.205 69.1124 411.625C66.7209 416.046 60.8619 417.36 55.9595 416.404C51.057 415.448 46.7525 412.7 42.0892 410.908C33.3604 407.563 22.0011 407.921 16.3812 415.329C12.6745 420.227 12.1962 427.038 13.9898 432.892C15.7834 438.746 19.4901 443.884 23.436 448.543C37.1867 465.031 55.0029 478.292 75.2105 485.58C95.4182 492.749 114.311 494.9 134.518 487.851Z" fill="#EBEBEB"/>
<path d="M124.952 463.955C119.572 444.72 111.919 424.17 103.19 403.023C101.038 397.766 98.7661 392.509 96.6138 387.371C94.4615 382.234 92.3092 377.096 89.9178 372.198C85.1349 362.401 79.8737 353.44 74.493 345.077C69.1123 336.714 63.8511 328.828 58.7095 321.66C53.568 314.372 48.7851 307.801 44.0022 301.827C34.6756 289.999 25.9469 281.397 19.7291 275.662C16.6203 272.794 14.1093 270.644 12.4353 269.21C11.5983 268.493 11.0004 268.015 10.5221 267.537C10.0438 267.179 9.80469 267.06 9.80469 267.06C9.80469 267.06 10.0438 267.299 10.4025 267.657C10.8808 268.015 11.4787 268.613 12.3157 269.33C13.9897 270.763 16.3811 273.033 19.49 275.901C25.5882 281.636 34.1973 290.357 43.5239 302.185C48.1872 308.04 52.9701 314.73 58.1117 322.018C63.1337 329.306 68.5144 337.072 73.7756 345.435C79.0367 353.799 84.4175 362.879 89.0808 372.556C91.4722 377.455 93.6245 382.473 95.7768 387.61C97.9291 392.748 100.081 398.005 102.353 403.262C111.082 424.528 118.735 444.959 124.115 464.075" fill="#E0E0E0"/>
<path d="M89.6787 372.079C89.7983 372.079 89.9179 371.123 90.2766 369.45C90.6353 367.658 90.994 365.149 91.5919 362.043C92.5484 355.83 93.6246 347.108 94.8203 337.55C96.016 327.992 97.2117 319.39 98.2879 313.177C98.8857 310.071 99.364 307.562 99.6032 305.77C99.9619 304.097 100.081 303.022 100.081 303.022C99.9619 303.022 99.7227 303.978 99.2445 305.65C98.7662 307.323 98.1683 309.832 97.5704 312.938C96.2552 319.151 94.9399 327.753 93.7442 337.311C92.668 346.75 91.5919 355.352 90.8744 361.804C90.5157 364.791 90.157 367.3 89.9179 369.211C89.7983 371.123 89.6787 372.079 89.6787 372.079Z" fill="#E0E0E0"/>
<path d="M8.01074 355.83C8.01074 355.83 8.24989 355.95 8.84775 355.95C9.56518 356.069 10.2826 356.069 11.2392 356.189C13.3915 356.428 16.3808 356.667 20.0875 357.144C27.6205 357.981 37.9037 359.653 49.1434 361.923C60.3832 364.194 70.5468 366.703 77.8407 368.734C81.4278 369.689 84.4171 370.645 86.4498 371.243C87.4064 371.482 88.1238 371.721 88.8413 371.959C89.3196 372.079 89.6783 372.198 89.6783 372.079C89.6783 372.079 89.4391 371.959 88.9608 371.72C88.363 371.482 87.526 371.243 86.689 370.884C84.6563 370.167 81.7865 369.212 78.1994 368.136C70.9055 365.986 60.8615 363.357 49.5022 360.968C38.1428 358.698 27.8597 357.145 20.3266 356.428C16.6199 356.069 13.511 355.83 11.3588 355.711C10.4022 355.711 9.56518 355.711 8.96732 355.591C8.24989 355.711 8.01074 355.711 8.01074 355.83Z" fill="#E0E0E0"/>
<path d="M123.996 462.522C123.996 462.522 124.235 462.163 124.594 461.566C124.953 460.849 125.431 459.893 126.029 458.698C127.225 456.189 128.899 452.486 131.051 447.826C135.116 438.626 140.377 425.723 145.997 411.386C151.617 397.049 156.759 384.146 160.705 374.946C162.618 370.406 164.292 366.702 165.368 363.954C165.846 362.759 166.324 361.804 166.683 360.967C166.922 360.251 167.042 359.892 167.042 359.892C167.042 359.892 166.803 360.251 166.444 360.848C166.085 361.565 165.607 362.521 165.009 363.715C163.813 366.224 162.139 369.928 160.107 374.588C156.041 383.787 150.78 396.691 145.16 411.028C139.54 425.365 134.399 438.268 130.453 447.468C128.54 452.008 126.866 455.711 125.79 458.459C125.311 459.654 124.833 460.61 124.474 461.446C124.116 462.044 123.996 462.522 123.996 462.522Z" fill="#E0E0E0"/>
<path d="M15.6641 426.201C15.6641 426.201 16.0228 426.44 16.7402 426.679C17.5772 426.918 18.6534 427.276 19.8491 427.754C22.7188 428.71 26.6647 430.024 31.4475 431.578C41.2524 434.803 54.764 439.582 69.5909 444.72C84.5374 449.977 98.049 454.517 107.854 457.623C112.756 459.176 116.822 460.371 119.572 461.207C120.887 461.566 121.963 461.924 122.8 462.163C123.518 462.402 123.877 462.402 123.996 462.402C123.996 462.402 123.637 462.163 122.92 461.924C122.083 461.685 121.007 461.327 119.811 460.849C116.941 459.893 112.995 458.579 108.213 457.026C98.4077 453.8 84.8961 449.021 70.0692 443.884C55.1227 438.627 41.6111 434.087 31.8063 430.98C26.9038 429.427 22.8384 428.232 20.0882 427.396C18.7729 427.038 17.6968 426.679 16.8598 426.44C16.0228 426.321 15.6641 426.201 15.6641 426.201Z" fill="#E0E0E0"/>
<path d="M646.847 244.388L608.083 342.897L754.296 400.34L793.06 301.831L646.847 244.388Z" fill="#EBEBEB"/>
<path d="M792.999 303.141C792.999 303.141 792.402 303.499 791.086 303.858C789.651 304.336 787.858 305.053 785.586 305.769C780.684 307.442 773.748 309.832 765.378 312.699C748.16 318.553 724.485 326.439 698.299 335.28L697.701 335.519L697.462 335.041C697.222 334.682 696.983 334.205 696.744 333.846C682.874 309.593 670.319 287.609 661.112 271.599C656.688 263.714 653.1 257.262 650.47 252.603C649.274 250.452 648.318 248.78 647.6 247.465C647.002 246.271 646.644 245.673 646.644 245.554C646.644 245.554 647.122 246.151 647.839 247.226C648.557 248.541 649.633 250.213 650.948 252.244C653.579 256.784 657.405 263.117 661.949 271.002C671.275 287.012 683.95 308.876 697.94 333.01C698.179 333.488 698.418 333.846 698.657 334.205L697.82 333.846C724.006 325.244 747.682 317.358 765.02 311.624C773.509 308.876 780.444 306.606 785.347 305.053C787.619 304.336 789.532 303.738 790.847 303.38C792.402 303.26 792.999 303.141 792.999 303.141Z" fill="#E0E0E0"/>
<path d="M608.142 344.241C607.903 343.883 624.284 334.683 644.612 323.691C664.939 312.699 681.559 304.097 681.679 304.456C681.918 304.814 665.537 314.014 645.209 325.005C624.882 335.997 608.262 344.599 608.142 344.241Z" fill="#E0E0E0"/>
<path d="M730.703 322.377C731.062 322.257 736.682 339.939 743.139 361.803C749.715 383.667 754.617 401.589 754.259 401.708C753.9 401.828 748.28 384.145 741.823 362.281C735.247 340.298 730.344 322.496 730.703 322.377Z" fill="#E0E0E0"/>
<path d="M755.628 116.985L669.464 154.482L694.769 212.536L780.933 175.039L755.628 116.985Z" fill="#EBEBEB"/>
<path d="M756.172 117.596C756.172 117.596 756.052 117.954 755.693 118.671C755.335 119.507 754.856 120.463 754.259 121.777C752.943 124.525 751.03 128.468 748.639 133.247C743.856 143.044 737.16 156.306 729.866 171.121L729.746 171.479L729.388 171.36C729.149 171.24 728.909 171.24 728.551 171.121C712.408 166.7 697.821 162.757 687.179 159.89C681.918 158.456 677.733 157.262 674.624 156.425C673.189 156.067 672.113 155.708 671.276 155.469C670.558 155.23 670.08 155.111 670.08 155.111C670.08 155.111 670.558 155.111 671.276 155.35C672.113 155.589 673.308 155.828 674.743 156.186C677.852 157.023 682.037 158.098 687.298 159.412C697.94 162.28 712.648 166.103 728.79 170.404C729.029 170.523 729.388 170.523 729.627 170.643L729.148 170.882C736.562 156.186 743.258 142.805 748.16 133.128C750.552 128.348 752.585 124.525 754.019 121.777C754.737 120.463 755.215 119.507 755.693 118.671C755.933 117.954 756.172 117.596 756.172 117.596Z" fill="#E0E0E0"/>
<path d="M695.309 213.057C695.07 212.937 698.059 202.185 702.005 189.042C705.951 175.78 709.299 165.147 709.538 165.267C709.778 165.386 706.788 176.139 702.842 189.281C698.896 202.543 695.548 213.176 695.309 213.057Z" fill="#E0E0E0"/>
<path d="M737.877 152.005C737.997 151.766 747.802 156.903 759.878 163.474C771.955 169.926 781.521 175.422 781.401 175.661C781.282 175.9 771.477 170.762 759.4 164.191C747.443 157.62 737.758 152.244 737.877 152.005Z" fill="#E0E0E0"/>
<path d="M778.173 488.448C778.173 488.567 605.272 488.806 392.076 488.806C178.879 488.687 5.97852 488.567 5.97852 488.448C5.97852 488.328 178.76 488.089 392.076 488.089C605.272 488.089 778.173 488.209 778.173 488.448Z" fill="#263238"/>
<path d="M639.351 483.669H144.921C135.356 483.669 127.464 475.903 127.464 466.225V151.407C127.464 141.849 135.236 133.964 144.921 133.964H639.351C648.916 133.964 656.808 141.73 656.808 151.407V466.225C656.688 475.903 648.916 483.669 639.351 483.669Z" fill="#263238"/>
<path d="M657.525 488.448H126.627C114.909 488.448 105.343 478.889 105.343 467.181V457.862H678.689V467.181C678.689 478.889 669.243 488.448 657.525 488.448Z" fill="#263238"/>
<path d="M641.024 147.942H141.692V443.286H641.024V147.942Z" fill="#455A64"/>
<path d="M339.942 457.862L347.117 469.093H447.198L453.775 457.862H339.942Z" fill="#455A64"/>
<path d="M627.871 442.211H155.921C153.769 442.211 151.976 440.418 151.976 438.268V161.802C151.976 159.651 153.769 157.859 155.921 157.859H627.871C630.023 157.859 631.817 159.651 631.817 161.802V438.387C631.817 440.538 630.023 442.211 627.871 442.211Z" fill="#EBEBEB"/>
<path d="M631.698 178.767H151.976V442.33H631.698V178.767Z" fill="#EBEBEB"/>
<path d="M191.315 168.851C191.315 171.001 189.641 172.674 187.488 172.674C185.336 172.674 183.662 171.001 183.662 168.851C183.662 166.7 185.336 165.027 187.488 165.027C189.641 165.027 191.315 166.7 191.315 168.851Z" fill="#455A64"/>
<path d="M168.117 168.851C168.117 171.001 166.443 172.674 164.291 172.674C162.139 172.674 160.465 171.001 160.465 168.851C160.465 166.7 162.139 165.027 164.291 165.027C166.443 165.027 168.117 166.7 168.117 168.851Z" fill="#455A64"/>
<path d="M179.238 168.851C179.238 171.001 177.564 172.674 175.411 172.674C173.259 172.674 171.585 171.001 171.585 168.851C171.585 166.7 173.259 165.027 175.411 165.027C177.564 165.027 179.238 166.7 179.238 168.851Z" fill="#455A64"/>
<path d="M652.145 457.862C652.145 458.101 534.725 458.22 389.804 458.22C244.883 458.22 127.464 458.101 127.464 457.862C127.464 457.623 244.883 457.503 389.804 457.503C534.725 457.503 652.145 457.623 652.145 457.862Z" fill="#455A64"/>
<path d="M127.464 461.685C127.464 461.685 127.344 461.566 127.105 461.446C126.866 461.327 126.388 460.968 125.909 460.61C125.431 460.251 124.714 459.774 123.996 459.296C123.279 458.818 122.322 458.22 121.366 457.384C120.409 456.667 119.333 455.831 118.137 454.875C116.941 453.919 115.746 452.844 114.43 451.649C111.8 449.26 109.05 446.273 106.06 442.689C100.321 435.52 94.3423 425.723 90.2769 413.178C86.331 400.753 84.0592 385.699 85.3745 369.211C85.9723 360.967 87.2876 352.365 89.7986 343.763C92.3096 335.161 95.7772 326.32 100.799 318.076C101.995 316.045 103.43 314.014 104.984 311.982C106.539 310.071 108.093 308.159 109.648 306.128C111.322 304.217 112.996 302.424 114.789 300.513C116.583 298.721 118.496 296.929 120.289 295.136C127.822 288.087 136.432 281.755 145.519 275.781C163.814 263.953 184.499 254.156 205.903 244.001C227.187 233.607 249.546 223.571 272.504 213.535C364.455 173.271 448.633 138.982 509.854 115.206C540.465 103.259 565.455 94.1786 582.793 87.8464C591.402 84.7401 598.218 82.47 602.761 80.9169C605.033 80.2 606.827 79.6026 608.023 79.1247C608.62 78.8858 609.099 78.7663 609.338 78.6468C609.697 78.5273 609.816 78.5273 609.816 78.5273C609.816 78.5273 609.697 78.6468 609.338 78.7663C608.979 78.8858 608.62 79.0052 608.023 79.2442C606.827 79.7221 605.153 80.3195 602.881 81.1558C598.337 82.8285 591.641 85.218 582.913 88.3243C565.694 94.6565 540.704 103.976 510.093 116.043C448.873 140.057 364.814 174.466 272.863 214.729C249.905 224.765 227.545 234.801 206.262 245.196C184.978 255.351 164.292 265.148 145.997 276.857C136.91 282.711 128.42 289.043 120.887 295.973C119.094 297.765 117.181 299.438 115.387 301.349C113.713 303.261 111.919 305.053 110.245 306.845C108.691 308.757 107.137 310.668 105.582 312.58C104.147 314.491 102.712 316.523 101.517 318.554C96.4946 326.678 93.027 335.4 90.516 344.002C88.005 352.604 86.6897 361.087 85.9723 369.211C84.657 385.579 86.8093 400.514 90.7552 412.82C94.7011 425.245 100.56 435.042 106.18 442.211C109.05 445.795 111.8 448.782 114.43 451.171C115.746 452.366 116.941 453.561 118.018 454.517C119.213 455.472 120.17 456.309 121.126 457.026C122.083 457.862 122.92 458.459 123.637 458.937C124.355 459.415 124.953 459.893 125.551 460.252C126.029 460.61 126.388 460.849 126.627 461.088C127.344 461.566 127.464 461.685 127.464 461.685Z" fill="#263238"/>
<path d="M589.729 39.4587L611.969 57.858L609.936 78.7662L627.991 68.7302L647.362 82.4699L719.344 36.2329L589.729 39.4587Z" fill="#EA1C2D"/>
<g opacity="0.5">
<path d="M611.969 57.858L717.432 36.2329L622.611 64.907L609.937 78.7662L611.969 57.858Z" fill="black"/>
</g>
<g opacity="0.8">
<path d="M622.611 64.9072L627.992 68.7304L609.937 78.7664L622.611 64.9072Z" fill="black"/>
</g>
<path d="M290.922 315.657L175.936 326.557L183.287 403.986L298.274 393.086L290.922 315.657Z" fill="white"/>
<path d="M298.332 393.106C298.332 393.106 298.212 392.628 298.093 391.673C297.973 390.717 297.853 389.283 297.614 387.61C297.256 384.026 296.658 378.769 296.06 371.959C294.745 358.458 292.831 339.223 290.44 315.686L290.918 316.045C259.112 319.032 219.175 322.855 175.89 327.036C175.771 327.156 176.847 325.961 176.368 326.439V326.559V326.678V327.036L176.488 327.634L176.608 328.948L176.847 331.576C176.966 333.249 177.205 335.041 177.325 336.714C177.684 340.179 177.923 343.524 178.282 346.869C178.879 353.56 179.597 360.251 180.195 366.702C181.39 379.725 182.586 392.151 183.662 403.979L183.184 403.501C217.023 400.394 245.72 397.766 266.047 395.854C276.211 394.898 284.222 394.182 289.723 393.704C292.473 393.465 294.625 393.345 296.06 393.106C296.777 393.106 297.256 392.987 297.734 392.987C298.093 393.106 298.332 393.106 298.332 393.106C298.332 393.106 298.212 393.106 297.853 393.226C297.495 393.226 296.897 393.345 296.299 393.345C294.864 393.465 292.712 393.704 290.081 393.943C284.581 394.54 276.57 395.257 266.526 396.332C246.198 398.363 217.382 401.111 183.423 404.457H182.945V403.979C181.869 392.151 180.673 379.725 179.358 366.702C178.76 360.251 178.162 353.56 177.445 346.869C177.086 343.524 176.847 340.179 176.488 336.714C176.368 335.041 176.129 333.249 176.01 331.576L175.771 328.948L175.651 327.634L175.531 327.036V326.678V326.559V326.439C175.053 326.917 176.129 325.722 176.01 325.842C219.295 321.779 259.232 318.076 291.038 315.089H291.516V315.567C293.668 339.223 295.462 358.578 296.658 372.198C297.256 378.889 297.734 384.146 297.973 387.73C298.093 389.522 298.212 390.836 298.332 391.792C298.332 392.628 298.332 393.106 298.332 393.106Z" fill="#455A64"/>
<path d="M290.918 315.686C290.918 315.686 290.679 316.045 290.081 316.881C289.364 317.717 288.527 318.673 287.331 319.987C284.82 322.735 281.472 326.678 277.167 331.457C268.439 341.254 256.482 354.635 243.089 369.45L242.731 369.809L242.372 369.57C241.415 368.972 240.339 368.255 239.263 367.658C221.686 356.427 205.903 346.272 194.185 338.745C188.565 335.041 183.901 332.054 180.553 329.904C178.999 328.829 177.803 328.112 176.847 327.395C176.01 326.797 175.531 326.558 175.651 326.439C175.651 326.439 176.129 326.678 176.966 327.156C177.923 327.753 179.119 328.47 180.793 329.426C184.141 331.457 188.804 334.444 194.543 338.028C206.142 345.436 222.164 355.472 239.741 366.583C240.818 367.3 241.774 367.897 242.85 368.494L242.133 368.614C255.525 353.799 267.602 340.537 276.45 330.86C280.755 326.2 284.342 322.377 286.853 319.629C288.048 318.434 289.005 317.359 289.722 316.642C290.559 315.925 290.918 315.567 290.918 315.686Z" fill="#455A64"/>
<path d="M534.15 203.75L518.604 258.706L600.184 281.747L615.73 226.79L534.15 203.75Z" fill="white"/>
<path d="M600.13 281.755C600.13 281.755 600.25 281.396 600.369 280.68C600.609 279.963 600.848 279.007 601.206 277.693C601.924 275.064 603 271.36 604.315 266.581C606.946 257.023 610.772 243.284 615.436 226.557L615.675 226.916C593.195 220.583 564.737 212.579 534.127 203.976C534.007 203.976 535.083 203.498 534.605 203.737V203.857L534.485 204.096L534.366 204.574L534.127 205.529L533.648 207.322C533.29 208.516 532.931 209.711 532.572 210.906C531.855 213.295 531.257 215.685 530.54 218.074C529.224 222.853 527.909 227.513 526.594 232.173C523.963 241.372 521.452 250.213 519.061 258.577L518.821 258.099C542.736 264.909 563.063 270.763 577.531 274.825C584.706 276.856 590.445 278.529 594.271 279.724C596.184 280.321 597.739 280.68 598.695 281.038C599.174 281.157 599.532 281.277 599.891 281.396C600.011 281.635 600.13 281.755 600.13 281.755C600.13 281.755 600.011 281.755 599.772 281.635C599.532 281.516 599.174 281.516 598.695 281.396C597.619 281.157 596.184 280.68 594.271 280.202C590.325 279.126 584.706 277.573 577.531 275.542C563.063 271.48 542.616 265.745 518.582 259.055L518.224 258.935L518.343 258.577C520.735 250.213 523.246 241.372 525.757 232.173C527.072 227.632 528.387 222.853 529.703 218.074C530.42 215.685 531.018 213.295 531.735 210.906C532.094 209.711 532.453 208.516 532.811 207.322L533.29 205.529L533.529 204.574L533.648 204.096L533.768 203.857V203.737C533.29 203.976 534.366 203.379 534.246 203.498C564.976 212.22 593.315 220.225 615.794 226.557L616.153 226.677L616.033 227.035C611.25 243.762 607.305 257.501 604.554 267.059C603.239 271.838 602.163 275.542 601.326 278.051C600.967 279.246 600.728 280.202 600.489 280.919C600.25 281.396 600.13 281.755 600.13 281.755Z" fill="#455A64"/>
<path d="M615.675 226.796C615.675 226.796 615.316 227.035 614.718 227.393C614.001 227.752 613.164 228.23 611.968 228.827C609.577 230.141 606.109 231.814 601.924 233.965C593.315 238.266 581.597 244.239 568.564 250.93L568.324 251.05L568.085 250.811C567.607 250.094 567.009 249.377 566.531 248.66C557.563 236.354 549.312 225.123 543.334 216.999C540.464 212.937 538.073 209.711 536.399 207.322C535.681 206.246 534.964 205.29 534.486 204.693C534.127 204.096 533.888 203.737 533.888 203.737C533.888 203.737 534.127 203.976 534.605 204.574C535.083 205.171 535.801 206.127 536.638 207.083C538.431 209.353 540.823 212.578 543.812 216.641C549.791 224.765 558.041 235.876 567.129 248.182C567.726 248.899 568.205 249.616 568.683 250.333L568.205 250.213C581.358 243.642 593.076 237.788 601.685 233.487C605.87 231.456 609.338 229.783 611.849 228.469C613.044 227.871 613.881 227.513 614.599 227.155C615.316 226.916 615.675 226.796 615.675 226.796Z" fill="#455A64"/>
<path d="M185.456 190.595C185.456 190.595 191.076 186.055 199.804 199.675C208.533 213.295 212.12 221.3 212.12 221.3C212.12 221.3 214.392 224.168 216.186 221.898C218.099 219.747 220.371 213.893 223.958 214.49C227.665 215.207 229.339 219.15 229.219 225.123C229.1 231.217 229.339 244.479 229.339 245.673C229.339 246.868 230.176 248.541 231.73 247.226C233.285 245.912 241.535 234.682 246.677 238.983C251.818 243.284 248.709 260.01 248.47 261.922C248.111 263.714 248.59 264.55 249.546 264.909C250.383 265.267 252.894 261.205 255.405 258.099C257.916 254.992 261.384 251.767 264.134 254.514C266.884 257.262 268.917 269.449 259.112 290.477L253.97 299.915L243.209 300.393C220.012 299.915 209.968 292.866 208.653 289.162C207.457 285.459 211.762 283.786 215.708 282.95C219.653 282.113 224.317 281.635 224.436 280.68C224.556 279.724 224.078 279.007 222.284 278.529C220.49 278.051 203.99 273.392 202.435 266.94C200.881 260.488 214.631 257.979 216.425 257.143C218.219 256.307 217.142 254.873 216.066 254.275C214.99 253.678 203.153 247.704 197.652 245.195C192.152 242.686 189.282 239.461 190.358 235.876C191.315 232.292 197.652 232.889 200.402 232.053C203.153 231.336 201.598 228.11 201.598 228.11C201.598 228.11 195.978 221.42 187.489 207.561C178.999 193.701 185.815 190.595 185.815 190.595" fill="#EA1C2D"/>
<path d="M193.229 202.781C193.229 202.781 193.229 202.901 193.348 203.14C193.468 203.379 193.587 203.618 193.826 203.976C194.305 204.693 194.903 205.888 195.859 207.202C197.533 210.069 200.044 214.131 203.273 219.269C209.49 229.424 218.339 243.283 228.024 258.576C237.709 273.869 246.558 287.848 252.895 297.884C256.004 302.902 258.634 306.964 260.308 309.831C261.145 311.265 261.863 312.34 262.341 313.057C262.58 313.416 262.7 313.654 262.819 313.893C262.939 314.132 263.058 314.132 263.058 314.132C263.058 314.132 263.058 314.013 262.939 313.774C262.819 313.535 262.7 313.296 262.461 312.938C261.982 312.221 261.384 311.026 260.428 309.712C258.754 306.844 256.243 302.782 253.014 297.645C246.797 287.489 237.948 273.63 228.263 258.337C218.578 243.044 209.729 229.185 203.392 219.03C200.283 214.012 197.653 209.95 195.979 207.082C195.142 205.649 194.424 204.573 193.946 203.857C193.707 203.498 193.587 203.259 193.468 203.02C193.348 202.901 193.229 202.781 193.229 202.781Z" fill="#263238"/>
<path d="M221.088 222.973C221.088 222.973 220.968 223.212 220.849 223.69C220.729 224.167 220.61 224.884 220.49 225.721C220.131 227.513 219.773 229.902 219.414 232.65C219.055 235.279 218.696 237.668 218.457 239.58C218.338 240.416 218.218 241.133 218.218 241.73C218.099 242.208 218.099 242.447 218.099 242.447C218.099 242.447 218.218 242.208 218.338 241.73C218.457 241.252 218.577 240.536 218.696 239.699C219.055 237.907 219.294 235.518 219.773 232.77C220.131 230.141 220.49 227.752 220.729 225.84C220.849 225.004 220.968 224.287 220.968 223.69C221.088 223.331 221.088 222.973 221.088 222.973Z" fill="#263238"/>
<path d="M217.142 242.806C217.142 242.686 212.12 241.73 206.022 240.536C199.804 239.341 194.782 238.505 194.782 238.624C194.782 238.744 199.804 239.699 205.902 240.894C212.12 242.089 217.142 242.925 217.142 242.806Z" fill="#263238"/>
<path d="M233.165 265.745C233.165 265.745 232.926 265.745 232.328 265.745C231.73 265.745 231.012 265.865 230.175 265.984C228.382 266.104 225.871 266.342 223.121 266.581C220.37 266.701 217.859 266.82 215.946 266.82C215.109 266.82 214.392 266.82 213.794 266.82C213.316 266.82 212.957 266.82 212.957 266.82C212.957 266.82 213.196 266.82 213.794 266.94C214.272 266.94 214.99 266.94 215.946 267.059C217.74 267.059 220.251 267.059 223.121 266.94C225.871 266.82 228.382 266.462 230.175 266.223C231.132 266.104 231.849 265.984 232.328 265.865C232.806 265.745 233.165 265.745 233.165 265.745Z" fill="#263238"/>
<path d="M240.579 248.541C240.579 248.541 240.459 248.78 240.22 249.138C239.981 249.616 239.742 250.214 239.383 250.931C238.666 252.484 237.709 254.515 236.633 256.904C235.557 259.294 234.6 261.325 234.002 262.878C233.644 263.595 233.405 264.312 233.285 264.67C233.165 265.148 233.046 265.387 233.046 265.387C233.046 265.387 233.165 265.148 233.405 264.79C233.644 264.312 233.883 263.714 234.242 262.998C234.959 261.444 235.916 259.413 236.992 257.024C238.068 254.634 239.024 252.603 239.622 251.05C239.981 250.333 240.22 249.616 240.34 249.258C240.579 248.78 240.698 248.541 240.579 248.541Z" fill="#263238"/>
<path d="M257.318 266.94C257.318 266.94 257.079 267.179 256.84 267.776C256.481 268.374 256.123 269.21 255.764 270.046C254.807 271.958 253.492 274.706 252.177 277.693C250.742 280.68 249.546 283.428 248.709 285.339C248.351 286.295 247.992 287.012 247.633 287.729C247.394 288.326 247.274 288.565 247.274 288.565C247.274 288.565 247.514 288.326 247.753 287.729C248.111 287.131 248.47 286.295 248.829 285.459C249.785 283.547 251.101 280.799 252.416 277.812C253.851 274.825 255.047 272.077 255.884 270.166C256.242 269.21 256.601 268.493 256.96 267.776C257.199 267.298 257.318 266.94 257.318 266.94Z" fill="#263238"/>
<path d="M247.394 287.968C247.394 287.968 247.035 287.968 246.437 287.968C245.72 287.968 244.763 288.087 243.687 288.087C241.415 288.207 238.187 288.446 234.6 288.565C231.013 288.685 227.904 288.685 225.512 288.685C224.436 288.685 223.48 288.685 222.762 288.685C222.164 288.685 221.806 288.685 221.806 288.685C221.806 288.685 222.164 288.685 222.762 288.804C223.36 288.804 224.317 288.924 225.512 288.924C227.784 289.043 231.013 289.043 234.6 288.924C238.187 288.804 241.296 288.565 243.687 288.326C244.883 288.207 245.72 288.087 246.437 288.087C247.035 288.087 247.394 288.087 247.394 287.968Z" fill="#263238"/>
<path d="M603.599 298.362C599.533 296.57 594.75 296.809 590.685 298.482C586.619 300.154 583.152 303.022 580.163 306.367C574.423 312.699 571.314 322.018 569.76 330.501C579.206 331.696 588.413 325.603 592.957 322.257C599.892 316.881 609.458 303.022 603.599 298.362Z" fill="#EA1C2D"/>
<path d="M552.661 333.847C557.205 331.815 560.074 327.036 560.433 322.138C560.792 317.239 558.759 312.341 555.411 308.637C553.857 306.965 551.824 305.411 549.552 305.531C547.4 305.65 545.606 307.204 544.649 309.235C543.812 311.146 543.693 313.416 543.932 315.567C544.649 322.616 546.682 329.545 552.661 333.847Z" fill="#EA1C2D"/>
<path d="M540.225 357.503C540.225 357.503 540.703 357.025 541.42 356.188C542.138 355.233 543.094 353.918 544.29 352.246C546.682 348.9 549.91 344.121 552.062 338.028C554.215 332.054 554.454 326.081 553.497 322.018C553.019 319.987 552.421 318.434 551.943 317.359C551.464 316.284 551.106 315.806 550.986 315.806C550.747 315.925 552.182 318.076 552.78 322.138C553.497 326.081 553.258 331.935 551.106 337.789C548.953 343.643 545.845 348.422 543.692 351.887C541.54 355.352 540.105 357.503 540.225 357.503Z" fill="#263238"/>
<path d="M595.109 308.159C595.109 308.159 594.272 308.757 592.717 309.951C591.163 311.146 589.13 312.819 586.499 315.089C581.238 319.39 574.064 325.603 566.411 332.532C558.639 339.462 551.824 346.033 547.041 350.812C544.649 353.201 542.617 355.113 541.301 356.547C539.986 357.861 539.269 358.697 539.269 358.697C539.269 358.697 540.106 358.1 541.54 356.786C543.095 355.352 545.008 353.56 547.399 351.29C552.421 346.63 559.237 340.298 567.009 333.249C574.781 326.319 581.836 320.107 586.858 315.567C589.369 313.416 591.402 311.624 592.956 310.19C594.272 308.876 595.109 308.159 595.109 308.159Z" fill="#263238"/>
<path d="M558.041 346.63C566.651 340.776 578.249 339.462 587.934 343.285C590.445 344.241 593.076 346.033 593.076 348.661C593.076 351.29 590.445 353.201 588.054 354.157C577.771 358.219 565.096 355.352 557.683 347.228" fill="#EA1C2D"/>
<path d="M581.478 348.184C581.478 348.064 580.999 347.825 579.923 347.467C579.445 347.228 578.727 346.989 578.01 346.75C577.293 346.511 576.456 346.272 575.379 346.033C573.466 345.555 571.075 345.197 568.444 345.197C565.814 345.197 562.944 345.316 559.955 346.033C556.965 346.63 554.215 347.706 551.824 348.781C549.432 349.976 547.4 351.171 545.845 352.365C545.008 352.963 544.41 353.56 543.812 354.038C543.215 354.516 542.736 354.994 542.378 355.472C541.66 356.308 541.182 356.786 541.302 356.786C541.421 356.905 543.095 355.113 546.324 352.963C547.878 351.887 549.911 350.693 552.302 349.617C554.694 348.542 557.324 347.706 560.194 346.989C563.064 346.392 565.933 346.153 568.564 346.153C571.194 346.153 573.466 346.392 575.379 346.75C579.206 347.347 581.478 348.303 581.478 348.184Z" fill="#263238"/>
<path d="M550.03 86.5322H247.872V417.599H550.03V86.5322Z" fill="#FAFAFA"/>
<path d="M550.15 417.599C550.15 415.209 550.03 284.384 549.911 86.5323L550.15 86.7712C461.547 86.7712 357.998 86.7712 247.992 86.7712L248.351 86.4128C248.351 208.278 248.351 322.018 248.351 417.479L248.112 417.24C429.622 417.479 547.878 417.599 550.15 417.599C547.878 417.599 429.622 417.718 247.992 417.838H247.753V417.599C247.753 322.138 247.753 208.278 247.753 86.5323V86.1738H248.112C358.118 86.1738 461.667 86.1738 550.27 86.1738H550.509V86.4128C550.27 284.384 550.15 415.329 550.15 417.599Z" fill="#263238"/>
<path d="M468.363 387.372H352.856C343.291 387.372 335.519 379.606 335.519 370.048V366.464C335.519 356.906 343.291 349.14 352.856 349.14H468.363C477.929 349.14 485.701 356.906 485.701 366.464V370.048C485.701 379.606 477.929 387.372 468.363 387.372Z" fill="#EA1C2D"/>
<g opacity="0.5">
<path d="M468.363 387.372H352.856C343.291 387.372 335.519 379.606 335.519 370.048V366.464C335.519 356.906 343.291 349.14 352.856 349.14H468.363C477.929 349.14 485.701 356.906 485.701 366.464V370.048C485.701 379.606 477.929 387.372 468.363 387.372Z" fill="black"/>
</g>
<path d="M455.808 387.372H340.302C330.736 387.372 322.964 379.606 322.964 370.048V366.464C322.964 356.906 330.736 349.14 340.302 349.14H455.808C465.374 349.14 473.146 356.906 473.146 366.464V370.048C473.146 379.606 465.374 387.372 455.808 387.372Z" fill="#EA1C2D"/>
<path d="M364.336 370.765L364.814 369.57C365.412 370.048 366.488 370.406 367.445 370.406C368.64 370.406 369.238 369.929 369.238 369.331C369.238 367.659 364.575 368.734 364.575 365.747C364.575 364.433 365.651 363.357 367.804 363.357C368.76 363.357 369.717 363.596 370.434 364.074L369.956 365.269C369.238 364.791 368.521 364.672 367.804 364.672C366.608 364.672 366.13 365.15 366.13 365.747C366.13 367.42 370.793 366.344 370.793 369.212C370.793 370.526 369.717 371.601 367.564 371.601C366.249 371.601 365.053 371.243 364.336 370.765Z" fill="#FAFAFA"/>
<path d="M372.108 368.136V363.716H373.543V368.136C373.543 369.809 374.261 370.406 375.576 370.406C376.891 370.406 377.609 369.69 377.609 368.136V363.716H379.044V368.136C379.044 370.406 377.728 371.721 375.576 371.721C373.424 371.601 372.108 370.406 372.108 368.136Z" fill="#FAFAFA"/>
<path d="M388.131 369.451C388.131 370.765 387.055 371.601 385.022 371.601H381.076V363.716H384.783C386.696 363.716 387.653 364.552 387.653 365.747C387.653 366.583 387.294 367.181 386.576 367.539C387.533 367.659 388.131 368.375 388.131 369.451ZM382.511 364.791V366.942H384.544C385.62 366.942 386.098 366.583 386.098 365.866C386.098 365.15 385.5 364.791 384.544 364.791H382.511ZM386.696 369.212C386.696 368.375 386.098 368.017 385.022 368.017H382.631V370.287H385.022C386.098 370.406 386.696 370.048 386.696 369.212Z" fill="#FAFAFA"/>
<path d="M389.087 370.765L389.565 369.57C390.163 370.048 391.239 370.406 392.196 370.406C393.392 370.406 393.989 369.929 393.989 369.331C393.989 367.659 389.326 368.734 389.326 365.747C389.326 364.433 390.402 363.357 392.554 363.357C393.511 363.357 394.468 363.596 395.185 364.074L394.707 365.269C393.989 364.791 393.272 364.672 392.554 364.672C391.359 364.672 390.88 365.15 390.88 365.747C390.88 367.42 395.544 366.344 395.544 369.212C395.544 370.526 394.468 371.601 392.315 371.601C390.881 371.601 389.685 371.243 389.087 370.765Z" fill="#FAFAFA"/>
<path d="M396.261 367.539C396.261 365.15 398.054 363.477 400.446 363.477C401.761 363.477 402.837 363.955 403.555 364.791L402.598 365.628C402 365.03 401.283 364.672 400.446 364.672C398.772 364.672 397.576 365.867 397.576 367.42C397.576 369.092 398.772 370.168 400.446 370.168C401.283 370.168 402 369.809 402.598 369.212L403.555 370.168C402.837 371.004 401.761 371.482 400.446 371.482C398.054 371.601 396.261 369.929 396.261 367.539Z" fill="#FAFAFA"/>
<path d="M410.251 371.601L408.577 369.331C408.457 369.331 408.338 369.331 408.218 369.331H406.544V371.601H405.109V363.716H408.338C410.371 363.716 411.686 364.791 411.686 366.583C411.686 367.778 411.088 368.614 410.012 369.092L411.805 371.721H410.251V371.601ZM408.218 364.911H406.544V368.017H408.218C409.534 368.017 410.131 367.42 410.131 366.464C410.251 365.508 409.534 364.911 408.218 364.911Z" fill="#FAFAFA"/>
<path d="M413.36 363.596H414.795V371.482H413.36V363.596Z" fill="#FAFAFA"/>
<path d="M424.002 369.451C424.002 370.765 422.926 371.601 420.893 371.601H416.947V363.716H420.654C422.567 363.716 423.524 364.552 423.524 365.747C423.524 366.583 423.165 367.181 422.448 367.539C423.404 367.659 424.002 368.375 424.002 369.451ZM418.382 364.791V366.942H420.415C421.491 366.942 421.969 366.583 421.969 365.866C421.969 365.15 421.371 364.791 420.415 364.791H418.382ZM422.448 369.212C422.448 368.375 421.85 368.017 420.774 368.017H418.382V370.287H420.774C421.85 370.406 422.448 370.048 422.448 369.212Z" fill="#FAFAFA"/>
<path d="M431.535 370.287V371.482H425.557V363.596H431.296V364.791H426.992V366.822H430.818V368.017H426.992V370.167H431.535V370.287Z" fill="#FAFAFA"/>
<path d="M486.896 323.691C486.896 323.81 448.514 324.049 401.044 324.049C353.574 324.049 315.191 323.93 315.191 323.691C315.191 323.571 353.574 323.333 401.044 323.333C448.514 323.333 486.896 323.452 486.896 323.691Z" fill="#263238"/>
<path d="M513.801 334.085C513.801 334.204 463.341 334.443 401.164 334.443C338.867 334.443 288.527 334.324 288.527 334.085C288.527 333.965 338.987 333.727 401.164 333.727C463.341 333.727 513.801 333.846 513.801 334.085Z" fill="#263238"/>
<path d="M262.101 99.4357C262.101 100.869 260.905 101.945 259.59 101.945C258.155 101.945 257.079 100.75 257.079 99.4357C257.079 98.002 258.275 96.9267 259.59 96.9267C261.025 96.8072 262.101 98.002 262.101 99.4357Z" fill="#E0E0E0"/>
<path d="M268.08 101.945C269.467 101.945 270.591 100.821 270.591 99.4357C270.591 98.0501 269.467 96.9268 268.08 96.9268C266.694 96.9268 265.569 98.0501 265.569 99.4357C265.569 100.821 266.694 101.945 268.08 101.945Z" fill="#E0E0E0"/>
<path d="M279.201 99.4357C279.201 100.869 278.005 101.945 276.69 101.945C275.255 101.945 274.179 100.75 274.179 99.4357C274.179 98.002 275.374 96.9267 276.69 96.9267C278.005 96.8072 279.201 98.002 279.201 99.4357Z" fill="#E0E0E0"/>
<path d="M527.671 152.96L532.693 135.039C532.693 135.039 534.486 127.751 534.965 126.078C535.562 123.808 534.008 123.092 533.051 124.645C532.693 125.242 528.747 132.65 528.747 132.65C528.747 132.65 531.856 120.463 531.975 120.105C532.932 116.162 530.54 116.52 529.823 117.954C529.106 119.388 524.681 131.335 524.681 131.335C528.866 115.684 527.551 114.37 526.355 114.131C525.16 113.892 521.453 128.11 521.453 128.11C521.453 128.11 520.138 125.72 517.627 124.047C513.8 121.419 507.583 124.047 507.224 125.84C506.865 127.632 509.137 128.11 509.137 128.11C513.8 125.123 518.703 128.707 518.225 133.247C517.746 137.787 512.007 137.07 511.289 133.964C509.735 126.915 507.344 129.185 507.344 129.185L509.735 144.717L507.224 152.483" fill="#FFBE9D"/>
<path d="M348.671 225.96L456.047 225.243L459.036 298.243L347.715 297.167L348.671 225.96Z" fill="#455A64"/>
<path d="M348.672 225.96L403.197 181.874L456.047 225.243" fill="#263238"/>
<path d="M347.715 297.167C347.596 297.048 356.205 287.609 366.966 276.259C377.728 264.789 386.576 255.59 386.696 255.709C386.815 255.829 378.206 265.267 367.444 276.617C356.683 288.087 347.954 297.287 347.715 297.167Z" fill="#263238"/>
<path d="M459.036 298.243C458.917 298.362 450.547 289.163 440.383 277.693C430.22 266.223 422.089 256.785 422.208 256.665C422.328 256.546 430.698 265.745 440.862 277.215C451.025 288.685 459.156 298.123 459.036 298.243Z" fill="#263238"/>
<path d="M456.047 225.243L402.12 268.254L348.672 225.96" fill="#263238"/>
<path d="M276.808 143.642H277.167L275.732 138.863L271.189 120.463C270.71 118.791 271.667 117.118 273.341 116.521L276.689 116.401L288.048 111.144C290.2 110.308 292.592 111.742 292.831 113.892C293.19 117.237 295.581 126.318 297.973 123.211C297.973 123.092 298.092 123.092 298.092 122.972C301.56 118.193 305.745 115.684 307.538 115.804C309.212 115.923 309.93 117.954 308.734 119.149C308.615 119.388 308.375 119.507 308.136 119.746C308.017 119.866 307.897 119.866 307.777 119.985C306.462 121.061 304.908 122.972 303.712 124.406C302.636 125.84 301.799 127.512 301.201 129.185C300.603 131.097 300.125 132.769 299.766 134.203L300.603 143.522" fill="#FFBE9D"/>
<path d="M307.06 60.6059C307.06 60.6059 293.788 58.097 274.776 40.773C255.764 23.4491 246.318 0.0318723 244.046 0.151348C241.774 0.390299 231.73 -4.03029 214.034 37.5472C196.337 79.0052 203.989 88.3242 207.816 88.2048C211.523 87.9658 236.872 80.1999 252.775 81.5141C268.678 82.8284 289.364 90.5943 289.364 90.5943L307.06 60.6059Z" fill="#455A64"/>
<path d="M335.757 82.1115L331.453 90.8332L329.54 94.6564C326.909 100.033 320.572 102.303 315.191 100.033L286.613 90.9527L302.038 52.9595L330.735 67.1771C336.116 69.925 338.388 76.6156 335.757 82.1115Z" fill="#263238"/>
<path d="M319.854 96.2096L311.365 114.131L306.821 113.056L278.124 137.787L269.515 121.897C269.515 121.897 286.613 113.892 289.722 107.679C292.712 101.347 289.005 100.152 289.005 100.152L296.897 90.5942L319.854 96.2096Z" fill="#263238"/>
<path d="M215.708 38.264C206.262 60.7254 202.675 80.6778 207.577 82.7089C212.479 84.74 224.197 68.2524 233.524 45.791C242.97 23.3296 246.557 3.3772 241.655 1.34612C236.633 -0.804441 225.034 15.8027 215.708 38.264Z" fill="#263238"/>
<path d="M338.508 94.2981L330.735 92.1475L335.279 83.0674L341.138 86.4127L338.508 94.2981Z" fill="#455A64"/>
<path d="M294.146 93.8203L315.072 106.365L317.463 101.228L294.146 93.8203Z" fill="#455A64"/>
<path d="M335.279 83.0674L330.735 92.1475L332.409 92.6254L335.997 83.4258L335.279 83.0674Z" fill="#455A64"/>
<path d="M330.018 85.2176C329.898 85.4566 326.072 84.1424 321.409 82.1113C316.745 80.1997 313.039 78.4075 313.158 78.1686C313.278 77.9296 317.104 79.2439 321.767 81.2749C326.431 83.1866 330.137 84.9787 330.018 85.2176Z" fill="#455A64"/>
<path d="M332.29 79.8414C332.171 80.0803 328.703 78.7661 324.518 76.8545C320.333 74.9429 316.985 73.1508 317.105 72.9118C317.224 72.6729 320.692 73.9871 324.877 75.8987C329.062 77.8103 332.41 79.6024 332.29 79.8414Z" fill="#455A64"/>
<path d="M327.268 90.9527C327.268 91.0722 326.312 90.9527 324.877 90.4748C324.159 90.2358 323.322 89.9969 322.366 89.7579C321.409 89.3995 320.453 88.9216 319.377 88.5632C315.192 86.771 311.843 84.9789 311.963 84.74C312.083 84.501 315.55 85.9347 319.735 87.7269C320.811 88.2048 321.768 88.6827 322.725 89.0411C323.681 89.3995 324.518 89.7579 325.116 89.9969C326.431 90.4748 327.268 90.8332 327.268 90.9527Z" fill="#455A64"/>
<path d="M235.915 32.7679C235.915 32.7679 224.316 25.9578 218.457 41.6091C212.598 57.2604 224.795 59.4109 224.795 59.4109C229.458 51.645 233.284 42.8039 235.915 32.7679Z" fill="#455A64"/>
<path d="M247.634 14.0107C247.753 14.0107 247.514 15.086 247.275 16.9976C246.916 18.9092 246.557 21.6572 245.84 25.0025C245.362 26.6751 244.883 28.4673 244.405 30.4984C244.166 31.4542 243.927 32.5294 243.568 33.4852C243.449 33.9631 243.329 34.5605 243.09 35.0384C242.97 35.5163 242.731 36.1137 242.492 36.5916C241.775 38.7422 240.938 41.0122 240.101 43.2822C239.861 43.8796 239.622 44.477 239.503 45.0744C239.264 45.6717 239.024 46.2691 238.785 46.8665C238.307 48.0612 237.709 49.256 237.231 50.4508C236.633 51.6455 236.155 52.8403 235.676 54.035C235.437 54.6324 235.198 55.2298 234.839 55.7077C234.481 56.3051 234.242 56.783 233.883 57.3803C232.687 59.5309 231.491 61.6815 230.415 63.5931C230.176 64.071 229.817 64.5489 229.578 65.0268C229.22 65.5047 228.98 65.9826 228.622 66.341C228.024 67.2968 227.426 68.1331 226.828 68.9695C225.752 70.6421 224.676 72.1953 223.719 73.629C221.567 76.3769 219.773 78.5275 218.578 79.9612C217.382 81.3949 216.664 82.2312 216.545 82.2312C216.545 82.2312 217.143 81.2754 218.219 79.7223C219.415 78.1691 221.089 75.899 223.121 73.1511C224.078 71.7174 225.035 70.1642 226.111 68.4916C226.709 67.6552 227.187 66.8189 227.785 65.8631C228.024 65.3852 228.383 64.9073 228.622 64.5489C228.861 64.071 229.1 63.5931 229.459 63.1152C230.535 61.0841 231.731 59.053 232.807 56.9024C233.046 56.3051 233.405 55.8272 233.644 55.2298C234.002 54.6324 234.122 54.035 234.481 53.5571C234.959 52.3624 235.557 51.1676 236.035 49.9729C236.633 48.7781 237.111 47.5834 237.59 46.3886C237.829 45.7912 238.187 45.1938 238.307 44.5965C238.546 43.9991 238.785 43.4017 238.905 42.8043C239.742 40.5343 240.579 38.2643 241.296 36.1137C241.535 35.6358 241.655 35.0384 241.894 34.5605C242.014 34.0826 242.133 33.4852 242.372 33.0073C242.612 31.9321 242.97 30.9763 243.209 30.0205C243.807 28.1088 244.286 26.3167 244.764 24.6441C245.481 21.2987 246.079 18.6703 246.438 16.6392C247.275 14.9665 247.514 14.0107 247.634 14.0107Z" fill="#263238"/>
<path d="M316.506 184.741L304.668 139.699L275.015 140.535L284.222 203.379C285.417 216.999 293.429 225.96 307.06 228.11C315.191 229.425 324.039 221.659 330.496 216.641C334.801 213.415 335.518 214.012 339.942 210.07L359.074 196.33L359.552 198.6H359.432L362.661 236.952L402.239 268.015L449.35 230.261L448.274 213.893C448.394 213.893 448.513 213.654 448.274 213.654L447.078 195.135L471.232 222.854C476.732 230.978 486.298 235.518 496.103 234.801C506.745 233.965 515.952 227.155 519.778 217.238L532.214 153.916L504.951 148.062L492.157 193.702L461.666 158.695C444.089 135.756 423.523 137.668 423.523 137.668L385.619 136.951C385.619 136.951 385.619 136.951 385.499 136.951C384.423 137.07 363.259 137.668 348.91 152.96L316.506 184.741Z" fill="#EA1C2D"/>
<path d="M462.862 161.085C462.862 161.085 462.503 160.846 461.666 160.607C460.829 160.368 459.634 160.129 457.96 160.248C456.405 160.368 454.492 160.846 452.34 161.801C450.187 162.757 448.035 164.191 445.524 165.625C443.013 167.058 440.024 168.612 436.437 168.492C434.643 168.492 432.969 167.895 431.176 167.297C429.502 166.58 427.827 165.744 426.034 165.147C422.566 163.713 418.381 163.235 414.435 164.071C410.37 164.788 406.663 167.178 402.837 169.328C400.924 170.404 399.011 171.479 396.978 172.315C394.945 173.152 392.793 173.63 390.76 173.868C386.575 174.346 382.39 173.749 378.803 172.196C375.216 170.762 372.227 168.612 369.357 166.58C366.607 164.549 364.096 162.638 361.585 161.204C359.074 159.77 356.682 158.815 354.41 158.217C352.139 157.739 350.225 157.62 348.551 157.739C345.323 158.098 343.769 159.173 343.769 159.054C343.769 159.054 343.888 158.934 344.008 158.934C344.247 158.815 344.486 158.695 344.845 158.456C345.682 158.098 346.877 157.62 348.432 157.5C350.106 157.261 352.139 157.381 354.291 157.859C356.563 158.337 359.074 159.292 361.585 160.726C364.096 162.16 366.726 164.071 369.476 165.983C372.227 167.895 375.216 170.045 378.803 171.479C382.271 172.913 386.336 173.51 390.521 173.032C392.554 172.793 394.587 172.315 396.619 171.598C398.652 170.882 400.565 169.806 402.478 168.731C406.305 166.58 410.131 164.191 414.316 163.355C418.501 162.518 422.686 162.996 426.273 164.549C429.86 165.983 433.089 167.895 436.437 168.014C439.785 168.134 442.774 166.7 445.285 165.266C447.796 163.833 449.948 162.399 452.101 161.443C454.253 160.487 456.166 160.009 457.84 159.89C459.514 159.77 460.71 160.129 461.547 160.368C462.503 160.846 462.862 161.085 462.862 161.085Z" fill="#FAFAFA"/>
<path d="M484.863 183.547C484.863 183.547 484.743 184.144 484.265 185.219C483.667 186.294 482.711 187.728 480.797 189.042C479.004 190.357 476.373 191.432 473.145 191.79C469.916 192.149 466.329 191.79 462.383 191.312C458.437 190.954 454.013 190.476 449.589 191.91C447.437 192.627 445.285 193.941 443.252 195.255C441.219 196.569 439.067 198.123 436.556 199.078C431.653 201.229 425.914 202.065 420.294 200.99C417.424 200.512 414.674 199.556 412.044 198.123C409.413 196.689 407.022 195.016 404.391 193.344C401.88 191.671 399.249 190.237 396.499 189.401C393.749 188.564 390.76 188.445 388.01 188.923C382.39 189.759 377.248 192.029 372.226 193.344C369.715 194.06 367.085 194.538 364.574 194.658C362.063 194.658 359.552 194.299 357.399 193.463C352.975 191.671 349.747 188.564 346.877 185.817C344.007 183.069 341.377 180.679 338.627 179.006C335.996 177.334 333.246 176.617 331.093 176.497C328.941 176.259 327.148 176.736 326.071 177.095C324.995 177.453 324.517 177.812 324.397 177.812C324.397 177.812 324.876 177.453 325.952 176.975C327.028 176.497 328.822 176.139 330.974 176.259C333.246 176.378 335.876 177.095 338.627 178.767C341.377 180.321 344.127 182.83 346.997 185.458C349.866 188.087 353.095 191.193 357.399 192.866C359.552 193.702 361.943 194.06 364.334 194.06C366.845 193.941 369.356 193.463 371.867 192.746C374.378 192.029 376.889 191.193 379.52 190.357C382.151 189.52 384.901 188.684 387.771 188.326C390.64 187.967 393.63 187.967 396.499 188.923C399.369 189.759 402 191.312 404.63 192.985C407.141 194.658 409.652 196.33 412.163 197.764C414.674 199.198 417.424 200.154 420.294 200.632C425.914 201.707 431.534 200.87 436.197 198.839C440.98 196.808 444.687 193.105 449.23 191.671C451.502 190.954 453.774 190.715 455.926 190.715C458.079 190.715 460.231 190.954 462.144 191.193C466.09 191.671 469.677 192.029 472.786 191.79C475.895 191.551 478.525 190.476 480.319 189.281C482.113 188.087 483.189 186.653 483.787 185.578C484.624 184.024 484.863 183.427 484.863 183.547Z" fill="#FAFAFA"/>
<path d="M519.419 213.893C519.419 213.893 518.941 213.296 517.745 212.579C516.549 211.862 514.517 211.264 512.125 211.742C509.734 212.22 507.103 213.773 504.592 215.805C503.277 216.76 501.962 217.955 500.407 218.911C498.853 219.867 497.179 220.823 495.266 221.181C493.353 221.539 491.439 221.42 489.646 221.061C487.852 220.703 486.178 220.106 484.624 219.628C483.069 219.15 481.634 218.552 480.2 218.194C478.765 217.836 477.449 217.597 476.254 217.477C473.743 217.358 471.83 217.716 470.514 218.433C469.319 219.03 468.721 219.628 468.721 219.508C468.721 219.508 468.84 219.389 469.079 219.15C469.199 219.03 469.438 218.911 469.558 218.672C469.797 218.552 470.036 218.314 470.395 218.194C471.59 217.477 473.743 216.88 476.254 217.119C477.569 217.119 478.884 217.358 480.319 217.716C481.754 218.075 483.308 218.552 484.863 219.15C487.972 220.106 491.559 221.42 495.266 220.703C497.059 220.345 498.733 219.508 500.288 218.552C501.842 217.597 503.157 216.521 504.473 215.446C507.103 213.415 509.734 211.862 512.364 211.384C514.875 211.026 517.028 211.623 518.223 212.459C518.821 212.818 519.18 213.296 519.419 213.535C519.3 213.773 519.419 213.893 519.419 213.893Z" fill="#FAFAFA"/>
<path d="M525.398 179.603C525.398 179.603 525.039 179.962 524.321 180.201C523.604 180.559 522.528 180.918 521.093 181.037C519.658 181.156 517.984 181.037 516.191 180.559C514.397 180.081 512.484 179.364 510.571 178.647C508.658 177.931 506.744 177.214 504.951 176.975C503.157 176.616 501.603 176.736 500.168 176.975C497.418 177.453 496.222 178.767 496.103 178.647C496.103 178.647 496.342 178.289 496.94 177.811C497.537 177.333 498.614 176.855 499.929 176.497C501.244 176.139 503.038 176.139 504.831 176.377C506.625 176.616 508.658 177.333 510.571 178.05C512.603 178.767 514.397 179.484 516.191 179.962C517.984 180.44 519.539 180.559 520.973 180.559C523.843 180.44 525.398 179.484 525.398 179.603Z" fill="#FAFAFA"/>
<path d="M446.122 224.765C446.122 224.885 445.046 224.048 443.013 223.331C440.981 222.615 437.752 221.898 433.806 222.376C429.86 222.734 425.317 224.287 420.653 226.557C415.87 228.827 410.848 231.814 404.989 233.726C402.12 234.682 399.13 235.279 396.141 235.279C393.271 235.279 390.402 234.682 387.891 233.845C385.38 233.009 383.108 232.053 380.955 231.097C378.803 230.141 376.89 229.186 374.977 228.469C371.27 226.916 368.161 226.318 365.889 226.079C365.292 226.079 364.813 225.96 364.455 225.96C364.096 225.96 363.737 225.96 363.378 225.96C362.781 225.96 362.541 225.96 362.422 225.96C362.422 225.96 362.781 225.84 363.259 225.84C363.618 225.84 363.976 225.84 364.335 225.721C364.813 225.721 365.292 225.721 365.77 225.721C368.042 225.84 371.27 226.438 374.977 227.871C376.89 228.588 378.803 229.425 380.955 230.38C383.108 231.336 385.38 232.292 387.891 233.128C390.402 233.965 393.032 234.443 395.902 234.443C398.772 234.443 401.641 233.845 404.511 232.889C410.251 230.978 415.273 228.11 420.055 225.84C424.838 223.57 429.382 222.017 433.448 221.778C437.513 221.42 440.741 222.137 442.774 222.973C445.166 223.929 446.122 224.765 446.122 224.765Z" fill="#FAFAFA"/>
<path d="M282.787 194.18C282.787 194.18 282.907 194.06 283.385 193.941C283.744 193.821 284.461 193.821 285.179 194.06C285.896 194.299 286.853 194.777 287.57 195.733C288.287 196.569 288.885 197.764 289.483 198.959C290.081 200.154 290.918 201.468 292.114 202.424C293.309 203.499 294.864 204.335 296.538 204.813C300.005 206.008 304.071 206.008 308.136 205.41C312.321 204.813 316.267 203.977 319.974 203.977C323.681 203.977 327.029 205.052 329.301 206.605C331.692 208.158 333.007 210.07 333.605 211.623C334.203 213.057 334.083 214.013 334.083 214.013C333.964 214.013 333.964 213.176 333.366 211.743C332.768 210.309 331.453 208.517 329.061 207.083C326.79 205.649 323.561 204.574 319.974 204.694C316.387 204.694 312.441 205.53 308.256 206.127C304.071 206.844 299.886 206.725 296.299 205.53C294.505 204.933 292.951 204.096 291.755 202.901C290.559 201.826 289.603 200.512 289.005 199.198C288.407 197.883 287.929 196.808 287.211 195.972C286.494 195.136 285.776 194.658 285.059 194.299C283.624 193.702 282.787 194.299 282.787 194.18Z" fill="#FAFAFA"/>
<path d="M308.734 157.739C308.614 157.859 307.419 156.306 304.549 155.589C303.114 155.23 301.44 154.991 299.527 155.23C297.614 155.469 295.581 156.067 293.548 157.022C291.516 157.859 289.602 158.934 287.809 159.77C286.015 160.607 284.461 161.324 283.026 161.801C281.591 162.279 280.395 162.518 279.558 162.638C278.721 162.757 278.243 162.757 278.243 162.757C278.243 162.638 280.037 162.518 282.787 161.443C284.102 160.965 285.776 160.129 287.45 159.293C289.244 158.456 291.037 157.381 293.19 156.425C295.342 155.589 297.375 154.872 299.407 154.752C301.44 154.513 303.234 154.752 304.669 155.23C306.103 155.708 307.18 156.306 307.777 156.903C308.495 157.261 308.734 157.62 308.734 157.739Z" fill="#FAFAFA"/>
<g opacity="0.3">
<path d="M395.304 262.639C410.609 253.798 428.425 243.284 437.273 227.991C442.893 218.194 445.763 206.366 446.839 195.135L449.111 230.142L402 267.896L395.304 262.639Z" fill="black"/>
</g>
<g opacity="0.2">
<path d="M355.606 146.628C352.019 160.129 345.083 171.718 334.561 180.798C332.05 182.948 329.3 185.099 326.072 186.174C322.843 187.25 319.256 187.25 316.267 185.577L316.506 184.741L340.42 161.084L355.606 146.628Z" fill="black"/>
</g>
<path d="M319.495 203.618C319.375 203.618 319.734 202.543 320.093 200.751C320.452 198.958 320.571 196.569 320.093 193.821C319.615 191.193 318.658 188.803 317.821 187.369C316.984 185.816 316.267 184.98 316.386 184.86C316.386 184.86 317.223 185.577 318.299 187.13C319.256 188.684 320.332 190.954 320.81 193.821C321.289 196.569 321.049 199.197 320.571 200.87C320.093 202.543 319.615 203.618 319.495 203.618Z" fill="#263238"/>
<path d="M312.68 197.525C312.56 197.405 314.593 195.255 315.55 191.79C316.506 188.325 315.908 185.458 316.028 185.338C316.147 185.338 316.387 186.055 316.506 187.25C316.626 188.445 316.626 190.117 316.147 191.91C315.669 193.702 314.832 195.135 314.115 196.091C313.278 197.166 312.68 197.644 312.68 197.525Z" fill="#263238"/>
<path d="M357.16 172.793C357.28 172.793 358.356 182.351 359.313 194.06C360.389 205.769 361.106 215.327 360.867 215.446C360.747 215.446 359.671 205.888 358.715 194.18C357.639 182.351 356.921 172.913 357.16 172.793Z" fill="#263238"/>
<path d="M421.012 136.234C421.012 136.234 421.131 136.473 421.251 136.831C421.371 137.309 421.61 137.907 421.729 138.743C422.088 140.416 422.208 143.044 421.61 146.031C420.892 149.018 419.338 152.602 416.349 155.469C413.359 158.337 408.935 160.248 404.152 160.368C399.369 160.487 394.826 158.815 391.717 155.947C388.608 153.199 386.934 149.735 386.097 146.748C385.379 143.761 385.379 141.132 385.619 139.46C385.738 138.623 385.858 137.907 386.097 137.548C386.216 137.07 386.336 136.831 386.336 136.951C386.456 136.951 386.097 137.907 385.858 139.579C385.619 141.252 385.619 143.761 386.456 146.748C387.293 149.615 388.967 152.96 392.075 155.589C395.065 158.217 399.489 159.89 404.033 159.771C408.696 159.651 413.001 157.859 415.87 155.111C418.74 152.363 420.294 148.898 421.012 146.031C421.729 143.044 421.61 140.535 421.371 138.862C421.251 137.19 420.892 136.234 421.012 136.234Z" fill="#263238"/>
<path d="M490.483 208.158C490.363 208.158 490.004 204.813 490.244 200.631C490.483 196.449 491.081 193.224 491.32 193.224C491.439 193.224 491.081 196.569 490.841 200.631C490.602 204.813 490.602 208.158 490.483 208.158Z" fill="#263238"/>
<path d="M495.266 210.428C495.147 210.428 494.788 209.591 494.19 208.038C493.712 206.485 492.994 204.335 492.516 201.945C492.038 199.556 491.679 197.286 491.559 195.613C491.44 193.94 491.44 192.984 491.559 192.984C491.799 192.984 492.157 196.927 493.114 201.826C494.19 206.485 495.386 210.308 495.266 210.428Z" fill="#263238"/>
<path d="M446.958 211.026C446.839 211.026 446.361 204.335 446.121 195.972C445.763 187.609 445.643 180.918 445.882 180.918C446.002 180.918 446.48 187.609 446.719 195.972C446.958 204.335 447.078 211.026 446.958 211.026Z" fill="#263238"/>
<path d="M404.033 158.576C395.065 158.456 387.771 151.288 387.413 142.327C387.174 135.756 386.934 129.782 386.934 129.782C386.934 129.782 373.184 128.348 372.347 114.728C371.51 101.108 372.347 69.8053 372.347 69.8053C387.771 62.2783 406.066 63.712 420.175 73.509L422.208 74.9427L421.251 141.849C421.132 151.288 413.479 158.695 404.033 158.576Z" fill="#FFBE9D"/>
<path d="M386.935 129.543C386.935 129.543 395.544 129.782 404.392 123.688C404.392 123.688 400.685 133.724 387.054 133.127L386.935 129.543Z" fill="#EB996E"/>
<path d="M421.371 89.0408C421.61 88.9214 430.578 85.815 430.698 95.1341C430.817 104.453 421.491 102.661 421.491 102.422C421.371 102.183 421.371 89.0408 421.371 89.0408Z" fill="#FFBE9D"/>
<path d="M424.241 98.8378C424.241 98.8378 424.361 98.9573 424.72 99.0768C424.959 99.1962 425.437 99.3157 425.915 99.0768C426.872 98.7183 427.709 97.1652 427.709 95.4925C427.709 94.6562 427.47 93.8198 427.231 93.2225C426.991 92.5056 426.513 92.0277 426.035 92.0277C425.557 91.9082 425.198 92.2667 425.078 92.5056C424.959 92.7446 425.078 92.9835 424.959 92.9835C424.959 92.9835 424.719 92.864 424.839 92.3861C424.839 92.1472 424.959 92.0277 425.198 91.7888C425.437 91.5498 425.796 91.5498 426.035 91.5498C426.752 91.5498 427.47 92.2667 427.709 92.9835C428.068 93.7004 428.307 94.6562 428.307 95.612C428.307 97.5236 427.35 99.3157 426.035 99.6741C425.437 99.9131 424.839 99.6741 424.6 99.4352C424.241 99.0768 424.241 98.9573 424.241 98.8378Z" fill="#EB996E"/>
<path d="M378.923 90.3546C378.923 91.4299 379.76 92.2662 380.836 92.2662C381.912 92.2662 382.749 91.5494 382.869 90.4741C382.869 89.3988 382.032 88.5625 380.956 88.5625C379.879 88.5625 378.923 89.3988 378.923 90.3546Z" fill="#263238"/>
<path d="M376.532 88.4432C376.771 88.6821 378.206 87.6069 380.358 87.6069C382.391 87.6069 383.945 88.6821 384.184 88.4432C384.304 88.3237 384.065 87.8458 383.347 87.3679C382.63 86.89 381.554 86.4121 380.239 86.4121C378.923 86.4121 377.847 86.89 377.249 87.3679C376.651 87.8458 376.412 88.3237 376.532 88.4432Z" fill="#263238"/>
<path d="M399.012 90.5939C399.012 91.6692 399.849 92.5055 400.925 92.5055C402.001 92.5055 402.838 91.7887 402.958 90.7134C402.958 89.6381 402.121 88.8018 401.044 88.8018C399.968 88.8018 399.012 89.6381 399.012 90.5939Z" fill="#263238"/>
<path d="M397.098 88.8016C397.337 89.0405 398.772 87.9653 400.925 87.9653C402.957 87.9653 404.512 89.0405 404.751 88.8016C404.87 88.6821 404.631 88.2042 403.914 87.7263C403.196 87.2484 402.12 86.7705 400.805 86.7705C399.49 86.7705 398.414 87.2484 397.816 87.7263C397.218 88.2042 396.979 88.6821 397.098 88.8016Z" fill="#263238"/>
<path d="M389.565 104.334C389.565 104.214 388.25 103.975 386.217 103.736C385.739 103.736 385.141 103.617 385.141 103.258C385.021 102.9 385.26 102.302 385.499 101.705C385.978 100.391 386.576 99.0766 387.054 97.6429C389.206 91.9081 390.88 87.129 390.641 87.0096C390.402 86.8901 388.489 91.5496 386.217 97.2845C385.739 98.7182 385.141 100.032 384.662 101.347C384.423 101.944 384.065 102.661 384.423 103.497C384.543 103.856 384.902 104.214 385.26 104.334C385.619 104.453 385.858 104.453 386.217 104.453C388.25 104.453 389.565 104.453 389.565 104.334Z" fill="#263238"/>
<path d="M395.664 105.767C395.305 105.767 395.305 108.037 393.392 109.59C391.479 111.263 388.968 110.905 388.968 111.263C388.968 111.382 389.566 111.741 390.522 111.741C391.479 111.741 393.033 111.502 394.229 110.427C395.425 109.471 395.903 108.157 396.023 107.201C396.142 106.364 395.783 105.767 395.664 105.767Z" fill="#263238"/>
<path d="M396.62 80.5581C396.859 81.1554 398.891 80.9165 401.402 81.1554C403.913 81.3944 405.827 82.1112 406.185 81.6333C406.305 81.3944 405.946 80.797 405.229 80.3191C404.392 79.7217 403.196 79.2438 401.642 79.1243C400.207 79.0049 398.772 79.2438 397.935 79.6022C396.978 79.8412 396.5 80.3191 396.62 80.5581Z" fill="#263238"/>
<path d="M377.25 82.3503C377.608 82.8282 379.043 82.3503 380.837 82.3503C382.511 82.2308 384.065 82.7087 384.424 82.2308C384.543 81.9918 384.304 81.5139 383.706 81.036C383.109 80.5581 382.032 80.1997 380.837 80.1997C379.641 80.1997 378.565 80.6776 377.967 81.1555C377.369 81.6334 377.13 82.1113 377.25 82.3503Z" fill="#263238"/>
<path d="M365.411 60.8447C365.292 59.172 365.89 57.3799 367.325 56.3046C368.64 55.3488 370.792 55.3488 371.988 56.663C371.39 54.393 373.184 51.7645 375.575 51.6451C377.847 51.5256 379.64 53.1983 381.793 53.7956C383.945 54.393 386.097 53.9151 388.13 53.0788C390.163 52.2424 392.076 51.1672 394.109 50.4503C398.413 48.8971 403.196 49.1361 407.381 50.9282C411.447 52.8398 414.794 56.4241 416.468 60.6057C419.458 59.6499 422.806 61.2031 424.719 63.7121C426.513 66.2211 426.991 69.5664 426.632 72.6728C426.393 74.8233 425.795 76.7349 425.078 78.766C425.078 78.8855 425.078 79.1244 425.078 79.2439C424.958 86.7709 424.121 95.4926 420.893 95.612C415.273 95.7315 416.708 85.2177 416.708 85.2177C409.892 82.5892 412.403 72.3143 410.729 70.7611C409.055 69.208 405.468 65.6237 391.119 72.9117C385.619 75.7791 378.206 75.6596 374.14 74.7038C374.021 74.7038 373.901 74.7038 373.781 74.5844C373.781 74.5844 373.781 74.5844 373.662 74.5844H373.542C372.227 74.2259 371.031 73.748 369.835 73.0312C368.52 72.1949 367.324 71.1196 366.846 69.6859C366.248 68.2522 366.488 66.46 367.683 65.3847C366.368 64.0705 365.531 62.5173 365.411 60.8447Z" fill="#263238"/>
</g>
<defs>
<clipPath id="clip0_483_10361">
<rect width="793" height="492" fill="white" transform="translate(0 0.151367)"/>
</clipPath>
</defs>
</svg>
