<svg width="61" height="45" viewBox="0 0 61 45" fill="none" xmlns="http://www.w3.org/2000/svg">
<path d="M22.3564 7.51304L18.3615 3.99131C14.2128 6.75652 10.6276 10.7739 7.60579 16.0435C4.63518 21.2609 3.14987 26.3217 3.14987 31.2261C3.14987 34.9826 4.12301 37.6957 6.06927 39.3652C8.01553 40.9826 10.4484 41.7913 13.3678 41.7913C15.8774 41.7913 18.0029 40.8 19.7443 38.8174C21.4857 36.8348 22.3564 34.6174 22.3564 32.1652C22.3564 25.9565 19.0529 22.8522 12.4458 22.8522L12.1385 22.3826C13.1629 17.2174 16.5689 12.2609 22.3564 7.51304ZM50.7821 7.51304L46.864 3.99131C42.6642 6.75652 39.0533 10.7739 36.0315 16.0435C33.0609 21.2609 31.5756 26.3217 31.5756 31.2261C31.5756 34.9826 32.5487 37.6957 34.495 39.3652C36.4412 40.9826 38.8997 41.7913 41.8703 41.7913C44.3799 41.7913 46.4799 40.8 48.17 38.8174C49.9114 36.8348 50.7821 34.6174 50.7821 32.1652C50.7821 25.9565 47.4786 22.8522 40.8715 22.8522L40.5642 22.3826C41.6398 17.2696 45.0458 12.313 50.7821 7.51304ZM24.0466 0L32.5743 7.51304C26.7867 12.5217 23.0991 16.6957 21.5113 20.0348C25.199 20.4522 27.7855 22.0435 29.2708 24.8087C30.5 20.113 32.7536 15.4696 36.0315 10.8783C39.3606 6.28696 43.0227 2.66087 47.0176 0H52.5491L61 7.51304C55.2636 12.5217 51.6016 16.6957 50.0139 20.0348C56.3136 20.9739 59.4635 25.0174 59.4635 32.1652C59.4635 35.713 57.9782 38.7391 55.0076 41.2435C52.0882 43.7478 47.7091 45 41.8703 45C35.673 45 31.5756 42.6522 29.5781 37.9565C27.3757 42.6522 21.9723 45 13.3678 45C9.47523 45 6.27414 43.9044 3.76448 41.713C1.25483 39.5217 0 36.0261 0 31.2261C0 25.9044 1.81822 20.1913 5.45466 14.087C9.14232 7.98261 13.5214 3.28696 18.5919 0H24.0466Z" fill="#FF0000"/>
</svg>
