<svg width="100" height="101" viewBox="0 0 100 101" fill="none" xmlns="http://www.w3.org/2000/svg">
<path d="M50 100.965C77.6142 100.965 100 78.5791 100 50.9648C100 23.3506 77.6142 0.964844 50 0.964844C22.3858 0.964844 0 23.3506 0 50.9648C0 78.5791 22.3858 100.965 50 100.965Z" fill="#5869FF"/>
<g clip-path="url(#clip0_483_12161)">
<path d="M70.4051 38.9355C72.5383 38.9355 74.2673 40.6645 74.2673 42.7977V58.2463H66.543V42.7977C66.543 40.6645 68.2719 38.9355 70.4051 38.9355Z" fill="#FF876C"/>
<path d="M74.2645 30.5684C72.1313 30.5684 70.4023 32.2973 70.4023 34.4305V49.8791H78.1266V34.4305C78.1266 32.2972 76.3977 30.5684 74.2645 30.5684Z" fill="#FF9E90"/>
<path d="M78.1272 26.707C77.5466 26.707 76.9956 26.8358 76.5012 27.0662L74.8083 59.3705L67.8281 75.885L80.9446 57.4259C81.5599 56.5601 81.9893 54.9329 81.9893 53.8708V30.5692C81.9893 28.436 80.2604 26.707 78.1272 26.707Z" fill="#FF9E90"/>
<path d="M78.1282 30.5694V55.8021C78.1282 56.8641 77.7935 58.4695 77.3841 59.3707L67.8291 75.8852V82.9658H51.9414V79.1037L56.1139 64.4829L74.266 49.8801V30.5694C74.266 29.0168 75.1814 27.6792 76.5022 27.0664C77.4626 27.6792 78.1282 29.0181 78.1282 30.5694Z" fill="#FFB4B3"/>
<path d="M67.6739 47.1472C69.1814 45.6384 71.6274 45.6384 73.1349 47.1472C73.8893 47.9004 74.2665 48.8891 74.2665 49.8778C74.2665 50.8665 73.8893 51.8552 73.1349 52.6083L59.6657 66.0788V71.3774C59.6657 75.6258 56.1898 79.1017 51.9414 79.1017V66.0878C51.9414 63.9546 52.8014 62.0197 54.1982 60.6216L67.6739 47.1472Z" fill="#FFCAD6"/>
<path d="M29.5926 38.9355C27.4594 38.9355 25.7305 40.6645 25.7305 42.7977V58.2463H33.4548V42.7977C33.4548 40.6645 31.7258 38.9355 29.5926 38.9355Z" fill="#FF876C"/>
<path d="M25.7332 30.5684C23.6 30.5684 21.8711 32.2973 21.8711 34.4305V49.8791H29.5954V34.4305C29.5954 32.2973 27.8664 30.5684 25.7332 30.5684Z" fill="#FF9E90"/>
<path d="M48.0552 79.1035V82.9656H44.193L36.4688 67.4824L48.0552 79.1035Z" fill="#FF9E90"/>
<path d="M45.7987 60.6233L32.3239 47.1489C31.5038 46.3276 30.4057 45.9542 29.332 46.0263L44.1933 78.0619C45.3314 78.7236 46.6509 79.1034 48.0555 79.1034V66.0895C48.0555 63.9563 47.1955 62.0214 45.7987 60.6233Z" fill="#FFB4B3"/>
<path d="M43.2405 65.1354L25.7321 49.8799V30.5692C25.7321 28.436 24.0031 26.707 21.87 26.707C19.7368 26.707 18.0078 28.436 18.0078 30.5692V53.8708C18.0078 54.9329 18.4373 56.5601 19.0525 57.4259L32.169 75.885V82.9656H44.1947V78.062L43.2405 65.1354Z" fill="#FFB4B3"/>
<path d="M44.1935 66.0886V78.061C41.889 76.7208 40.3313 74.222 40.3313 71.3782V66.0796L26.8621 52.6091C26.1077 51.8559 25.7305 50.8672 25.7305 49.8785C25.7305 48.8898 26.1077 47.9011 26.8621 47.148C27.5483 46.4605 28.4314 46.0859 29.3313 46.0254C30.0741 46.0859 30.804 46.4605 31.3718 47.148L42.3293 60.6224C43.4841 62.0205 44.1935 63.9554 44.1935 66.0886Z" fill="#FFCAD6"/>
<path d="M57.6289 29.4636L59.4295 18.9648L55.1846 21.1965L48.6172 33.3257L61.8955 37.3871L65.2566 36.8987L57.6289 29.4636Z" fill="#FF9441"/>
<path d="M55.1812 21.1965L49.9977 23.9216L40.5693 18.9648L42.3699 29.4636L34.7422 36.8987L45.2835 38.4304L49.9977 47.9824L54.7119 38.4304L61.892 37.3871L53.7633 29.4636L55.1812 21.1965Z" fill="#FFB739"/>
</g>
<defs>
<clipPath id="clip0_483_12161">
<rect width="64" height="64" fill="white" transform="translate(18 18.9648)"/>
</clipPath>
</defs>
</svg>
