<svg width="100" height="101" viewBox="0 0 100 101" fill="none" xmlns="http://www.w3.org/2000/svg">
<path d="M50 100.965C77.6142 100.965 100 78.5791 100 50.9648C100 23.3506 77.6142 0.964844 50 0.964844C22.3858 0.964844 0 23.3506 0 50.9648C0 78.5791 22.3858 100.965 50 100.965Z" fill="#FF9500"/>
<path d="M33.5422 17.877L21.9414 29.4777V83.1869H74.4541V17.877H33.5422Z" fill="white"/>
<path d="M74.4527 17.877H49.918V83.1869H74.4527V17.877Z" fill="#E9EDF5"/>
<path d="M33.5439 29.4777L33.5463 17.877L21.9453 29.4779L33.5439 29.4777Z" fill="#87C7FF"/>
<path d="M36.3223 51.5762C41.624 51.5762 45.9219 47.2783 45.9219 41.9766C45.9219 36.6748 41.624 32.377 36.3223 32.377C31.0205 32.377 26.7227 36.6748 26.7227 41.9766C26.7227 47.2783 31.0205 51.5762 36.3223 51.5762Z" fill="#2864F0"/>
<path d="M36.3246 44.1707C38.603 44.1707 40.45 42.3237 40.45 40.0453C40.45 37.7669 38.603 35.9199 36.3246 35.9199C34.0462 35.9199 32.1992 37.7669 32.1992 40.0453C32.1992 42.3237 34.0462 44.1707 36.3246 44.1707Z" fill="#DBEEFF"/>
<path d="M36.324 51.5746C38.876 51.5746 41.1904 50.5641 42.8941 48.9234C41.8559 46.3109 39.3066 44.4629 36.324 44.4629C33.3414 44.4629 30.7924 46.3107 29.7539 48.9234C31.4576 50.5641 33.7721 51.5746 36.324 51.5746Z" fill="#DBEEFF"/>
<path d="M27.3008 63.834L69.0977 63.834L69.0977 59.4717L27.3008 59.4717L27.3008 63.834Z" fill="#A3D4FF"/>
<path d="M69.0986 59.4707H49.9219V63.833H69.0986V59.4707Z" fill="#87C7FF"/>
<path d="M27.3008 71.9062L69.0977 71.9062L69.0977 67.5439L27.3008 67.5439L27.3008 71.9062Z" fill="#A3D4FF"/>
<path d="M69.0986 67.543H49.9219V71.9051H69.0986V67.543Z" fill="#87C7FF"/>
<path d="M75.8864 14.7705L41.2109 21.584L47.3645 52.9006L82.0399 46.087L75.8864 14.7705Z" fill="#FFCE00"/>
<path d="M75.8863 14.7695L62.2422 17.4506V49.9775L82.0404 46.0871L75.8863 14.7695Z" fill="#FFA300"/>
<path d="M62.2354 34.4654C57.3863 34.4654 53.4414 30.5205 53.4414 25.6715H59.3008C59.3008 27.2896 60.6172 28.6061 62.2354 28.6061C63.8535 28.6061 65.1699 27.2896 65.1699 25.6715V17.9053C65.1699 16.2871 63.8535 14.9707 62.2354 14.9707C60.6172 14.9707 59.3008 16.2871 59.3008 17.9053H53.4414C53.4414 13.0562 57.3863 9.11133 62.2354 9.11133C67.0844 9.11133 71.0293 13.0562 71.0293 17.9053V25.6715C71.0293 30.5205 67.0844 34.4654 62.2354 34.4654Z" fill="#2864F0"/>
<path d="M62.2422 9.11133V14.9709C63.8561 14.9762 65.1674 16.29 65.1674 17.9051V25.6713C65.1674 27.2861 63.8561 28.6002 62.2422 28.6053V34.4648C67.0869 34.4598 71.0268 30.517 71.0268 25.6713V17.9051C71.0268 13.0594 67.0869 9.1166 62.2422 9.11133Z" fill="#27488F"/>
</svg>
