<svg width="100" height="101" viewBox="0 0 100 101" fill="none" xmlns="http://www.w3.org/2000/svg">
<g clip-path="url(#clip0_483_12084)">
<path d="M50 100.965C77.6142 100.965 100 78.5791 100 50.9648C100 23.3506 77.6142 0.964844 50 0.964844C22.3858 0.964844 0 23.3506 0 50.9648C0 78.5791 22.3858 100.965 50 100.965Z" fill="#21D0C3"/>
<path d="M67.0328 76.1133L70.3605 82.0791L66.5365 84.2123L63.209 78.2467C63.85 77.9068 64.4918 77.5596 65.133 77.2014C65.7746 76.8436 66.407 76.4811 67.0328 76.1133Z" fill="#666666"/>
<path d="M35.4703 24.0231C50.2182 15.797 68.8441 21.0843 77.0705 35.8321C85.2967 50.5798 80.0092 69.2052 65.2613 77.4313C50.5133 85.6575 31.8885 80.3704 23.6621 65.6225C15.4357 50.8747 20.7223 32.2489 35.4703 24.0231Z" fill="#666666"/>
<path d="M37.4013 27.4834C50.2384 20.3233 66.4503 24.9252 73.6105 37.7623C80.771 50.5994 76.169 66.8114 63.3321 73.9719C50.4946 81.1325 34.2829 76.5305 27.1222 63.6936C19.9618 50.8565 24.564 34.644 37.4013 27.4834Z" fill="#D9DADA"/>
<path d="M78.999 91.7008L74.4906 83.6185C74.0254 82.7844 72.9738 82.4746 72.1633 82.9265L66.3082 86.1927C65.4985 86.6445 65.2117 87.7056 65.6748 88.5363L70.2287 96.7008C73.3307 95.3261 76.2674 93.6486 78.999 91.7008Z" fill="#666666"/>
<path d="M75.1569 84.812L73.7032 82.2052C73.2379 81.3714 72.1897 81.0595 71.3762 81.5132L65.5207 84.7792C64.7082 85.2327 64.4223 86.2895 64.8869 87.1227L66.341 89.7298L75.1569 84.812Z" fill="#FEFEFE"/>
<path d="M75.1568 84.8115L73.7031 82.2049C73.258 81.4062 72.2781 81.0871 71.4809 81.4595L73.7793 85.5799L75.1568 84.8115ZM65.4201 84.8404C64.6854 85.322 64.442 86.324 64.8869 87.1219L66.341 89.7289L67.7182 88.9607L65.4201 84.8404Z" fill="#ECF0F1"/>
<path d="M60.908 74.8168C48.8666 80.6037 34.0766 75.7918 27.2789 63.6047C20.4807 51.4174 24.1569 36.3049 35.4077 29.0996C34.3487 30.0846 33.3864 31.1506 32.5223 32.283C25.5289 40.2373 24.0205 52.2596 29.6202 62.2984C35.2198 72.3373 46.2418 77.3703 56.6838 75.5992C58.1012 75.4592 59.5139 75.2002 60.908 74.8168Z" fill="#FEFEFE"/>
<path d="M66.4129 69.3255C76.3504 62.9177 79.3498 49.0911 73.0246 37.7515C66.6998 26.412 53.3594 21.7003 42.6855 26.7892C42.9576 26.7179 43.2311 26.652 43.5041 26.5913C53.8256 22.8395 66.0254 27.6374 71.9893 38.3296C77.9527 49.021 75.6258 61.9222 67.0109 68.7335C66.8152 68.9341 66.616 69.1319 66.4129 69.3255Z" fill="#FEFEFE"/>
<path d="M46.4084 48.3535C49.0459 48.3535 51.6834 48.3535 54.3205 48.3535L54.3639 48.8943L50.4973 54.7559L46.3438 48.8363L46.4084 48.3535Z" fill="#B3B3B3"/>
<path d="M46.4594 46.8828L46.391 50.1896L40.7812 53.257V64.5014H50.2242H59.6664V53.257L54.4531 50.0164L54.167 46.7109L46.4594 46.8828Z" fill="#F0BA7D"/>
<path d="M43.869 37.24C43.869 37.24 43.5475 36.533 42.6839 36.8838C41.8204 37.2338 42.7231 40.7262 43.0528 41.2133C43.3825 41.7002 43.9136 41.3908 44.1069 41.3719C44.3817 43.4537 44.4061 44.8887 45.2399 45.7662C46.0292 46.5977 47.8366 48.2916 48.7886 48.8824C49.4335 49.0184 49.9143 49.0986 50.3667 49.1225C50.819 49.0986 51.3005 49.0184 51.945 48.8824C52.897 48.2916 54.7044 46.5977 55.4936 45.7662C56.327 44.8887 56.3516 43.4537 56.6264 41.3719C56.8198 41.3908 57.3509 41.7002 57.6806 41.2133C58.011 40.7262 58.9136 37.2338 58.0495 36.8838C57.1858 36.5332 56.8641 37.24 56.8641 37.24C56.8641 37.24 57.7177 34.498 56.2005 31.7984C55.1606 29.9479 52.7888 28.9883 50.3665 28.918C47.9442 28.9883 45.5725 29.948 44.5325 31.7984C43.0155 34.4982 43.869 37.24 43.869 37.24Z" fill="#FED298"/>
<path d="M43.6412 51.1617L44.9846 50.6326L46.067 49.6598L49.8897 52.5592H50.8416L54.6654 49.6562L57.0908 51.1619L61.3057 58.3262L58.0064 76.226C53.3879 77.6146 48.5713 77.6855 44.0502 76.5803L38.1328 58.8982L43.6412 51.1617Z" fill="#15BDB2"/>
<path d="M55.8627 50.2563L54.3197 48.3535L50.8398 52.5598L53.8268 55.8783L55.8627 50.2563Z" fill="#21D0C3"/>
<path d="M44.8633 50.2227L46.4084 48.3535L49.8885 52.5598L46.783 55.8441L44.8633 50.2227Z" fill="#21D0C3"/>
<path d="M44.8637 50.2227L34.6354 53.549C34.2193 53.684 33.958 54.0377 33.8736 54.4668L31.0059 68.9998C33.0047 71.1207 35.31 72.8648 37.8121 74.2L39.2154 69.6207C39.2324 69.5652 39.2857 69.5301 39.3441 69.5369C39.4018 69.5441 39.4463 69.5902 39.4496 69.6486L39.6547 75.0934C43.0193 76.5695 46.6703 77.3428 50.3654 77.3463V75.5652L44.8637 50.2227Z" fill="white"/>
<path d="M55.8639 50.2559L66.0953 53.5486C66.5123 53.6826 66.7721 54.0373 66.8568 54.4664L69.725 69.0006C67.9059 70.9268 65.7674 72.6121 63.3309 73.9711C63.1934 74.0477 63.0551 74.1211 62.9166 74.1953L61.5148 69.6203C61.4975 69.5646 61.4439 69.5293 61.3859 69.5363C61.3279 69.5436 61.284 69.5898 61.2805 69.6484L61.0758 75.0926C57.6137 76.6195 53.9687 77.3484 50.3652 77.3455V75.5645L55.8639 50.2559Z" fill="white"/>
<path d="M51.5252 75.4453C51.1803 75.4453 50.9004 75.7242 50.9004 76.068C50.9004 76.4127 51.1803 76.6914 51.5252 76.6914C51.8701 76.6914 52.15 76.4127 52.15 76.068C52.15 75.7244 51.8699 75.4453 51.5252 75.4453Z" fill="#D9DADA"/>
<path d="M56.118 38.0571L56.7196 38.0362L56.9129 37.3495L57.4801 36.7837C57.8544 33.9644 57.9649 29.5763 55.1667 29.7028C55.1667 29.7028 54.9141 26.5028 49.8663 27.1304C44.818 27.7581 42.5366 31.0165 42.8088 33.7359C43.0809 36.4544 42.9708 36.7839 42.9708 36.7839L43.5378 37.3497L43.6231 38.1312L44.1186 38.1001C44.1186 38.1001 44.2737 37.054 44.4288 36.5939C44.5846 36.1339 44.536 35.203 44.536 35.203C44.536 35.203 50.4985 35.5829 52.1096 33.5333C53.1049 32.2681 55.3901 30.0745 55.5057 33.112C55.5399 34.0124 55.2051 35.3624 55.8456 36.3452C56.4872 37.3276 56.1182 38.0571 56.118 38.0571Z" fill="#666666"/>
<path d="M50.3658 75.5654L51.9777 68.1471L50.8828 53.5236L51.4793 53.2689L50.8414 52.5605H49.8895L49.235 53.2525L49.849 53.5236L48.7812 68.2654L50.3658 75.5654Z" fill="#0F7986"/>
<path d="M51.4695 75.4453C51.1551 75.4453 50.9002 75.6992 50.9002 76.0125C50.9002 76.3262 51.1549 76.5803 51.4695 76.5803C51.7832 76.5803 52.0383 76.3262 52.0383 76.0125C52.0385 75.6994 51.7832 75.4453 51.4695 75.4453Z" fill="white"/>
<path d="M60.3887 66.0554C59.2809 65.8644 58.5377 64.8108 58.7293 63.7032C58.9205 62.5958 59.9735 61.8524 61.0815 62.0437C62.1893 62.2349 62.9322 63.2886 62.7406 64.3962C62.5496 65.5032 61.4963 66.2464 60.3887 66.0554Z" fill="#FEFEFE"/>
<path d="M60.4096 65.9369C59.366 65.7572 58.6662 64.7656 58.8467 63.7222C59.0268 62.6787 60.0186 61.9789 61.0617 62.1592C62.1053 62.3392 62.8047 63.331 62.6246 64.3744C62.4446 65.4179 61.4526 66.1172 60.4096 65.9369Z" fill="#0F7986"/>
<path d="M60.5557 65.0943C59.9786 64.9947 59.5917 64.4455 59.6915 63.8683C59.7909 63.2912 60.3397 62.9044 60.9165 63.0039C61.494 63.1039 61.8807 63.6521 61.7811 64.2296C61.6821 64.8066 61.1333 65.1941 60.5557 65.0943Z" fill="#EBECEC"/>
<path d="M60.6797 63.1178L61.1459 63.1981L61.3961 61.7465L60.9305 61.666L60.6797 63.1178Z" fill="#FEFEFE"/>
<path d="M45.0694 66.4565L45.9426 66.2833C46.3137 66.2097 46.6211 65.9909 46.817 65.698C47.0127 65.4052 47.0977 65.0376 47.0239 64.6665L45.9967 59.4919C45.6092 57.5392 44.0817 56.5433 42.3362 56.3224C41.6674 56.238 40.966 56.2687 40.2866 56.4032C39.6067 56.5376 38.9475 56.7767 38.3621 57.1105C36.8371 57.9788 35.8092 59.4806 36.1977 61.4366L37.2248 66.6114C37.2983 66.9827 37.5174 67.2896 37.81 67.4855H37.8108C38.1041 67.6814 38.4709 67.7661 38.8422 67.6923L39.7145 67.5194L39.6434 67.1595L38.7703 67.3327C38.4983 67.3868 38.2285 67.3247 38.0141 67.1812C37.7993 67.0366 37.6387 66.812 37.5844 66.5399L36.5573 61.3649C36.2051 59.5903 37.1467 58.2228 38.5424 57.4284C39.0934 57.114 39.7157 56.8882 40.3578 56.761C41 56.6339 41.661 56.6052 42.291 56.6847C43.8885 56.8868 45.2858 57.7919 45.6373 59.5632L46.6647 64.738C46.7184 65.0093 46.6561 65.279 46.5127 65.4937C46.3686 65.7087 46.1438 65.8692 45.8715 65.9233L44.9983 66.0964L45.0694 66.4565Z" fill="#21D0C3"/>
<path d="M46.2748 60.2589L46.118 59.4689C45.7186 57.4556 44.1467 56.429 42.3524 56.2023C41.6705 56.1163 40.9565 56.1472 40.2643 56.2841C39.5723 56.4214 38.9004 56.6652 38.3035 57.005C36.735 57.8984 35.6789 59.4447 36.0791 61.4613L36.2358 62.2519L36.8356 62.1325L36.6783 61.3419C36.3385 59.6279 37.2516 58.3046 38.6033 57.5347C39.144 57.2271 39.7533 57.0062 40.383 56.8814C41.0123 56.7566 41.6606 56.7284 42.278 56.8064C43.8256 57.0021 45.1791 57.8769 45.5186 59.5874L45.6752 60.3781L46.2748 60.2589Z" fill="#4D4D4D"/>
<path d="M39.023 67.7359L39.4904 67.6431C39.6076 67.7749 39.7891 67.8423 39.974 67.8056C40.2521 67.7505 40.4326 67.4802 40.3773 67.2019C40.3224 66.9247 40.0525 66.7439 39.7738 66.7989C39.589 66.8359 39.4469 66.9677 39.389 67.1343L38.9221 67.2269L39.023 67.7359Z" fill="#076673"/>
<path d="M45.4409 66.462L44.9745 66.5548C44.9163 66.721 44.7745 66.8532 44.5894 66.8897C44.3115 66.9446 44.0417 66.764 43.9866 66.4858C43.9316 66.2085 44.1118 65.9384 44.3896 65.8829C44.5747 65.8462 44.7566 65.9146 44.8732 66.0454L45.3402 65.9528L45.4409 66.462Z" fill="#076673"/>
<path d="M40.5478 56.2377L40.3697 55.3398L40.0158 55.4102L39.6621 55.4801L39.8422 56.3865C39.9771 56.3471 40.1139 56.3139 40.2516 56.2865C40.3494 56.2672 40.4484 56.2508 40.5478 56.2377Z" fill="#666666"/>
<path d="M39.783 67.2377C39.8674 67.2209 39.9219 67.1389 39.9049 67.0551C39.8883 66.9709 39.8071 66.916 39.7227 66.9326C39.6387 66.95 39.584 67.0315 39.6006 67.1155C39.6176 67.1993 39.6991 67.2539 39.783 67.2377Z" fill="#0F7986"/>
<path d="M44.4028 66.3189C44.4864 66.3024 44.5411 66.2208 44.5245 66.137C44.5077 66.0526 44.4263 65.998 44.3419 66.0148C44.2577 66.0314 44.203 66.1132 44.2198 66.1974C44.2368 66.2814 44.3183 66.3357 44.4028 66.3189Z" fill="#0F7986"/>
<path d="M60.4986 65.0835C59.9527 64.9894 59.5865 64.4698 59.6808 63.9243C59.775 63.3784 60.2937 63.0124 60.8396 63.1066C61.3855 63.2007 61.7515 63.7196 61.6576 64.2653C61.5631 64.811 61.0439 65.1776 60.4986 65.0835Z" fill="#FEFEFE"/>
<path d="M44.8698 50.4914C44.854 50.4918 39.3411 50.5373 40.2727 55.3604L39.7594 55.4584C38.7098 50.0209 44.8462 49.9711 44.8637 49.9707L44.8698 50.4914Z" fill="#4D4D4D"/>
<path d="M55.8719 49.9961C56.7711 50.0205 58.5102 50.2658 59.848 51.8936C61.1578 53.4867 62.076 56.4125 61.3895 61.7764L60.8723 61.7113C61.5367 56.5193 60.6785 53.7238 59.4455 52.2248C58.2416 50.7598 56.6713 50.5389 55.8594 50.517L55.8719 49.9961Z" fill="#4D4D4D"/>
</g>
<defs>
<clipPath id="clip0_483_12084">
<rect width="100" height="100" fill="white" transform="translate(0 0.964844)"/>
</clipPath>
</defs>
</svg>
