<svg width="100" height="101" viewBox="0 0 100 101" fill="none" xmlns="http://www.w3.org/2000/svg">
<path d="M50 100.965C77.6142 100.965 100 78.5791 100 50.9648C100 23.3506 77.6142 0.964844 50 0.964844C22.3858 0.964844 0 23.3506 0 50.9648C0 78.5791 22.3858 100.965 50 100.965Z" fill="#FB42FF"/>
<path d="M68.022 21.8867H28.627V77.8867H68.022V21.8867Z" fill="#FDFEFF"/>
<path d="M64.6179 27.1641H39.4629V28.1641H64.6179V27.1641Z" fill="#D2D2D4"/>
<path d="M64.6179 29.8301H39.4629V30.8301H64.6179V29.8301Z" fill="#D2D2D4"/>
<path d="M64.6179 35.7695H39.4629V36.7695H64.6179V35.7695Z" fill="#D2D2D4"/>
<path d="M64.6179 38.4355H39.4629V39.4355H64.6179V38.4355Z" fill="#D2D2D4"/>
<path d="M64.6179 44.375H39.4629V45.375H64.6179V44.375Z" fill="#D2D2D4"/>
<path d="M64.6179 47.041H39.4629V48.041H64.6179V47.041Z" fill="#D2D2D4"/>
<path d="M64.6179 52.9805H39.4629V53.9805H64.6179V52.9805Z" fill="#D2D2D4"/>
<path d="M64.6179 55.6465H39.4629V56.6465H64.6179V55.6465Z" fill="#D2D2D4"/>
<path d="M64.6179 61.5859H39.4629V62.5859H64.6179V61.5859Z" fill="#D2D2D4"/>
<path d="M64.6179 64.25H39.4629V65.25H64.6179V64.25Z" fill="#D2D2D4"/>
<path d="M36.6448 26.6895H32.0293V31.305H36.6448V26.6895Z" fill="#70B1E1"/>
<path d="M36.6448 35.2949H32.0293V39.9104H36.6448V35.2949Z" fill="#70B1E1"/>
<path d="M36.6448 43.9004H32.0293V48.5159H36.6448V43.9004Z" fill="#70B1E1"/>
<path d="M36.6448 52.5059H32.0293V57.1214H36.6448V52.5059Z" fill="#70B1E1"/>
<path d="M36.6448 61.1113H32.0293V65.7268H36.6448V61.1113Z" fill="#70B1E1"/>
<path d="M64.19 80.0438C70.3667 80.0438 75.374 75.0365 75.374 68.8598C75.374 62.683 70.3667 57.6758 64.19 57.6758C58.0132 57.6758 53.006 62.683 53.006 68.8598C53.006 75.0365 58.0132 80.0438 64.19 80.0438Z" fill="#D64331"/>
<path d="M64.1894 77.9393C69.2041 77.9393 73.2694 73.874 73.2694 68.8593C73.2694 63.8446 69.2041 59.7793 64.1894 59.7793C59.1746 59.7793 55.1094 63.8446 55.1094 68.8593C55.1094 73.874 59.1746 77.9393 64.1894 77.9393Z" fill="#F1592F"/>
<path d="M62.87 73.052L58.4355 68.6175L59.749 67.3035L62.87 70.424L68.6275 64.666L69.9415 65.98L62.87 73.052Z" fill="#FDFEFF"/>
</svg>
