<svg width="100" height="101" viewBox="0 0 100 101" fill="none" xmlns="http://www.w3.org/2000/svg">
<path d="M50 100.965C77.6142 100.965 100 78.5791 100 50.9648C100 23.3506 77.6142 0.964844 50 0.964844C22.3858 0.964844 0 23.3506 0 50.9648C0 78.5791 22.3858 100.965 50 100.965Z" fill="#FFAE35"/>
<path fill-rule="evenodd" clip-rule="evenodd" d="M26.2592 20.2148H57.6199V28.7216C57.6199 30.4137 58.9947 31.7887 60.687 31.7887H69.1937V55.8585C61.3641 55.8586 55.0159 62.2068 55.0159 70.0365C55.0159 72.1742 55.4901 74.201 56.3376 76.0188H26.2592C25.6346 76.0188 25.125 75.5093 25.125 74.8847V21.3491C25.1251 20.7243 25.6346 20.2148 26.2592 20.2148ZM60.12 20.3132V28.7217C60.12 29.0341 60.3748 29.2888 60.6871 29.2888H69.0956C69.0406 29.1683 68.9626 29.0575 68.8617 28.9566L60.4522 20.5471C60.3512 20.4462 60.2404 20.3682 60.12 20.3132ZM51.8053 60.2013H35.8106C35.1842 60.2013 34.6764 60.7092 34.6764 61.3356C34.6764 61.962 35.1842 62.4698 35.8106 62.4698H51.8053C52.4316 62.4698 52.9395 61.962 52.9395 61.3356C52.9394 60.7092 52.4316 60.2013 51.8053 60.2013ZM51.8053 67.1047H35.8106C35.1842 67.1047 34.6764 67.6126 34.6764 68.239C34.6764 68.8653 35.1842 69.3732 35.8106 69.3732H51.8053C52.4316 69.3732 52.9395 68.8653 52.9395 68.239C52.9394 67.6126 52.4316 67.1047 51.8053 67.1047ZM58.5084 53.2981H35.8106C35.1842 53.2981 34.6764 53.806 34.6764 54.4323C34.6764 55.0587 35.1842 55.5666 35.8106 55.5666H58.5082C59.1346 55.5666 59.6425 55.0587 59.6425 54.4323C59.6425 53.8058 59.1348 53.2981 58.5084 53.2981ZM44.5557 29.7591C44.2434 29.7591 43.9886 30.0138 43.9886 30.3261V34.5278H39.787C39.4746 34.5278 39.2199 34.7826 39.2199 35.095V40.3025C39.2199 40.6148 39.4746 40.8695 39.787 40.8695H43.9886V45.0712C43.9886 45.3836 44.2434 45.6383 44.5557 45.6383H49.7633C50.0756 45.6383 50.3304 45.3836 50.3304 45.0712V40.8695H54.5321C54.8445 40.8695 55.0991 40.6147 55.0991 40.3025V35.095C55.0991 34.7826 54.8444 34.5278 54.5321 34.5278H50.3304V30.3262C50.3304 30.0138 50.0756 29.7592 49.7633 29.7592H44.5557V29.7591ZM80.8721 70.0365C80.8721 63.5865 75.6435 58.3585 69.194 58.3585C62.744 58.3585 57.5159 63.5866 57.5159 70.0365C57.5159 76.486 62.744 81.7146 69.194 81.7146C75.6435 81.7146 80.8721 76.486 80.8721 70.0365ZM70.4639 76.5886C71.1125 76.4016 71.697 76.0758 72.1742 75.6496C72.9839 74.9266 73.4847 73.9201 73.4847 72.8018C73.4847 71.6835 72.9839 70.6771 72.1742 69.9541C71.401 69.2636 70.3465 68.8365 69.194 68.8365C68.6671 68.8365 68.2013 68.6556 67.874 68.3635C67.5833 68.1038 67.4033 67.7525 67.4033 67.3711C67.4033 66.9898 67.5831 66.6385 67.874 66.3788C68.2046 66.0836 68.6709 65.9008 69.194 65.9008C69.4485 65.9008 69.6965 65.948 69.9271 66.0333C70.1546 66.1175 70.3536 66.2356 70.514 66.379C71.0264 66.8375 71.8134 66.7937 72.2719 66.2813C72.7302 65.769 72.6866 64.982 72.1742 64.5235C71.774 64.166 71.3031 63.8807 70.7865 63.6896C70.6666 63.6452 70.5436 63.6058 70.4177 63.5716L70.403 62.9526C70.3869 62.265 69.8162 61.7206 69.1286 61.7367C68.441 61.7528 67.8966 62.3235 67.9128 63.0111L67.9265 63.587C67.2755 63.773 66.6901 64.0978 66.2138 64.5233C65.4041 65.2463 64.9033 66.2528 64.9033 67.3711C64.9033 68.4895 65.4041 69.4958 66.2138 70.2188C66.987 70.9093 68.0415 71.3365 69.194 71.3365C69.7209 71.3365 70.1867 71.5172 70.514 71.8095C70.8047 72.0691 70.9847 72.4205 70.9847 72.8017C70.9847 73.183 70.8049 73.5343 70.514 73.794C70.1867 74.0862 69.7209 74.267 69.194 74.267C68.8281 74.267 68.5645 74.2071 68.3451 74.0961C68.0842 73.9642 67.8167 73.7365 67.5044 73.4417C67.0027 72.9698 66.2135 72.9938 65.7416 73.4955C65.2697 73.9971 65.2937 74.7863 65.7954 75.2582C66.2629 75.6992 66.6931 76.0551 67.222 76.3227C67.4609 76.4436 67.7084 76.5411 67.9726 76.6137L67.9849 77.1203C68.001 77.808 68.5716 78.3523 69.2592 78.3362C69.9469 78.3201 70.4913 77.7495 70.4751 77.0618L70.4639 76.5886Z" fill="white"/>
</svg>
