<svg width="100" height="101" viewBox="0 0 100 101" fill="none" xmlns="http://www.w3.org/2000/svg">
<path d="M50 100.965C77.6142 100.965 100 78.5791 100 50.9648C100 23.3506 77.6142 0.964844 50 0.964844C22.3858 0.964844 0 23.3506 0 50.9648C0 78.5791 22.3858 100.965 50 100.965Z" fill="#ADFF00"/>
<path d="M46.332 75.875H53.7553V76.5128H46.332V75.875Z" fill="#344D5B"/>
<path d="M47.1523 74.0117V76.931C47.1523 77.3758 47.513 77.7365 47.9579 77.7365H52.1278C52.5726 77.7365 52.9333 77.3758 52.9333 76.931V74.0117H47.1523Z" fill="#293B44"/>
<path d="M58.6736 26.0382C58.4061 25.919 58.0927 26.0394 57.9736 26.3069L56.8311 28.8728C56.712 29.1403 56.8323 29.4538 57.0998 29.5729C57.3674 29.692 57.6808 29.5716 57.7999 29.3042L58.9423 26.7382C59.0614 26.4707 58.9411 26.1573 58.6736 26.0382Z" fill="#64798A"/>
<path d="M65.8475 31.2496C65.6516 31.032 65.3163 31.0145 65.0987 31.2104L63.0114 33.0899C62.7938 33.2858 62.7762 33.621 62.9721 33.8387C63.1681 34.0563 63.5033 34.0738 63.7209 33.8779L65.8083 31.9984C66.0259 31.8025 66.0435 31.4673 65.8475 31.2496Z" fill="#64798A"/>
<path d="M70.2802 38.931C70.1897 38.6525 69.8905 38.5001 69.6121 38.5905L66.9407 39.4585C66.6622 39.549 66.5098 39.8481 66.6003 40.1266C66.6908 40.4051 66.9899 40.5575 67.2684 40.467L69.9397 39.599C70.2182 39.5086 70.3706 39.2095 70.2802 38.931Z" fill="#64798A"/>
<path d="M71.2103 47.7504C71.2409 47.4591 71.0297 47.1982 70.7385 47.1676L67.945 46.874C67.6538 46.8434 67.3929 47.0547 67.3623 47.3459C67.3317 47.6371 67.543 47.898 67.8342 47.9286L70.6276 48.2222C70.9188 48.2528 71.1797 48.0416 71.2103 47.7504Z" fill="#64798A"/>
<path d="M68.4688 56.1842C68.6153 55.9306 68.5283 55.6063 68.2748 55.4599L65.8423 54.0555C65.5887 53.9091 65.2644 53.996 65.118 54.2496C64.9716 54.5032 65.0585 54.8274 65.3121 54.9738L67.7446 56.3782C67.9981 56.5246 68.3224 56.4378 68.4688 56.1842Z" fill="#64798A"/>
<path d="M31.5282 56.1842C31.6746 56.4378 31.9988 56.5246 32.2524 56.3782L34.6849 54.9738C34.9385 54.8274 35.0254 54.5032 34.879 54.2496C34.7326 53.996 34.4083 53.9091 34.1547 54.0555L31.7222 55.4599C31.4686 55.6063 31.3817 55.9306 31.5282 56.1842Z" fill="#64798A"/>
<path d="M28.7881 47.7504C28.8187 48.0416 29.0796 48.2528 29.3708 48.2222L32.1642 47.9286C32.4554 47.898 32.6667 47.6371 32.6361 47.3459C32.6055 47.0547 32.3446 46.8434 32.0534 46.874L29.26 47.1676C28.9688 47.1982 28.7575 47.4591 28.7881 47.7504Z" fill="#64798A"/>
<path d="M29.7136 38.931C29.6231 39.2095 29.7755 39.5086 30.054 39.599L32.7253 40.467C33.0038 40.5575 33.3029 40.4051 33.3934 40.1266C33.4839 39.8481 33.3315 39.549 33.053 39.4585L30.3817 38.5905C30.1032 38.5001 29.8041 38.6525 29.7136 38.931Z" fill="#64798A"/>
<path d="M34.1479 31.2496C33.952 31.4673 33.9696 31.8025 34.1871 31.9984L36.2745 33.8779C36.4921 34.0738 36.8273 34.0563 37.0233 33.8387C37.2192 33.621 37.2016 33.2858 36.9841 33.0899L34.8967 31.2104C34.6791 31.0145 34.3439 31.032 34.1479 31.2496Z" fill="#64798A"/>
<path d="M41.3225 26.0382C41.055 26.1573 40.9347 26.4707 41.0538 26.7382L42.1962 29.3042C42.3153 29.5716 42.6287 29.692 42.8962 29.5729C43.1638 29.4538 43.284 29.1403 43.165 28.8728L42.0225 26.3069C41.9034 26.0394 41.59 25.919 41.3225 26.0382Z" fill="#64798A"/>
<path d="M49.999 24.1934C49.7061 24.1934 49.4688 24.4308 49.4688 24.7236V27.5324C49.4688 27.8252 49.7061 28.0626 49.999 28.0626C50.2918 28.0626 50.5292 27.8252 50.5292 27.5324V24.7236C50.5292 24.4308 50.2918 24.1934 49.999 24.1934Z" fill="#64798A"/>
<path d="M45.4375 69.0859V73.7386C45.4375 74.4477 46.0123 75.0225 46.7214 75.0225H53.3673C54.0764 75.0225 54.6512 74.4477 54.6512 73.7386V69.0859H45.4375Z" fill="#344D5B"/>
<path d="M66.169 44.1201C65.5048 36.1945 59.0044 29.8346 51.0672 29.3271C41.6223 28.7233 33.7734 36.2052 33.7734 45.5201C33.7734 49.8448 35.4652 53.7747 38.2249 56.6829C41.2257 59.8452 43.1678 63.8348 43.7251 68.1049C43.8355 68.9507 44.5443 69.5882 45.3973 69.5882H54.6094C55.4647 69.5882 56.1746 68.9475 56.2829 68.0991C56.8196 63.8939 58.6184 59.9135 61.6037 56.8622C64.7651 53.6308 66.585 49.0838 66.169 44.1201Z" fill="#FFA500"/>
<path d="M50.001 56.8361C56.3033 56.8361 61.4122 51.7271 61.4122 45.4249C61.4122 39.1226 56.3033 34.0137 50.001 34.0137C43.6988 34.0137 38.5898 39.1226 38.5898 45.4249C38.5898 51.7271 43.6988 56.8361 50.001 56.8361Z" fill="#FCD462"/>
<path d="M49.6052 52.8664V51.3879C48.8659 51.2948 48.2649 51.1291 47.8022 50.8909C47.3395 50.6527 46.9397 50.268 46.6029 49.7368C46.2662 49.2056 46.0704 48.5567 46.0156 47.7901L47.5024 47.5108C47.6174 48.3048 47.82 48.888 48.1102 49.2604C48.5264 49.7861 49.0247 50.0791 49.6052 50.1393V45.4326C48.9973 45.3176 48.3758 45.0822 47.7406 44.7262C47.2696 44.4634 46.9069 44.0992 46.6522 43.6337C46.3976 43.1683 46.2703 42.6398 46.2703 42.0484C46.2703 40.997 46.6426 40.1455 47.3874 39.4938C47.8857 39.0557 48.625 38.7874 49.6052 38.6888V37.9824H50.4759V38.6888C51.3356 38.771 52.0174 39.0229 52.5212 39.4445C53.1674 39.9812 53.5562 40.7177 53.6876 41.6541L52.1598 41.8841C52.0722 41.3037 51.8901 40.8587 51.6135 40.5493C51.337 40.2399 50.9578 40.036 50.4759 39.9374V44.2005C51.2206 44.3867 51.7135 44.5318 51.9544 44.6359C52.4144 44.8385 52.7895 45.0849 53.0798 45.3751C53.37 45.6654 53.5931 46.0104 53.7492 46.4101C53.9053 46.8099 53.9833 47.2425 53.9833 47.7079C53.9833 48.732 53.6575 49.5862 53.0058 50.2707C52.3542 50.9552 51.5109 51.3221 50.4759 51.3714V52.8664H49.6052ZM49.6052 39.921C49.0302 40.0086 48.5771 40.2386 48.2458 40.6109C47.9145 40.9833 47.7488 41.4241 47.7488 41.9334C47.7488 42.4372 47.8898 42.8589 48.1718 43.1984C48.4538 43.5379 48.9316 43.809 49.6052 44.0116V39.921ZM50.4759 50.1393C51.0509 50.0681 51.5259 49.819 51.901 49.3918C52.2761 48.9647 52.4637 48.4363 52.4637 47.8065C52.4637 47.2698 52.3309 46.8386 52.0653 46.5128C51.7997 46.187 51.2699 45.8954 50.4759 45.638V50.1393Z" fill="#F7BE56"/>
</svg>
