<svg width="48" height="49" viewBox="0 0 48 49" fill="none" xmlns="http://www.w3.org/2000/svg">
<ellipse cx="24" cy="24.6274" rx="24" ry="24.0229" fill="#EA1C2D" fill-opacity="0.1"/>
<g clip-path="url(#clip0_0_4317)">
<path d="M33.5 34.6373H14.5C13.1 34.6373 12 33.5363 12 32.1349V20.1235C12 18.7221 13.1 17.6211 14.5 17.6211H33.5C34.9 17.6211 36 18.7221 36 20.1235V32.1349C36 33.5363 34.9 34.6373 33.5 34.6373ZM14.5 18.622C13.7 18.622 13 19.3227 13 20.1235V32.1349C13 32.9357 13.7 33.6364 14.5 33.6364H33.5C34.3 33.6364 35 32.9357 35 32.1349V20.1235C35 19.3227 34.3 18.622 33.5 18.622H14.5Z" fill="#EA1C2D"/>
<path d="M27.5 18.622C27.2 18.622 27 18.4218 27 18.1215V16.1196C27 15.8193 26.8 15.6191 26.5 15.6191H21.5C21.2 15.6191 21 15.8193 21 16.1196V18.1215C21 18.4218 20.8 18.622 20.5 18.622C20.2 18.622 20 18.4218 20 18.1215V16.1196C20 15.3188 20.7 14.6182 21.5 14.6182H26.5C27.3 14.6182 28 15.3188 28 16.1196V18.1215C28 18.4218 27.8 18.622 27.5 18.622Z" fill="#EA1C2D"/>
<path d="M23.9993 26.6302C23.8993 26.6302 23.8993 26.6302 23.7993 26.6302L12.2993 22.6264C12.0993 22.5263 11.8993 22.226 11.9993 21.9257C12.0993 21.7255 12.3993 21.5253 12.6993 21.6254L23.9993 25.6292L35.2993 21.6254C35.5993 21.5253 35.7993 21.6254 35.8993 21.9257C35.9993 22.226 35.8993 22.4262 35.5993 22.5263L24.0993 26.5301C24.0993 26.6302 24.0993 26.6302 23.9993 26.6302Z" fill="#EA1C2D"/>
<path d="M23.6069 24.1798V19.957H24.3228V24.1798H23.6069ZM21.8555 22.4267V21.7101H26.0742V22.4267H21.8555Z" fill="#EA1C2D"/>
</g>
<defs>
<clipPath id="clip0_0_4317">
<rect width="24" height="24.0229" fill="white" transform="translate(12 12.6162)"/>
</clipPath>
</defs>
</svg>
