<svg width="48" height="49" viewBox="0 0 48 49" fill="none" xmlns="http://www.w3.org/2000/svg">
<ellipse cx="24" cy="24.437" rx="24" ry="24.0229" fill="#EA1C2D" fill-opacity="0.1"/>
<path d="M31.9536 21.2612C30.8953 20.1903 29.4879 19.6006 27.9917 19.6006C26.6352 19.6006 25.3522 20.0851 24.3238 20.9849C23.3057 20.0894 22.0175 19.6006 20.655 19.6006C20.655 19.6006 20.655 19.6006 20.6546 19.6006C19.1584 19.6006 17.751 20.1903 16.6927 21.2612C15.3041 22.6675 14.7574 24.7135 15.2166 26.6163H15.0179L14.0382 23.2085C13.9823 23.0142 13.8114 22.8809 13.599 22.892C13.397 22.9008 13.2273 23.0466 13.1884 23.2451L12.5271 26.6163H10.8438C10.6019 26.6163 10.4062 26.8121 10.4062 27.0542C10.4062 27.2962 10.6019 27.4921 10.8438 27.4921H12.8873C13.0962 27.4921 13.2765 27.3441 13.3166 27.1384L13.6982 25.193L14.2681 27.1752C14.3219 27.3629 14.4937 27.4921 14.6885 27.4921H15.7682C15.7755 27.4926 15.7826 27.4919 15.7899 27.4921H15.9104L16.8452 30.9475C16.8965 31.1374 17.0683 31.2696 17.2648 31.2708H17.2674C17.4631 31.2708 17.6348 31.1408 17.6882 30.9522L17.8375 30.4255L20.2273 32.8463C21.2844 33.9189 22.6909 34.5095 24.1875 34.5095H24.4588C25.9537 34.5095 27.3615 33.9189 28.4232 32.8467L31.9535 29.269C34.1359 27.061 34.1359 23.4687 31.9536 21.2612ZM31.331 28.6532L27.8011 32.2305C26.9052 33.1354 25.7183 33.6336 24.4588 33.6336H24.1875C22.9267 33.6336 21.7415 33.1354 20.8499 32.2309L18.1119 29.4574L18.6687 27.4921H19.4083C19.5971 27.4921 19.7642 27.371 19.8236 27.1919L20.4789 25.2097L21.1343 27.1919C21.1937 27.3711 21.3608 27.4921 21.5496 27.4921H22.4609L23.5863 29.5187C23.6623 29.6556 23.8059 29.7415 23.9623 29.7437C24.1319 29.7424 24.2648 29.6642 24.3447 29.5294L25.5303 27.531H26.1562C26.3981 27.531 26.5938 27.3351 26.5938 27.0931C26.5938 26.851 26.3981 26.6551 26.1562 26.6551H25.2812C25.127 26.6551 24.9839 26.7364 24.9053 26.8694L23.9811 28.4269L23.1006 26.8412C23.0232 26.7026 22.8771 26.6162 22.7182 26.6162H21.8659L20.8943 23.678C20.8349 23.4986 20.6679 23.3776 20.479 23.3776C20.2902 23.3776 20.1231 23.4986 20.0638 23.678L19.0922 26.6162H18.3381C18.1424 26.6162 17.9707 26.7462 17.9173 26.9348L17.2773 29.1932L16.6676 26.9395C16.6163 26.7488 16.4428 26.6162 16.2455 26.6162H16.1304C15.6477 24.9478 16.0895 23.1184 17.3149 21.8769C18.2074 20.9737 19.3939 20.4763 20.6546 20.4763H20.6551C21.9159 20.4763 23.1019 20.9739 24.0137 21.8962C24.0961 21.9785 24.2286 22.0146 24.3328 22.0157C24.4495 22.0154 24.5695 21.9599 24.6516 21.8769C25.5441 20.9737 26.7305 20.4763 27.9918 20.4763C29.2526 20.4763 30.4391 20.9737 31.3316 21.8769C33.178 23.7452 33.178 26.7848 31.331 28.6532Z" fill="#EA1C2D"/>
<path d="M21.5906 16.3794C22.334 15.6353 23.3171 15.2192 24.392 15.2418C25.458 15.2523 26.4646 15.6778 27.2268 16.4403C27.3123 16.5256 27.4242 16.5684 27.5361 16.5684C27.648 16.5684 27.76 16.5256 27.8454 16.4401C28.0163 16.2688 28.0163 15.9917 27.8454 15.8206C26.92 14.8954 25.6968 14.3788 24.4006 14.366C23.0889 14.3435 21.8837 14.8481 20.9719 15.7597C20.801 15.9305 20.801 16.2078 20.9719 16.3789C21.1428 16.5505 21.4197 16.5501 21.5906 16.3794Z" fill="#EA1C2D"/>
<path d="M26.2942 17.8075C26.4057 17.8075 26.5168 17.7652 26.6022 17.6805C26.774 17.5103 26.7748 17.233 26.6048 17.0613C26.0212 16.472 25.2432 16.1429 24.4152 16.135C24.4045 16.135 24.3942 16.1348 24.3836 16.1348C23.5645 16.1348 22.8015 16.4502 22.2324 17.0247C22.0623 17.1964 22.0632 17.4737 22.2349 17.644C22.4067 17.8142 22.6836 17.814 22.8536 17.6414C23.2625 17.2287 23.832 17.0065 24.4067 17.0108C25.0031 17.0166 25.5632 17.2535 25.9836 17.6779C26.0691 17.7643 26.1819 17.8075 26.2942 17.8075Z" fill="#EA1C2D"/>
<path d="M23.5508 18.7755C23.5555 19.2641 23.9554 19.664 24.444 19.6688C24.9327 19.6736 25.3249 19.2814 25.3202 18.7928C25.3156 18.3042 24.9157 17.9042 24.427 17.8995C23.9384 17.8947 23.5461 18.287 23.5508 18.7755Z" fill="#EA1C2D"/>
</svg>
