<svg width="48" height="49" viewBox="0 0 48 49" fill="none" xmlns="http://www.w3.org/2000/svg">
<ellipse cx="24" cy="24.3413" rx="24" ry="24.0229" fill="#EA1C2D" fill-opacity="0.1"/>
<g clip-path="url(#clip0_0_4295)">
<path d="M32.0984 33.5875V35.9526C32.0984 36.1737 31.9193 36.353 31.6984 36.353C31.4775 36.353 31.2984 36.1737 31.2984 35.9526V33.5875C31.2984 32.479 30.7497 31.446 29.8306 30.8245C29.6475 30.7008 29.5994 30.4519 29.7231 30.2686C29.8468 30.0854 30.0954 30.0372 30.2784 30.161C31.4181 30.9316 32.0984 32.2126 32.0984 33.5875ZM25.5495 30.6683L24.2409 31.6666C24.1222 31.7577 23.9525 31.7789 23.8054 31.6983C23.7602 31.6733 23.9206 31.7922 21.3798 29.8538C21.1261 30.0201 20.8451 30.1372 20.5484 30.2005V32.0035C21.1819 32.1792 21.6484 32.761 21.6484 33.4502C21.6484 34.2781 20.9755 34.9517 20.1484 34.9517C19.3213 34.9517 18.6484 34.2781 18.6484 33.4502C18.6484 32.761 19.115 32.1792 19.7484 32.0035V30.2681C18.0603 30.4073 16.6984 31.8198 16.6984 33.5875V35.9526C16.6984 36.1737 16.5193 36.353 16.2984 36.353C16.0775 36.353 15.8984 36.1737 15.8984 35.9526V33.5875C15.8984 31.3035 17.7449 29.455 20.027 29.455C20.9305 29.455 21.6984 28.7271 21.6984 27.7863V27.6809C19.9524 26.8452 18.7269 25.0892 18.6523 23.0443C17.9338 22.8714 17.3984 22.2277 17.3984 21.4618V16.5841C17.3984 15.7108 18.0404 14.9846 18.8767 14.8535C19.5952 13.3125 21.125 12.3301 22.841 12.3301H26.2714C28.6849 12.3301 30.6484 14.2955 30.6484 16.7113V21.4618C30.6484 21.6829 30.4693 21.8622 30.2484 21.8622C30.0275 21.8622 29.8484 21.6829 29.8484 21.4618V16.7113C29.8484 14.737 28.2438 13.1308 26.2714 13.1308H22.841C21.3698 13.1308 20.0662 14.0143 19.5198 15.3815C19.4591 15.5336 19.312 15.6332 19.1484 15.6332C18.6246 15.6332 18.1984 16.0598 18.1984 16.5841V21.4618C18.1984 21.7795 18.3812 22.0556 18.6484 22.1943V19.5987C18.6484 18.0533 19.9045 16.796 21.4484 16.796H26.5484C28.0924 16.796 29.3484 18.0532 29.3484 19.5986V22.8768C29.3484 26.3588 25.949 29.0037 22.4899 27.9844C22.4518 28.4679 22.2745 28.9229 21.9774 29.3029L23.9984 30.8448L25.0645 30.0314C25.2402 29.8973 25.4912 29.9313 25.6251 30.1071C25.759 30.283 25.7251 30.5342 25.5495 30.6683ZM23.9984 27.4007C26.5073 27.4007 28.5484 25.3577 28.5484 22.8464V19.5985C28.5484 18.4947 27.6512 17.5968 26.5484 17.5968H21.4484C20.3456 17.5968 19.4484 18.4948 19.4484 19.5987V22.8464C19.4484 25.3577 21.4895 27.4007 23.9984 27.4007ZM20.1484 32.7496C19.7624 32.7496 19.4484 33.0639 19.4484 33.4502C19.4484 33.8366 19.7624 34.1509 20.1484 34.1509C20.5344 34.1509 20.8484 33.8366 20.8484 33.4502C20.8484 33.0639 20.5344 32.7496 20.1484 32.7496ZM28.2484 31.9867C28.2484 29.7037 28.2823 29.7416 28.1502 29.5894C28.0805 29.5096 27.9834 29.46 27.8755 29.4527C27.2771 29.4099 26.8093 29.0943 26.5401 28.6518C26.4252 28.4629 26.1791 28.403 25.9904 28.518C25.8018 28.6331 25.7419 28.8794 25.8568 29.0683C26.2126 29.6529 26.7909 30.0579 27.4484 30.1994V31.9868C26.4535 32.175 25.6984 33.0512 25.6984 34.1009V35.9527C25.6984 36.1738 25.8775 36.3531 26.0984 36.3531C26.3193 36.3531 26.4984 36.1738 26.4984 35.9527V34.1009C26.4984 33.3558 27.104 32.7496 27.8484 32.7496C28.5928 32.7496 29.1984 33.3558 29.1984 34.1009V35.9527C29.1984 36.1738 29.3775 36.3531 29.5984 36.3531C29.8193 36.3531 29.9984 36.1738 29.9984 35.9527V34.1009C29.9984 33.0511 29.2434 32.175 28.2484 31.9867Z" fill="#EA1C2D"/>
</g>
<defs>
<clipPath id="clip0_0_4295">
<rect width="24" height="24.0229" fill="white" transform="translate(12 12.3301)"/>
</clipPath>
</defs>
</svg>
