<svg width="48" height="49" viewBox="0 0 48 49" fill="none" xmlns="http://www.w3.org/2000/svg">
<ellipse cx="24" cy="24.7231" rx="24" ry="24.0229" fill="#EA1C2D" fill-opacity="0.1"/>
<path d="M24 30.2283C21.794 30.2283 20 28.4326 20 26.2245C20 24.0164 21.794 22.2207 24 22.2207C26.206 22.2207 28 24.0164 28 26.2245C28 28.4326 26.206 30.2283 24 30.2283ZM24 23.2217C22.346 23.2217 21 24.5689 21 26.2245C21 27.8801 22.346 29.2274 24 29.2274C25.654 29.2274 27 27.8801 27 26.2245C27 24.5689 25.654 23.2217 24 23.2217Z" fill="#EA1C2D"/>
<path d="M26 34.2006C25.894 34.2006 25.788 34.1666 25.7 34.1005L24 32.8243L22.3 34.1005C22.149 34.2137 21.946 34.2327 21.777 34.1476C21.607 34.0625 21.5 33.8893 21.5 33.7002V29.1128C21.5 28.8365 21.724 28.6123 22 28.6123C22.276 28.6123 22.5 28.8365 22.5 29.1128V32.6992L23.7 31.7983C23.878 31.6652 24.122 31.6652 24.3 31.7983L25.5 32.6992V29.1128C25.5 28.8365 25.724 28.6123 26 28.6123C26.276 28.6123 26.5 28.8365 26.5 29.1128V33.7002C26.5 33.8893 26.393 34.0625 26.224 34.1476C26.153 34.1826 26.076 34.2006 26 34.2006Z" fill="#EA1C2D"/>
<path d="M33.5 36.7349H14.5C13.122 36.7349 12 35.6128 12 34.2325V17.2163C12 15.8359 13.122 14.7139 14.5 14.7139H33.5C34.878 14.7139 36 15.8359 36 17.2163V34.2325C36 35.6128 34.878 36.7349 33.5 36.7349ZM14.5 15.7148C13.673 15.7148 13 16.3885 13 17.2163V34.2325C13 35.0603 13.673 35.7339 14.5 35.7339H33.5C34.327 35.7339 35 35.0603 35 34.2325V17.2163C35 16.3885 34.327 15.7148 33.5 15.7148H14.5Z" fill="#EA1C2D"/>
<path d="M35.5 21.7197H12.5C12.224 21.7197 12 21.4957 12 21.2197C12 20.9437 12.224 20.7197 12.5 20.7197H35.5C35.776 20.7197 36 20.9437 36 21.2197C36 21.4957 35.776 21.7197 35.5 21.7197Z" fill="#EA1C2D"/>
<path d="M17.5 17.7167C17.224 17.7167 17 17.4925 17 17.2162V13.2124C17 12.9361 17.224 12.7119 17.5 12.7119C17.776 12.7119 18 12.9361 18 13.2124V17.2162C18 17.4925 17.776 17.7167 17.5 17.7167Z" fill="#EA1C2D"/>
<path d="M30.5 17.7167C30.224 17.7167 30 17.4925 30 17.2162V13.2124C30 12.9361 30.224 12.7119 30.5 12.7119C30.776 12.7119 31 12.9361 31 13.2124V17.2162C31 17.4925 30.776 17.7167 30.5 17.7167Z" fill="#EA1C2D"/>
</svg>
