<svg width="48" height="49" viewBox="0 0 48 49" fill="none" xmlns="http://www.w3.org/2000/svg">
<ellipse cx="24" cy="24.5327" rx="24" ry="24.0229" fill="#EA1C2D" fill-opacity="0.1"/>
<path d="M24 16.2576C23.2224 15.3832 21.104 13.3232 18.4 13.3232C14.2428 13.3232 12 16.642 12 19.7646C12 27.8931 21.4932 34.3553 23.3964 35.5685C23.577 35.6828 23.7863 35.7434 24 35.7434C24.2137 35.7434 24.423 35.6828 24.6036 35.5685C26.5068 34.3553 36 27.8931 36 19.7646C36 16.642 33.7572 13.3232 29.6 13.3232C26.896 13.3232 24.7776 15.3832 24 16.2576ZM35.2 19.7646C35.2 27.4747 26.0152 33.7191 24.174 34.8926C24.1221 34.9259 24.0617 34.9437 24 34.9437C23.9383 34.9437 23.8779 34.9259 23.826 34.8926C21.9848 33.7191 12.8 27.4747 12.8 19.7646C12.8 17.0304 14.7624 14.124 18.4 14.124C21.36 14.124 23.6588 17.0936 23.68 17.1237C23.719 17.1701 23.7676 17.2075 23.8226 17.2331C23.8775 17.2588 23.9374 17.2721 23.998 17.2721C24.0586 17.2721 24.1185 17.2588 24.1734 17.2331C24.2284 17.2075 24.277 17.1701 24.316 17.1237C24.3412 17.0936 26.64 14.124 29.6 14.124C33.2376 14.124 35.2 17.0304 35.2 19.7646Z" fill="#EA1C2D"/>
<path d="M29.6016 23.331C29.6016 23.0125 29.4751 22.7069 29.2501 22.4817C29.025 22.2564 28.7198 22.1299 28.4016 22.1299H27.6016C27.2833 22.1299 26.9781 22.2564 26.753 22.4817C26.528 22.7069 26.4016 23.0125 26.4016 23.331V27.7352H25.6016V24.5322C25.6016 24.2136 25.4751 23.9081 25.2501 23.6828C25.025 23.4576 24.7198 23.331 24.4016 23.331H23.6016C23.2833 23.331 22.9781 23.4576 22.753 23.6828C22.528 23.9081 22.4016 24.2136 22.4016 24.5322V27.7352H21.6016V25.7333C21.6016 25.4148 21.4751 25.1092 21.2501 24.884C21.025 24.6587 20.7198 24.5322 20.4016 24.5322H19.6016C19.2833 24.5322 18.9781 24.6587 18.753 24.884C18.528 25.1092 18.4016 25.4148 18.4016 25.7333V27.7352H18.0016C17.8955 27.7352 17.7937 27.7774 17.7187 27.8525C17.6437 27.9276 17.6016 28.0294 17.6016 28.1356C17.6016 28.2418 17.6437 28.3436 17.7187 28.4187C17.7937 28.4938 17.8955 28.536 18.0016 28.536H30.0016C30.1076 28.536 30.2094 28.4938 30.2844 28.4187C30.3594 28.3436 30.4016 28.2418 30.4016 28.1356C30.4016 28.0294 30.3594 27.9276 30.2844 27.8525C30.2094 27.7774 30.1076 27.7352 30.0016 27.7352H29.6016V23.331ZM20.8016 27.7352H19.2016V25.7333C19.2016 25.6271 19.2437 25.5253 19.3187 25.4502C19.3937 25.3751 19.4955 25.3329 19.6016 25.3329H20.4016C20.5076 25.3329 20.6094 25.3751 20.6844 25.4502C20.7594 25.5253 20.8016 25.6271 20.8016 25.7333V27.7352ZM24.8016 27.7352H23.2016V24.5322C23.2016 24.426 23.2437 24.3241 23.3187 24.2491C23.3937 24.174 23.4955 24.1318 23.6016 24.1318H24.4016C24.5076 24.1318 24.6094 24.174 24.6844 24.2491C24.7594 24.3241 24.8016 24.426 24.8016 24.5322V27.7352ZM28.8016 27.7352H27.2016V23.331C27.2016 23.2248 27.2437 23.123 27.3187 23.0479C27.3937 22.9728 27.4955 22.9306 27.6016 22.9306H28.4016C28.5077 22.9306 28.6094 22.9728 28.6844 23.0479C28.7594 23.123 28.8016 23.2248 28.8016 23.331V27.7352Z" fill="#EA1C2D"/>
<path d="M29.3968 18.2483L27.8476 17.8479C27.7961 17.8324 27.7419 17.8275 27.6885 17.8335C27.635 17.8395 27.5833 17.8562 27.5364 17.8827C27.4895 17.9092 27.4485 17.9448 27.4157 17.9875C27.3829 18.0302 27.3591 18.0791 27.3456 18.1313C27.3322 18.1834 27.3293 18.2377 27.3374 18.291C27.3454 18.3443 27.364 18.3954 27.3922 18.4412C27.4204 18.4871 27.4576 18.5268 27.5014 18.558C27.5453 18.5891 27.595 18.6111 27.6476 18.6226L28.194 18.7639L19.034 22.968C18.9376 23.0122 18.8627 23.0931 18.8258 23.1926C18.7889 23.2922 18.793 23.4023 18.8372 23.4989C18.8815 23.5954 18.9622 23.6704 19.0617 23.7073C19.1611 23.7443 19.2712 23.7401 19.3676 23.6959L28.68 19.4214L28.5084 20.086C28.4819 20.1888 28.4973 20.2979 28.5511 20.3894C28.605 20.4808 28.6929 20.5471 28.7956 20.5737C28.8284 20.5824 28.8621 20.5867 28.896 20.5865C28.9846 20.5864 29.0707 20.5568 29.1407 20.5025C29.2107 20.4481 29.2607 20.3721 29.2828 20.2862L29.6828 18.7355C29.7092 18.633 29.694 18.5241 29.6404 18.4328C29.5868 18.3414 29.4992 18.2751 29.3968 18.2483Z" fill="#EA1C2D"/>
</svg>
