<svg width="21" height="20" viewBox="0 0 21 20" fill="none" xmlns="http://www.w3.org/2000/svg">
<path fill-rule="evenodd" clip-rule="evenodd" d="M14.0649 0.833984C14.4099 0.833984 14.6899 1.11398 14.6899 1.45898L14.6903 2.16549C15.907 2.24891 16.9176 2.66569 17.6328 3.3824C18.4136 4.16657 18.8245 5.29407 18.8203 6.64657V14.2491C18.8203 17.0257 17.057 18.7507 14.2195 18.7507H7.17115C4.33365 18.7507 2.57031 17.0016 2.57031 14.1857V6.6449C2.57031 4.02589 4.14286 2.34477 6.70755 2.16578L6.70806 1.45898C6.70806 1.11398 6.98806 0.833984 7.33306 0.833984C7.67806 0.833984 7.95806 1.11398 7.95806 1.45898L7.95781 2.14982H13.4395L13.4399 1.45898C13.4399 1.11398 13.7199 0.833984 14.0649 0.833984ZM17.5703 8.25398H3.82031V14.1857C3.82031 16.3241 5.01031 17.5007 7.17115 17.5007H14.2195C16.3803 17.5007 17.5703 16.3457 17.5703 14.2491L17.5703 8.25398ZM14.4046 13.4976C14.7496 13.4976 15.0296 13.7776 15.0296 14.1226C15.0296 14.4676 14.7496 14.7476 14.4046 14.7476C14.0596 14.7476 13.7763 14.4676 13.7763 14.1226C13.7763 13.7776 14.0521 13.4976 14.3971 13.4976H14.4046ZM10.7067 13.4976C11.0517 13.4976 11.3317 13.7776 11.3317 14.1226C11.3317 14.4676 11.0517 14.7476 10.7067 14.7476C10.3617 14.7476 10.0784 14.4676 10.0784 14.1226C10.0784 13.7776 10.3542 13.4976 10.6992 13.4976H10.7067ZM7.00106 13.4976C7.34606 13.4976 7.62606 13.7776 7.62606 14.1226C7.62606 14.4676 7.34606 14.7476 7.00106 14.7476C6.65606 14.7476 6.3719 14.4676 6.3719 14.1226C6.3719 13.7776 6.64856 13.4976 6.99356 13.4976H7.00106ZM14.4046 10.2587C14.7496 10.2587 15.0296 10.5387 15.0296 10.8837C15.0296 11.2287 14.7496 11.5087 14.4046 11.5087C14.0596 11.5087 13.7763 11.2287 13.7763 10.8837C13.7763 10.5387 14.0521 10.2587 14.3971 10.2587H14.4046ZM10.7067 10.2587C11.0517 10.2587 11.3317 10.5387 11.3317 10.8837C11.3317 11.2287 11.0517 11.5087 10.7067 11.5087C10.3617 11.5087 10.0784 11.2287 10.0784 10.8837C10.0784 10.5387 10.3542 10.2587 10.6992 10.2587H10.7067ZM7.00106 10.2587C7.34606 10.2587 7.62606 10.5387 7.62606 10.8837C7.62606 11.2287 7.34606 11.5087 7.00106 11.5087C6.65606 11.5087 6.3719 11.2287 6.3719 10.8837C6.3719 10.5387 6.64856 10.2587 6.99356 10.2587H7.00106ZM13.4395 3.39982H7.95781L7.95806 4.20148C7.95806 4.54648 7.67806 4.82648 7.33306 4.82648C6.98806 4.82648 6.70806 4.54648 6.70806 4.20148L6.70762 3.41874C4.84076 3.57556 3.82031 4.7072 3.82031 6.6449V7.00398H17.5703L17.5703 6.6449C17.5736 5.61573 17.297 4.81573 16.7478 4.26573C16.2657 3.78224 15.561 3.49349 14.6906 3.41914L14.6899 4.20148C14.6899 4.54648 14.4099 4.82648 14.0649 4.82648C13.7199 4.82648 13.4399 4.54648 13.4399 4.20148L13.4395 3.39982Z" fill="#6D6E71"/>
</svg>
