<svg width="20" height="20" viewBox="0 0 20 20" fill="none" xmlns="http://www.w3.org/2000/svg">
<path fill-rule="evenodd" clip-rule="evenodd" d="M9.79297 0.833984C12.1871 0.833984 14.4371 1.76482 16.1271 3.45565C19.6205 6.94898 19.6205 12.6323 16.1271 16.1257C14.4146 17.839 12.1088 18.7457 9.77297 18.7457C8.49964 18.7457 7.21797 18.4765 6.0188 17.9215C5.66547 17.7798 5.33464 17.6465 5.09714 17.6465C4.8238 17.6482 4.4563 17.7748 4.1013 17.8973C3.37297 18.1473 2.4663 18.459 1.79547 17.7907C1.12714 17.1215 1.43547 16.2173 1.6838 15.4898C1.8063 15.1315 1.93214 14.7615 1.93214 14.4815C1.93214 14.2515 1.8213 13.9582 1.6513 13.5357C0.0904684 10.1648 0.812135 6.10232 3.45964 3.45648C5.14964 1.76565 7.3988 0.833984 9.79297 0.833984ZM9.7938 2.08398C7.73297 2.08398 5.79714 2.88565 4.34297 4.34065C2.06464 6.61732 1.44464 10.1132 2.7988 13.0407C2.9938 13.5232 3.18214 13.9932 3.18214 14.4815C3.18214 14.969 3.01464 15.4598 2.86714 15.8932C2.74547 16.2498 2.5613 16.7882 2.67964 16.9065C2.79547 17.0265 3.33714 16.8373 3.69464 16.7148C4.1238 16.5682 4.61047 16.3998 5.09297 16.3965C5.5763 16.3965 6.03214 16.5798 6.51464 16.774C9.47047 18.1407 12.9663 17.519 15.2438 15.2423C18.2488 12.2357 18.2488 7.34482 15.2438 4.33982C13.7888 2.88482 11.8538 2.08398 9.7938 2.08398ZM13.0829 9.3029C13.5429 9.3029 13.9162 9.6754 13.9162 10.1362C13.9162 10.5971 13.5429 10.9696 13.0829 10.9696C12.6229 10.9696 12.2462 10.5971 12.2462 10.1362C12.2462 9.6754 12.6154 9.3029 13.0754 9.3029H13.0829ZM9.74222 9.3029C10.2022 9.3029 10.5756 9.6754 10.5756 10.1362C10.5756 10.5971 10.2022 10.9696 9.74222 10.9696C9.28222 10.9696 8.90555 10.5971 8.90555 10.1362C8.90555 9.6754 9.27389 9.3029 9.73472 9.3029H9.74222ZM6.40122 9.3029C6.86122 9.3029 7.23455 9.6754 7.23455 10.1362C7.23455 10.5971 6.86122 10.9696 6.40122 10.9696C5.94122 10.9696 5.56455 10.5971 5.56455 10.1362C5.56455 9.6754 5.93372 9.3029 6.39372 9.3029H6.40122Z" fill="#6D6E71"/>
</svg>
